<svg width="320" height="219" viewBox="0 0 320 219" fill="none" xmlns="http://www.w3.org/2000/svg">
<g clip-path="url(#clip0_2714_5800)">
<path d="M2.47299 78.882C2.34816 80.0495 2.2832 81.2342 2.2832 82.4351V112.488C2.2832 130.657 17.0084 145.386 35.1731 145.386C46.5258 145.386 56.5358 139.632 62.4466 130.882" stroke="#21C06E" stroke-width="3.8" stroke-linecap="round" stroke-linejoin="round"/>
<path d="M325.728 43.2145C324.561 43.0896 323.376 43.0247 322.176 43.0247H292.131C273.966 43.0247 259.241 57.7536 259.241 75.923C259.241 87.2786 264.993 97.2911 273.742 103.203" stroke="#3FBA7A" stroke-width="3.8" stroke-linecap="round" stroke-linejoin="round"/>
<path d="M143.695 100.381C143.603 99.5336 143.557 122.064 143.557 121.192V84.7051C143.557 71.5121 154.25 60.8164 167.439 60.8164" stroke="#3FBA7A" stroke-width="3.8" stroke-linecap="round" stroke-linejoin="round"/>
<path d="M203.805 18.3025C203.897 19.1501 203.943 11.2847 203.943 12.1567V33.9786C203.943 47.1716 193.25 57.8673 180.061 57.8673" stroke="#0B8C49" stroke-width="3.8" stroke-linecap="round" stroke-linejoin="round"/>
<path d="M26.4879 7.8777C26.5894 8.82281 26.6412 0.0497956 26.6412 1.0213V25.3638C26.6412 40.0806 14.714 52.0118 0 52.0118" stroke="#0B8C49" stroke-width="3.8" stroke-linecap="round" stroke-linejoin="round"/>
<path d="M263.048 175.909C262.956 175.061 262.91 182.927 262.91 182.055V160.233C262.91 147.04 273.603 136.344 286.792 136.344" stroke="#21C06E" stroke-width="3.8" stroke-linecap="round" stroke-linejoin="round"/>
<path d="M323.16 93.8303C323.251 94.6779 323.298 86.8125 323.298 87.6845V109.506C323.298 122.699 312.605 133.395 299.415 133.395" stroke="#21C06E" stroke-width="3.8" stroke-linecap="round" stroke-linejoin="round"/>
<path d="M237.367 29.5544C237.48 30.6092 237.538 3.05977 237.538 4.14396V49.0577C237.538 65.4728 224.235 78.7795 207.824 78.7795" stroke="#21C06E" stroke-width="3.8" stroke-linecap="round" stroke-linejoin="round"/>
<path d="M68.0652 112.487V82.4341C68.0652 81.8402 68.05 81.2504 68.0186 80.6647" stroke="#0B8C49" stroke-width="3.8" stroke-linecap="round" stroke-linejoin="round"/>
<path d="M17.3896 98.7569V112.654C17.3896 121.739 24.7528 129.104 33.8351 129.104C42.9175 129.104 50.2806 121.739 50.2806 112.654V74.9839" stroke="#3FBA7A" stroke-width="3.8" stroke-linecap="round" stroke-linejoin="round"/>
<path d="M194.899 111.345C194.774 112.512 194.709 143.362 194.709 144.562V174.615C194.709 192.784 209.434 207.513 227.599 207.513C238.952 207.513 248.962 201.759 254.872 193.008" stroke="#0B8C49" stroke-width="3.8" stroke-linecap="round" stroke-linejoin="round"/>
<path d="M211.438 155.2V169.097C211.438 178.182 218.801 185.547 227.883 185.547C236.965 185.547 244.328 178.182 244.328 169.097V112.563" stroke="#3FBA7A" stroke-width="3.8" stroke-linecap="round" stroke-linejoin="round"/>
<path d="M134.523 14.4915C133.631 14.3961 93.9822 14.3463 93.0647 14.3463H70.1005C56.2167 14.3463 44.9614 25.6045 44.9614 39.4919C44.9614 48.1715 49.358 55.8237 56.0452 60.3422" stroke="#3FBA7A" stroke-width="3.8" stroke-linecap="round" stroke-linejoin="round"/>
<path d="M88.3697 31.3056H73.5734C67.4526 31.3056 62.4907 36.2687 62.4907 42.3911C62.4907 48.5136 67.4526 53.4767 73.5734 53.4767H98.9551" stroke="#3FBA7A" stroke-width="3.8" stroke-linecap="round" stroke-linejoin="round"/>
<path d="M114.999 53.4767H121.993C128.114 53.4767 133.076 48.5136 133.076 42.3911C133.076 36.2687 128.114 31.3056 121.993 31.3056H82.7642" stroke="#3FBA7A" stroke-width="3.8" stroke-linecap="round" stroke-linejoin="round"/>
<path d="M253.421 -1.00256e-05C253.421 10.8551 262.219 19.6555 273.071 19.6555H318.073" stroke="#0B8C49" stroke-width="3.8" stroke-linecap="round" stroke-linejoin="round"/>
<path d="M111.963 173.331H75.6918C69.7615 173.331 64.9541 168.522 64.9541 162.59V158.957C64.9541 153.025 69.7615 148.216 75.6918 148.216H111.963C117.894 148.216 122.701 153.025 122.701 158.957V162.59C122.701 168.522 117.894 173.331 111.963 173.331Z" stroke="#0B8C49" stroke-width="3.8" stroke-linecap="round" stroke-linejoin="round"/>
<path d="M301.542 177.128V168.356C301.542 162.425 296.735 157.616 290.804 157.616H290.651C284.721 157.616 279.914 162.425 279.914 168.356V196.634C279.914 202.565 284.721 207.374 290.651 207.374H290.804C296.735 207.374 301.542 202.565 301.542 196.634V188.089" stroke="#3FBA7A" stroke-width="3.8" stroke-linecap="round" stroke-linejoin="round"/>
<path d="M92.7544 87.1232V111.85C92.7544 117.782 97.562 122.591 103.492 122.591H107.123C113.053 122.591 117.861 117.782 117.861 111.85V87.1232C117.861 81.1916 113.053 76.3828 107.123 76.3828H103.492C97.562 76.3828 92.7544 81.1916 92.7544 87.1232Z" stroke="#0B8C49" stroke-width="3.8" stroke-linecap="round" stroke-linejoin="round"/>
<path d="M174.87 19.6821C180.902 19.6821 185.791 24.5732 185.791 30.6063C185.791 36.6394 180.902 41.5304 174.87 41.5304C168.839 41.5304 163.949 36.6394 163.949 30.6063V3.33195" stroke="#21C06E" stroke-width="3.8" stroke-linecap="round" stroke-linejoin="round"/>
<path d="M305.313 76.2965C305.313 84.9162 298.327 91.9045 289.709 91.9045C281.092 91.9045 274.105 84.9162 274.105 76.2965C274.105 67.6767 281.092 60.6884 289.709 60.6884H369.882" stroke="#0B8143" stroke-width="3.8" stroke-linecap="round" stroke-linejoin="round"/>
<path d="M27.2159 170.313V166.774C27.2159 159.561 21.3711 153.715 14.1602 153.715C6.94931 153.715 1.10449 159.561 1.10449 166.774V195.404C1.10449 202.617 6.94931 208.463 14.1602 208.463C21.3711 208.463 27.2159 202.617 27.2159 195.404" stroke="#3FBA7A" stroke-width="3.8" stroke-linecap="round" stroke-linejoin="round"/>
<path d="M59.8451 209.173H63.383C70.5939 209.173 76.4387 203.327 76.4387 196.114C76.4387 188.901 70.5939 183.055 63.383 183.055H15.5781" stroke="#0B8143" stroke-width="3.8" stroke-linecap="round" stroke-linejoin="round"/>
<path d="M157.613 131.347C146.451 131.347 137.401 140.399 137.401 151.564C137.401 162.73 146.45 171.781 157.613 171.781C168.776 171.781 177.825 162.73 177.825 151.564V93.0912" stroke="#21C06E" stroke-width="3.8" stroke-linecap="round" stroke-linejoin="round"/>
<path d="M157.405 143.988C161.842 143.988 165.439 147.586 165.439 152.024C165.439 156.463 161.842 160.06 157.405 160.06C152.968 160.06 149.371 156.463 149.371 152.024C149.371 147.586 152.968 143.988 157.405 143.988Z" stroke="#0B8C49" stroke-width="3.8" stroke-linecap="round" stroke-linejoin="round"/>
<path d="M211.658 144.642V124.948" stroke="#3FBA7A" stroke-width="3.8" stroke-linecap="round" stroke-linejoin="round"/>
<path d="M132.697 207.582H178.976" stroke="#0B8C49" stroke-width="3.8" stroke-linecap="round" stroke-linejoin="round"/>
<path d="M114.604 200.742C114.604 206.775 109.715 211.666 103.683 211.666C97.6515 211.666 92.7617 206.775 92.7617 200.742C92.7617 194.709 97.6515 189.818 103.683 189.818H159.798" stroke="#21C06E" stroke-width="3.8" stroke-linecap="round" stroke-linejoin="round"/>
</g>
<defs>
<clipPath id="clip0_2714_5800">
<rect width="320" height="219" fill="white"/>
</clipPath>
</defs>
</svg>
