<svg width="321" height="230" viewBox="0 0 321 230" fill="none" xmlns="http://www.w3.org/2000/svg">
<g clip-path="url(#clip0_2658_9417)">
<path d="M-30.2347 83.5604C-30.3681 84.8077 -30.4375 86.0735 -30.4375 87.3567L-30.4375 119.467C-30.4375 138.88 -14.7042 154.617 4.70401 154.617C16.8339 154.617 27.5291 148.469 33.8445 139.12" stroke="#014EC0" stroke-width="3.8" stroke-linecap="round" stroke-linejoin="round"/>
<path d="M315.15 45.4507C313.903 45.3172 312.638 45.2478 311.355 45.2478L279.253 45.2478C259.845 45.2478 244.111 60.9851 244.111 80.3983C244.111 92.5313 250.258 103.229 259.605 109.546" stroke="#0252C9" stroke-width="3.8" stroke-linecap="round" stroke-linejoin="round"/>
<path d="M120.655 106.532C120.558 105.626 120.508 129.699 120.508 128.767V89.7822C120.508 75.686 131.933 64.2581 146.025 64.2581" stroke="#003077" stroke-width="3.8" stroke-linecap="round" stroke-linejoin="round"/>
<path d="M184.88 18.8332C184.978 19.7389 185.027 11.3349 185.027 12.2667V35.5824C185.027 49.6786 173.602 61.1066 159.51 61.1066" stroke="#003687" stroke-width="3.8" stroke-linecap="round" stroke-linejoin="round"/>
<path d="M248.179 187.23C248.081 186.324 248.031 194.728 248.031 193.796V170.481C248.031 156.384 259.456 144.956 273.549 144.956" stroke="#014EC0" stroke-width="3.8" stroke-linecap="round" stroke-linejoin="round"/>
<path d="M312.405 99.5321C312.503 100.438 312.553 92.0339 312.553 92.9656V116.281C312.553 130.378 301.128 141.806 287.035 141.806" stroke="#014EC0" stroke-width="3.8" stroke-linecap="round" stroke-linejoin="round"/>
<path d="M220.739 30.8557C220.861 31.9827 220.922 2.54724 220.922 3.70566V51.6941C220.922 69.233 206.708 83.4507 189.174 83.4507" stroke="#014EC0" stroke-width="3.8" stroke-linecap="round" stroke-linejoin="round"/>
<path d="M39.8477 119.466L39.8477 87.3558C39.8477 86.7212 39.8315 86.0911 39.7979 85.4652" stroke="#003687" stroke-width="3.8" stroke-linecap="round" stroke-linejoin="round"/>
<path d="M-14.2969 104.795L-14.2969 119.644C-14.2969 129.351 -6.4297 137.22 3.27442 137.22C12.9785 137.22 20.8457 129.351 20.8457 119.644L20.8457 79.3949" stroke="#0252C9" stroke-width="3.8" stroke-linecap="round" stroke-linejoin="round"/>
<path d="M175.364 118.246C175.231 119.493 175.161 152.455 175.161 153.737V185.847C175.161 205.26 190.894 220.997 210.303 220.997C222.433 220.997 233.128 214.849 239.443 205.5" stroke="#003687" stroke-width="3.8" stroke-linecap="round" stroke-linejoin="round"/>
<path d="M193.035 165.102V179.951C193.035 189.658 200.902 197.527 210.606 197.527C220.311 197.527 228.178 189.658 228.178 179.951V119.547" stroke="#0252C9" stroke-width="3.8" stroke-linecap="round" stroke-linejoin="round"/>
<path d="M110.855 14.7618C109.902 14.6598 67.5388 14.6067 66.5585 14.6067H42.0222C27.1879 14.6067 15.1621 26.6355 15.1621 41.4736C15.1621 50.7474 19.8596 58.9235 27.0046 63.7513" stroke="#003077" stroke-width="3.8" stroke-linecap="round" stroke-linejoin="round"/>
<path d="M61.5432 32.7271H45.734C39.1941 32.7271 33.8926 38.03 33.8926 44.5716C33.8926 51.1131 39.1941 56.416 45.734 56.416L72.8533 56.416" stroke="#0252C9" stroke-width="3.8" stroke-linecap="round" stroke-linejoin="round"/>
<path d="M89.9948 56.416H97.4673C104.007 56.416 109.309 51.1131 109.309 44.5716C109.309 38.03 104.007 32.7271 97.4673 32.7271L55.5527 32.7271" stroke="#0252C9" stroke-width="3.8" stroke-linecap="round" stroke-linejoin="round"/>
<path d="M237.893 2.48326C237.893 14.0815 247.293 23.4844 258.888 23.4844L306.971 23.4844" stroke="#003077" stroke-width="3.8" stroke-linecap="round" stroke-linejoin="round"/>
<path d="M327.446 45.4609H335.424C342.407 45.4609 348.066 39.799 348.066 32.816C348.066 25.8319 342.405 20.1711 335.424 20.1711L315.914 20.1711" stroke="#0252C9" stroke-width="3.8" stroke-linecap="round" stroke-linejoin="round"/>
<path d="M86.7508 184.475H47.9962C41.66 184.475 36.5234 179.337 36.5234 172.999V169.117C36.5234 162.779 41.66 157.641 47.9962 157.641H86.7508C93.087 157.641 98.2236 162.779 98.2236 169.117V172.999C98.2236 179.337 93.087 184.475 86.7508 184.475Z" stroke="#003687" stroke-width="3.8" stroke-linecap="round" stroke-linejoin="round"/>
<path d="M289.308 188.533V179.16C289.308 172.822 284.172 167.684 277.836 167.684H277.672C271.336 167.684 266.199 172.822 266.199 179.16V209.373C266.199 215.711 271.336 220.849 277.672 220.849H277.836C284.172 220.849 289.308 215.711 289.308 209.373V200.244" stroke="#003077" stroke-width="3.8" stroke-linecap="round" stroke-linejoin="round"/>
<path d="M66.2266 92.3656V118.786C66.2266 125.123 71.3633 130.261 77.6993 130.261H81.5792C87.9153 130.261 93.052 125.123 93.052 118.786V92.3656C93.052 86.028 87.9153 80.89 81.5792 80.89H77.6993C71.3633 80.89 66.2266 86.028 66.2266 92.3656Z" stroke="#003687" stroke-width="3.8" stroke-linecap="round" stroke-linejoin="round"/>
<path d="M153.964 20.3071C160.408 20.3071 165.633 25.533 165.633 31.9791C165.633 38.4252 160.408 43.6511 153.964 43.6511C147.519 43.6511 142.295 38.4252 142.295 31.9791V2.83767" stroke="#014EC0" stroke-width="3.8" stroke-linecap="round" stroke-linejoin="round"/>
<path d="M293.337 80.7975C293.337 90.0073 285.872 97.4741 276.665 97.4741C267.457 97.4741 259.992 90.0073 259.992 80.7975C259.992 71.5877 267.457 64.1209 276.665 64.1209L362.326 64.1209" stroke="#003077" stroke-width="3.8" stroke-linecap="round" stroke-linejoin="round"/>
<path d="M370.659 133.596C369.653 133.488 368.633 133.432 367.6 133.432H341.726C326.083 133.432 313.402 146.116 313.402 161.763C313.402 171.543 318.356 180.164 325.89 185.256" stroke="#0252C9" stroke-width="3.8" stroke-linecap="round" stroke-linejoin="round"/>
<path d="M31.065 222.771H34.8451C42.5497 222.771 48.7946 216.524 48.7946 208.818C48.7946 201.111 42.5497 194.865 34.8451 194.865H-16.2324" stroke="#003077" stroke-width="3.8" stroke-linecap="round" stroke-linejoin="round"/>
<path d="M135.526 139.617C123.6 139.617 113.931 149.288 113.931 161.218C113.931 173.148 123.599 182.819 135.526 182.819C147.453 182.819 157.122 173.148 157.122 161.218V98.742" stroke="#014EC0" stroke-width="3.8" stroke-linecap="round" stroke-linejoin="round"/>
<path d="M135.303 153.124C140.043 153.124 143.887 156.968 143.887 161.71C143.887 166.452 140.043 170.296 135.303 170.296C130.562 170.296 126.719 166.452 126.719 161.71C126.719 156.968 130.562 153.124 135.303 153.124Z" stroke="#003687" stroke-width="3.8" stroke-linecap="round" stroke-linejoin="round"/>
<path d="M193.271 153.822V132.78" stroke="#0252C9" stroke-width="3.8" stroke-linecap="round" stroke-linejoin="round"/>
<path d="M108.904 221.071H158.352" stroke="#003687" stroke-width="3.8" stroke-linecap="round" stroke-linejoin="round"/>
<path d="M89.5724 213.762C89.5724 220.209 84.3479 225.434 77.9034 225.434C71.4589 225.434 66.2344 220.209 66.2344 213.762C66.2344 207.316 71.4589 202.09 77.9034 202.09H137.86" stroke="#014EC0" stroke-width="3.8" stroke-linecap="round" stroke-linejoin="round"/>
</g>
<defs>
<clipPath id="clip0_2658_9417">
<rect width="320" height="230" fill="white" transform="matrix(1 0 0 -1 0.123047 230)"/>
</clipPath>
</defs>
</svg>
