<svg width="320" height="233" viewBox="0 0 320 233" fill="none" xmlns="http://www.w3.org/2000/svg">
<g clip-path="url(#clip0_2658_9695)">
<path d="M-29.3578 83.2716C-29.4911 84.5189 -29.5605 85.7847 -29.5605 87.0679L-29.5605 119.178C-29.5605 138.591 -13.8273 154.328 5.58096 154.328C17.7108 154.328 28.4061 148.181 34.7215 138.831" stroke="#1673FF" stroke-width="3.8" stroke-linecap="round" stroke-linejoin="round"/>
<path d="M316.027 45.1618C314.78 45.0284 313.515 44.959 312.232 44.959L280.13 44.959C260.722 44.959 244.988 60.6963 244.988 80.1095C244.988 92.2424 251.135 102.94 260.482 109.257" stroke="#247CFF" stroke-width="3.8" stroke-linecap="round" stroke-linejoin="round"/>
<path d="M121.532 106.243C121.435 105.337 121.385 129.41 121.385 128.478V89.4934C121.385 75.3972 132.81 63.9693 146.902 63.9693" stroke="#0D36AA" stroke-width="3.8" stroke-linecap="round" stroke-linejoin="round"/>
<path d="M185.757 18.5443C185.854 19.45 185.904 11.0461 185.904 11.9778V35.2936C185.904 49.3898 174.479 60.8177 160.387 60.8177" stroke="#033A8B" stroke-width="3.8" stroke-linecap="round" stroke-linejoin="round"/>
<path d="M249.056 186.941C248.958 186.035 248.908 194.439 248.908 193.508V170.192C248.908 156.096 260.333 144.668 274.426 144.668" stroke="#1673FF" stroke-width="3.8" stroke-linecap="round" stroke-linejoin="round"/>
<path d="M313.282 99.2433C313.38 100.149 313.43 91.7451 313.43 92.6768V115.993C313.43 130.089 302.005 141.517 287.912 141.517" stroke="#1673FF" stroke-width="3.8" stroke-linecap="round" stroke-linejoin="round"/>
<path d="M221.616 30.5669C221.737 31.6938 221.799 2.25843 221.799 3.41684V51.4053C221.799 68.9442 207.585 83.1619 190.051 83.1619" stroke="#1673FF" stroke-width="3.8" stroke-linecap="round" stroke-linejoin="round"/>
<path d="M40.7247 119.177L40.7247 87.0669C40.7247 86.4324 40.7084 85.8022 40.6748 85.1764" stroke="#033A8B" stroke-width="3.8" stroke-linecap="round" stroke-linejoin="round"/>
<path d="M-13.4199 104.507L-13.4199 119.356C-13.4199 129.062 -5.55274 136.931 4.15137 136.931C13.8555 136.931 21.7227 129.062 21.7227 119.356L21.7227 79.1061" stroke="#247CFF" stroke-width="3.8" stroke-linecap="round" stroke-linejoin="round"/>
<path d="M176.241 117.957C176.107 119.204 176.038 152.166 176.038 153.448V185.558C176.038 204.971 191.771 220.708 211.18 220.708C223.309 220.708 234.005 214.561 240.32 205.211" stroke="#033A8B" stroke-width="3.8" stroke-linecap="round" stroke-linejoin="round"/>
<path d="M193.912 164.813V179.662C193.912 189.369 201.779 197.238 211.483 197.238C221.188 197.238 229.055 189.369 229.055 179.662V119.258" stroke="#247CFF" stroke-width="3.8" stroke-linecap="round" stroke-linejoin="round"/>
<path d="M111.732 14.4729C110.779 14.371 68.4157 14.3178 67.4354 14.3178H42.8992C28.0648 14.3178 16.0391 26.3467 16.0391 41.1848C16.0391 50.4586 20.7366 58.6347 27.8816 63.4625" stroke="#0D36AA" stroke-width="3.8" stroke-linecap="round" stroke-linejoin="round"/>
<path d="M62.4201 32.4383H46.611C40.0711 32.4383 34.7695 37.7412 34.7695 44.2828C34.7695 50.8243 40.0711 56.1272 46.611 56.1272L73.7302 56.1272" stroke="#247CFF" stroke-width="3.8" stroke-linecap="round" stroke-linejoin="round"/>
<path d="M90.8718 56.1272H98.3442C104.884 56.1272 110.186 50.8243 110.186 44.2828C110.186 37.7412 104.884 32.4383 98.3442 32.4383L56.4297 32.4383" stroke="#247CFF" stroke-width="3.8" stroke-linecap="round" stroke-linejoin="round"/>
<path d="M238.77 2.19444C238.77 13.7927 248.17 23.1956 259.765 23.1956L307.848 23.1956" stroke="#0D36AA" stroke-width="3.8" stroke-linecap="round" stroke-linejoin="round"/>
<path d="M328.323 45.1721H336.301C343.283 45.1721 348.943 39.5102 348.943 32.5272C348.943 25.5431 343.282 19.8823 336.301 19.8823L316.791 19.8823" stroke="#247CFF" stroke-width="3.8" stroke-linecap="round" stroke-linejoin="round"/>
<path d="M87.6278 184.186H48.8731C42.5369 184.186 37.4004 179.048 37.4004 172.71V168.828C37.4004 162.49 42.5369 157.352 48.8731 157.352H87.6278C93.964 157.352 99.1005 162.49 99.1005 168.828V172.71C99.1005 179.048 93.964 184.186 87.6278 184.186Z" stroke="#033A8B" stroke-width="3.8" stroke-linecap="round" stroke-linejoin="round"/>
<path d="M290.185 188.244V178.871C290.185 172.534 285.049 167.396 278.713 167.396H278.549C272.213 167.396 267.076 172.534 267.076 178.871V209.084C267.076 215.422 272.213 220.56 278.549 220.56H278.713C285.049 220.56 290.185 215.422 290.185 209.084V199.955" stroke="#0D36AA" stroke-width="3.8" stroke-linecap="round" stroke-linejoin="round"/>
<path d="M67.1035 92.0768V118.497C67.1035 124.835 72.2402 129.973 78.5763 129.973H82.4562C88.7922 129.973 93.9289 124.835 93.9289 118.497V92.0768C93.9289 85.7392 88.7922 80.6011 82.4562 80.6011H78.5763C72.2402 80.6011 67.1035 85.7392 67.1035 92.0768Z" stroke="#033A8B" stroke-width="3.8" stroke-linecap="round" stroke-linejoin="round"/>
<path d="M154.841 20.0183C161.285 20.0183 166.51 25.2442 166.51 31.6903C166.51 38.1364 161.285 43.3623 154.841 43.3623C148.396 43.3623 143.172 38.1364 143.172 31.6903V2.54885" stroke="#1673FF" stroke-width="3.8" stroke-linecap="round" stroke-linejoin="round"/>
<path d="M294.214 80.5087C294.214 89.7185 286.749 97.1853 277.541 97.1853C268.334 97.1853 260.869 89.7185 260.869 80.5087C260.869 71.2989 268.334 63.8321 277.541 63.8321L363.203 63.8321" stroke="#0D36AA" stroke-width="3.8" stroke-linecap="round" stroke-linejoin="round"/>
<path d="M371.536 133.307C370.53 133.2 369.51 133.143 368.477 133.143H342.603C326.96 133.143 314.279 145.827 314.279 161.474C314.279 171.254 319.233 179.876 326.767 184.967" stroke="#247CFF" stroke-width="3.8" stroke-linecap="round" stroke-linejoin="round"/>
<path d="M31.9419 222.482H35.7221C43.4266 222.482 49.6715 216.235 49.6715 208.529C49.6715 200.822 43.4266 194.576 35.7221 194.576H-15.3555" stroke="#0D36AA" stroke-width="3.8" stroke-linecap="round" stroke-linejoin="round"/>
<path d="M136.403 139.328C124.477 139.328 114.808 148.999 114.808 160.929C114.808 172.859 124.476 182.53 136.403 182.53C148.33 182.53 157.998 172.859 157.998 160.929V98.4531" stroke="#1673FF" stroke-width="3.8" stroke-linecap="round" stroke-linejoin="round"/>
<path d="M136.18 152.835C140.92 152.835 144.764 156.679 144.764 161.421C144.764 166.163 140.92 170.007 136.18 170.007C131.439 170.007 127.596 166.163 127.596 161.421C127.596 156.679 131.439 152.835 136.18 152.835Z" stroke="#033A8B" stroke-width="3.8" stroke-linecap="round" stroke-linejoin="round"/>
<path d="M194.148 153.534V132.491" stroke="#247CFF" stroke-width="3.8" stroke-linecap="round" stroke-linejoin="round"/>
<path d="M109.781 220.782H159.229" stroke="#033A8B" stroke-width="3.8" stroke-linecap="round" stroke-linejoin="round"/>
<path d="M90.4494 213.474C90.4494 219.92 85.2248 225.146 78.7803 225.146C72.3359 225.146 67.1113 219.92 67.1113 213.474C67.1113 207.028 72.3359 201.802 78.7803 201.802H138.737" stroke="#1673FF" stroke-width="3.8" stroke-linecap="round" stroke-linejoin="round"/>
</g>
<defs>
<clipPath id="clip0_2658_9695">
<rect width="320" height="233" fill="white" transform="matrix(1 0 0 -1 0 233)"/>
</clipPath>
</defs>
</svg>
