<?xml version="1.0" encoding="UTF-8"?> <svg xmlns="http://www.w3.org/2000/svg" width="98" height="98" viewBox="0 0 98 98" fill="none"><path d="M49 94C73.8528 94 94 73.8528 94 49C94 24.1472 73.8528 4 49 4C24.1472 4 4 24.1472 4 49C4 73.8528 24.1472 94 49 94Z" fill="#B0CDF9"></path><path d="M48.9979 31.6924V54.1924H38.6133" fill="#B0CDF9"></path><path d="M48.9979 31.6924V54.1924H38.6133" stroke="#005EEB" stroke-width="7.5" stroke-linecap="round" stroke-linejoin="round"></path><path d="M31.6914 68.0381C36.3619 72.4744 42.5575 74.948 48.9991 74.948C55.4407 74.948 61.6363 72.4744 66.3068 68.0381" fill="#B0CDF9"></path><path d="M31.6914 68.0381C36.3619 72.4744 42.5575 74.948 48.9991 74.948C55.4407 74.948 61.6363 72.4744 66.3068 68.0381" stroke="#005EEB" stroke-width="7.5" stroke-linecap="round" stroke-linejoin="round"></path><path d="M28.2308 35.1539C27.2749 35.1539 26.5 34.379 26.5 33.4232C26.5 32.4673 27.2749 31.6924 28.2308 31.6924" fill="#B0CDF9"></path><path d="M28.2308 35.1539C27.2749 35.1539 26.5 34.379 26.5 33.4232C26.5 32.4673 27.2749 31.6924 28.2308 31.6924" stroke="#005EEB" stroke-width="7.5" stroke-linecap="round" stroke-linejoin="round"></path><path d="M28.2305 35.1539C29.1863 35.1539 29.9612 34.379 29.9612 33.4232C29.9612 32.4673 29.1863 31.6924 28.2305 31.6924" fill="#B0CDF9"></path><path d="M28.2305 35.1539C29.1863 35.1539 29.9612 34.379 29.9612 33.4232C29.9612 32.4673 29.1863 31.6924 28.2305 31.6924" stroke="#005EEB" stroke-width="7.5" stroke-linecap="round" stroke-linejoin="round"></path><path d="M69.7737 35.1539C68.8179 35.1539 68.043 34.379 68.043 33.4232C68.043 32.4673 68.8179 31.6924 69.7737 31.6924" fill="#B0CDF9"></path><path d="M69.7737 35.1539C68.8179 35.1539 68.043 34.379 68.043 33.4232C68.043 32.4673 68.8179 31.6924 69.7737 31.6924" stroke="#005EEB" stroke-width="7.5" stroke-linecap="round" stroke-linejoin="round"></path><path d="M69.7734 35.1539C70.7295 35.1539 71.5042 34.379 71.5042 33.4232C71.5042 32.4673 70.7295 31.6924 69.7734 31.6924" fill="#B0CDF9"></path><path d="M69.7734 35.1539C70.7295 35.1539 71.5042 34.379 71.5042 33.4232C71.5042 32.4673 70.7295 31.6924 69.7734 31.6924" stroke="#005EEB" stroke-width="7.5" stroke-linecap="round" stroke-linejoin="round"></path><path d="M38.3298 4C21.363 8.00784 8.00787 21.3631 4 38.3299ZM59.6702 4C76.637 8.00784 89.9923 21.3631 94.0001 38.3299ZM59.6702 94C76.637 89.9922 89.9923 76.6369 94.0001 59.6701ZM38.3298 94C21.363 89.9922 8.00787 76.6369 4 59.6701Z" fill="#B0CDF9"></path><path d="M38.3298 4C21.363 8.00784 8.00787 21.3631 4 38.3299M59.6702 4C76.637 8.00784 89.9923 21.3631 94.0001 38.3299M59.6702 94C76.637 89.9922 89.9923 76.6369 94.0001 59.6701M38.3298 94C21.363 89.9922 8.00787 76.6369 4 59.6701" stroke="#005EEB" stroke-width="7.5" stroke-linecap="round" stroke-linejoin="round"></path></svg> 