<?xml version="1.0" encoding="UTF-8"?> <svg xmlns="http://www.w3.org/2000/svg" width="98" height="98" viewBox="0 0 98 98" fill="none"><path d="M6.02772 91.9721C4.72939 90.674 4 88.9128 4 87.0768V38.6152H94V87.0768C94 88.9128 93.2703 90.674 91.9722 91.9721C90.6742 93.2702 88.9129 93.9999 87.0769 93.9999H10.9231C9.08694 93.9999 7.32605 93.2702 6.02772 91.9721Z" fill="#B0CDF9"></path><path d="M6.02772 16.4125C7.32605 15.1142 9.08694 14.3848 10.9231 14.3848H87.0769C88.9129 14.3848 90.6742 15.1142 91.9722 16.4125C93.2703 17.7108 94 19.4717 94 21.3078V38.6155H4V21.3078C4 19.4717 4.72939 17.7108 6.02772 16.4125Z" fill="white"></path><path d="M10.9231 14.3848C9.08694 14.3848 7.32605 15.1142 6.02772 16.4125C4.72939 17.7108 4 19.4717 4 21.3078V87.0771C4 88.9131 4.72939 90.6743 6.02772 91.9724C7.32605 93.2705 9.08694 94.0002 10.9231 94.0002H87.0769C88.9129 94.0002 90.6742 93.2705 91.9722 91.9724C93.2703 90.6743 94 88.9131 94 87.0771V21.3078C94 19.4717 93.2703 17.7108 91.9722 16.4125C90.6742 15.1142 88.9129 14.3848 87.0769 14.3848H73.2308" stroke="#005EEB" stroke-width="7.5" stroke-linecap="round" stroke-linejoin="round"></path><path d="M4 38.6152H94" stroke="#005EEB" stroke-width="7.5" stroke-linecap="round" stroke-linejoin="round"></path><path d="M24.7695 4V24.7692" stroke="#005EEB" stroke-width="7.5" stroke-linecap="round" stroke-linejoin="round"></path><path d="M73.2305 4V24.7692" stroke="#005EEB" stroke-width="7.5" stroke-linecap="round" stroke-linejoin="round"></path><path d="M24.7695 14.3848H59.3849" stroke="#005EEB" stroke-width="7.5" stroke-linecap="round" stroke-linejoin="round"></path></svg> 