<svg width="1434" height="429" viewBox="0 0 1434 429" fill="none" xmlns="http://www.w3.org/2000/svg">
<path d="M748.418 276.652C748.179 274.424 748.056 272.164 748.056 269.873V212.541C748.056 177.879 776.147 149.78 810.801 149.78C832.458 149.78 851.555 160.757 862.831 177.451" stroke="#B0E4C9" stroke-width="7.64" stroke-linecap="round" stroke-linejoin="round"/>
<path d="M1365.1 344.696C1362.87 344.934 1360.61 345.058 1358.32 345.058H1301.01C1266.35 345.058 1238.26 316.959 1238.26 282.297C1238.26 260.634 1249.23 241.533 1265.92 230.254" stroke="#B0E4C9" stroke-width="7.64" stroke-linecap="round" stroke-linejoin="round"/>
<path d="M1017.83 235.637C1017.66 237.254 1017.57 194.272 1017.57 195.936V265.543C1017.57 290.712 1037.97 311.116 1063.13 311.116" stroke="#B0E4C9" stroke-width="7.64" stroke-linecap="round" stroke-linejoin="round"/>
<path d="M1132.5 392.221C1132.68 390.604 1132.77 405.609 1132.77 403.946V362.315C1132.77 337.147 1112.37 316.742 1087.21 316.742" stroke="#B0E4C9" stroke-width="7.64" stroke-linecap="round" stroke-linejoin="round"/>
<path d="M794.231 412.109C794.425 410.306 794.524 427.042 794.524 425.189V378.75C794.524 350.674 771.77 327.913 743.7 327.913" stroke="#B0E4C9" stroke-width="7.64" stroke-linecap="round" stroke-linejoin="round"/>
<path d="M1245.52 91.5505C1245.35 93.1676 1245.26 78.1624 1245.26 79.826V121.456C1245.26 146.625 1265.66 167.029 1290.82 167.029" stroke="#B0E4C9" stroke-width="7.64" stroke-linecap="round" stroke-linejoin="round"/>
<path d="M1360.2 248.135C1360.37 246.518 1360.46 261.523 1360.46 259.859V218.229C1360.46 193.06 1340.06 172.656 1314.9 172.656" stroke="#B0E4C9" stroke-width="7.64" stroke-linecap="round" stroke-linejoin="round"/>
<path d="M1196.53 370.755C1196.75 368.743 1196.86 421.3 1196.86 419.232V333.548C1196.86 302.233 1171.48 276.847 1140.17 276.847" stroke="#B0E4C9" stroke-width="7.64" stroke-linecap="round" stroke-linejoin="round"/>
<path d="M1431.64 10.6646C1431.82 12.2817 1431.91 8.54782 1431.91 10.2095V40.5703C1431.91 57.4889 1422.69 72.2539 1409 80.1167" stroke="#B0E4C9" stroke-width="7.64" stroke-linecap="round" stroke-linejoin="round"/>
<path d="M873.55 212.543V269.876C873.55 271.008 873.521 272.134 873.461 273.251" stroke="#B0E4C9" stroke-width="7.64" stroke-linecap="round" stroke-linejoin="round"/>
<path d="M776.874 238.736V212.224C776.874 194.892 790.921 180.842 808.247 180.842C825.574 180.842 839.621 194.892 839.621 212.224V284.089" stroke="#B0E4C9" stroke-width="7.64" stroke-linecap="round" stroke-linejoin="round"/>
<path d="M1115.51 214.722C1115.28 212.495 1115.15 153.642 1115.15 151.353V94.02C1115.15 59.3579 1143.24 31.259 1177.9 31.259C1199.55 31.259 1218.65 42.236 1229.93 58.9299" stroke="#B0E4C9" stroke-width="7.64" stroke-linecap="round" stroke-linejoin="round"/>
<path d="M1147.06 131.059V104.546C1147.06 87.2147 1161.11 73.1643 1178.44 73.1643C1195.77 73.1643 1209.81 87.2147 1209.81 104.546V212.398" stroke="#B0E4C9" stroke-width="7.64" stroke-linecap="round" stroke-linejoin="round"/>
<path d="M1000.33 399.492C998.632 399.674 922.993 399.769 921.242 399.769H877.433C850.946 399.769 829.474 378.291 829.474 351.798C829.474 335.239 837.862 320.641 850.619 312.021" stroke="#B0E4C9" stroke-width="7.64" stroke-linecap="round" stroke-linejoin="round"/>
<path d="M912.285 367.415H884.058C872.381 367.415 862.915 357.946 862.915 346.266C862.915 334.586 872.381 325.118 884.058 325.118H932.479" stroke="#B0E4C9" stroke-width="7.64" stroke-linecap="round" stroke-linejoin="round"/>
<path d="M963.088 325.118H976.43C988.107 325.118 997.573 334.586 997.573 346.266C997.573 357.946 988.107 367.415 976.43 367.415H901.592" stroke="#B0E4C9" stroke-width="7.64" stroke-linecap="round" stroke-linejoin="round"/>
<path d="M1227.16 421.414C1227.16 400.706 1243.94 383.917 1264.65 383.917H1350.5" stroke="#B0E4C9" stroke-width="7.64" stroke-linecap="round" stroke-linejoin="round"/>
<path d="M1387.06 344.678H1401.3C1413.77 344.678 1423.87 354.788 1423.87 367.256C1423.87 379.726 1413.76 389.833 1401.3 389.833H1366.46" stroke="#B0E4C9" stroke-width="7.64" stroke-linecap="round" stroke-linejoin="round"/>
<path d="M957.295 96.4695H888.099C876.786 96.4695 867.615 105.643 867.615 116.959V123.891C867.615 135.207 876.786 144.38 888.099 144.38H957.295C968.609 144.38 977.78 135.207 977.78 123.891V116.959C977.78 105.643 968.609 96.4695 957.295 96.4695Z" stroke="#B0E4C9" stroke-width="7.64" stroke-linecap="round" stroke-linejoin="round"/>
<path d="M1318.96 89.2247V105.959C1318.96 117.275 1309.79 126.449 1298.48 126.449H1298.18C1286.87 126.449 1277.7 117.275 1277.7 105.959V52.0139C1277.7 40.6981 1286.87 31.5242 1298.18 31.5242H1298.48C1309.79 31.5242 1318.96 40.6981 1318.96 52.0139V68.3147" stroke="#B0E4C9" stroke-width="7.64" stroke-linecap="round" stroke-linejoin="round"/>
<path d="M920.65 260.93V213.757C920.65 202.441 929.821 193.267 941.134 193.267H948.062C959.375 193.267 968.547 202.441 968.547 213.757V260.93C968.547 272.246 959.375 281.42 948.062 281.42H941.134C929.821 281.42 920.65 272.246 920.65 260.93Z" stroke="#B0E4C9" stroke-width="7.64" stroke-linecap="round" stroke-linejoin="round"/>
<path d="M1077.3 389.59C1088.81 389.59 1098.14 380.259 1098.14 368.749C1098.14 357.24 1088.81 347.909 1077.3 347.909C1065.8 347.909 1056.47 357.24 1056.47 368.749V420.781" stroke="#B0E4C9" stroke-width="7.64" stroke-linecap="round" stroke-linejoin="round"/>
<path d="M1326.15 281.584C1326.15 265.14 1312.83 251.808 1296.39 251.808C1279.95 251.808 1266.62 265.14 1266.62 281.584C1266.62 298.028 1279.95 311.36 1296.39 311.36H1449.33" stroke="#B0E4C9" stroke-width="7.64" stroke-linecap="round" stroke-linejoin="round"/>
<path d="M1464.21 187.314C1462.42 187.506 1460.59 187.607 1458.75 187.607H1412.55C1384.62 187.607 1361.98 164.96 1361.98 137.022C1361.98 119.561 1370.82 104.166 1384.28 95.0757" stroke="#B0E4C9" stroke-width="7.64" stroke-linecap="round" stroke-linejoin="round"/>
<path d="M1438.92 134.366C1438.92 121.112 1428.18 110.367 1414.93 110.367C1401.68 110.367 1390.93 121.112 1390.93 134.366C1390.93 147.621 1401.68 158.365 1414.93 158.365H1464.82" stroke="#B0E4C9" stroke-width="7.64" stroke-linecap="round" stroke-linejoin="round"/>
<path d="M795.62 102.228V108.979C795.62 122.739 784.47 133.892 770.714 133.892C756.957 133.892 745.807 122.739 745.807 108.979V54.3593C745.807 40.5995 756.957 29.4463 770.714 29.4463C784.47 29.4463 795.62 40.5995 795.62 54.3593" stroke="#B0E4C9" stroke-width="7.64" stroke-linecap="round" stroke-linejoin="round"/>
<path d="M857.87 28.0925H864.619C878.376 28.0925 889.526 39.2457 889.526 53.0056C889.526 66.7655 878.376 77.9186 864.619 77.9186H795.309" stroke="#B0E4C9" stroke-width="7.64" stroke-linecap="round" stroke-linejoin="round"/>
<path d="M1044.38 176.562C1023.09 176.562 1005.82 159.295 1005.82 137.993C1005.82 116.692 1023.09 99.425 1044.38 99.425C1065.68 99.425 1082.94 116.692 1082.94 137.993V249.544" stroke="#B0E4C9" stroke-width="7.64" stroke-linecap="round" stroke-linejoin="round"/>
<path d="M1043.99 152.447C1052.45 152.447 1059.31 145.583 1059.31 137.116C1059.31 128.649 1052.45 121.786 1043.99 121.786C1035.52 121.786 1028.66 128.649 1028.66 137.116C1028.66 145.583 1035.52 152.447 1043.99 152.447Z" stroke="#B0E4C9" stroke-width="7.64" stroke-linecap="round" stroke-linejoin="round"/>
<path d="M1147.49 151.199V188.77" stroke="#B0E4C9" stroke-width="7.64" stroke-linecap="round" stroke-linejoin="round"/>
<path d="M1386.6 265.269H1463.66" stroke="#B0E4C9" stroke-width="7.64" stroke-linecap="round" stroke-linejoin="round"/>
<path d="M996.85 31.1274H1085.14" stroke="#B0E4C9" stroke-width="7.64" stroke-linecap="round" stroke-linejoin="round"/>
<path d="M962.333 44.1765C962.333 32.667 953.005 23.3362 941.498 23.3362C929.992 23.3362 920.663 32.667 920.663 44.1765C920.663 55.686 929.992 65.0168 941.498 65.0168H1048.55" stroke="#B0E4C9" stroke-width="7.64" stroke-linecap="round" stroke-linejoin="round"/>
<path d="M8.71777 152.68C8.47963 154.908 8.35571 157.168 8.35571 159.459V216.791C8.35571 251.453 36.4474 279.552 71.1007 279.552C92.7586 279.552 111.855 268.575 123.131 251.881" stroke="#B0E4C9" stroke-width="7.64" stroke-linecap="round" stroke-linejoin="round"/>
<path d="M625.401 84.6364C623.174 84.3982 620.914 84.2742 618.624 84.2742H561.306C526.653 84.2742 498.561 112.373 498.561 147.035C498.561 168.699 509.535 187.8 526.225 199.079" stroke="#B0E4C9" stroke-width="7.64" stroke-linecap="round" stroke-linejoin="round"/>
<path d="M278.131 193.695C277.956 192.078 277.867 235.06 277.867 233.397V163.789C277.867 138.621 298.267 118.216 323.429 118.216" stroke="#B0E4C9" stroke-width="7.64" stroke-linecap="round" stroke-linejoin="round"/>
<path d="M392.805 37.1114C392.979 38.7285 393.068 23.7233 393.068 25.3869V67.0171C393.068 92.1858 372.669 112.59 347.506 112.59" stroke="#B0E4C9" stroke-width="7.64" stroke-linecap="round" stroke-linejoin="round"/>
<path d="M54.5317 17.2238C54.7253 19.0269 54.8241 2.29032 54.8241 4.14369V50.5826C54.8241 78.6582 32.0704 101.42 4 101.42" stroke="#B0E4C9" stroke-width="7.64" stroke-linecap="round" stroke-linejoin="round"/>
<path d="M505.823 337.782C505.649 336.164 505.56 351.17 505.56 349.506V307.876C505.56 282.707 525.959 262.303 551.122 262.303" stroke="#B0E4C9" stroke-width="7.64" stroke-linecap="round" stroke-linejoin="round"/>
<path d="M620.501 181.198C620.675 182.815 620.764 167.81 620.764 169.473V211.104C620.764 236.272 600.365 256.677 575.202 256.677" stroke="#B0E4C9" stroke-width="7.64" stroke-linecap="round" stroke-linejoin="round"/>
<path d="M456.83 58.5765C457.047 60.5887 457.158 8.03184 457.158 10.1002V95.7834C457.158 127.099 431.778 152.485 400.471 152.485" stroke="#B0E4C9" stroke-width="7.64" stroke-linecap="round" stroke-linejoin="round"/>
<path d="M691.942 418.668C692.116 417.051 692.205 420.785 692.205 419.123V388.762C692.205 371.844 682.989 357.079 669.305 349.216" stroke="#B0E4C9" stroke-width="7.64" stroke-linecap="round" stroke-linejoin="round"/>
<path d="M133.85 216.79V159.457C133.85 158.324 133.821 157.199 133.761 156.081" stroke="#B0E4C9" stroke-width="7.64" stroke-linecap="round" stroke-linejoin="round"/>
<path d="M37.1743 190.596V217.109C37.1743 234.44 51.2211 248.49 68.5478 248.49C85.8744 248.49 99.9213 234.44 99.9213 217.109V145.244" stroke="#B0E4C9" stroke-width="7.64" stroke-linecap="round" stroke-linejoin="round"/>
<path d="M375.814 214.611C375.576 216.838 375.452 275.691 375.452 277.98V335.312C375.452 369.975 403.543 398.073 438.197 398.073C459.855 398.073 478.951 387.097 490.227 370.403" stroke="#B0E4C9" stroke-width="7.64" stroke-linecap="round" stroke-linejoin="round"/>
<path d="M407.365 298.274V324.787C407.365 342.118 421.412 356.168 438.739 356.168C456.065 356.168 470.112 342.118 470.112 324.787V216.934" stroke="#B0E4C9" stroke-width="7.64" stroke-linecap="round" stroke-linejoin="round"/>
<path d="M260.635 29.8408C258.933 29.6588 183.293 29.5639 181.543 29.5639H137.733C111.247 29.5639 89.7747 51.0413 89.7747 77.5347C89.7747 94.093 98.1621 108.691 110.919 117.312" stroke="#B0E4C9" stroke-width="7.64" stroke-linecap="round" stroke-linejoin="round"/>
<path d="M172.586 61.9175H144.358C132.681 61.9175 123.216 71.3857 123.216 83.0657C123.216 94.7456 132.681 104.214 144.358 104.214H192.78" stroke="#B0E4C9" stroke-width="7.64" stroke-linecap="round" stroke-linejoin="round"/>
<path d="M223.388 104.214H236.73C248.407 104.214 257.873 94.7456 257.873 83.0657C257.873 71.3857 248.407 61.9175 236.73 61.9175H161.892" stroke="#B0E4C9" stroke-width="7.64" stroke-linecap="round" stroke-linejoin="round"/>
<path d="M487.459 7.91811C487.459 28.6267 504.244 45.4155 524.947 45.4155H610.798" stroke="#B0E4C9" stroke-width="7.64" stroke-linecap="round" stroke-linejoin="round"/>
<path d="M647.355 84.6543H661.6C674.067 84.6543 684.171 74.545 684.171 62.0768C684.171 49.6068 674.065 39.4994 661.6 39.4994H626.764" stroke="#B0E4C9" stroke-width="7.64" stroke-linecap="round" stroke-linejoin="round"/>
<path d="M217.596 332.863H148.4C137.086 332.863 127.915 323.689 127.915 312.373V305.442C127.915 294.126 137.086 284.952 148.4 284.952H217.596C228.909 284.952 238.08 294.126 238.08 305.442V312.373C238.08 323.689 228.909 332.863 217.596 332.863Z" stroke="#B0E4C9" stroke-width="7.64" stroke-linecap="round" stroke-linejoin="round"/>
<path d="M579.261 340.108V323.373C579.261 312.057 570.089 302.883 558.776 302.883H558.484C547.171 302.883 537.999 312.057 537.999 323.373V377.319C537.999 388.634 547.171 397.808 558.484 397.808H558.776C570.089 397.808 579.261 388.634 579.261 377.319V361.018" stroke="#B0E4C9" stroke-width="7.64" stroke-linecap="round" stroke-linejoin="round"/>
<path d="M180.95 168.402V215.575C180.95 226.891 190.122 236.065 201.435 236.065H208.362C219.675 236.065 228.847 226.891 228.847 215.575V168.402C228.847 157.086 219.675 147.913 208.362 147.913H201.435C190.122 147.913 180.95 157.086 180.95 168.402Z" stroke="#B0E4C9" stroke-width="7.64" stroke-linecap="round" stroke-linejoin="round"/>
<path d="M337.605 39.743C349.111 39.743 358.439 49.0738 358.439 60.5833C358.439 72.0928 349.111 81.4236 337.605 81.4236C326.098 81.4236 316.77 72.0928 316.77 60.5833V8.55131" stroke="#B0E4C9" stroke-width="7.64" stroke-linecap="round" stroke-linejoin="round"/>
<path d="M586.455 147.748C586.455 164.192 573.126 177.524 556.686 177.524C540.246 177.524 526.918 164.192 526.918 147.748C526.918 131.304 540.246 117.972 556.686 117.972H709.635" stroke="#B0E4C9" stroke-width="7.64" stroke-linecap="round" stroke-linejoin="round"/>
<path d="M724.512 242.018C722.717 241.826 720.895 241.726 719.05 241.726H672.853C644.922 241.726 622.281 264.373 622.281 292.311C622.281 309.772 631.125 325.166 644.577 334.257" stroke="#B0E4C9" stroke-width="7.64" stroke-linecap="round" stroke-linejoin="round"/>
<path d="M699.22 294.966C699.22 308.221 688.478 318.965 675.227 318.965C661.976 318.965 651.234 308.221 651.234 294.966C651.234 281.712 661.976 270.967 675.227 270.967H725.122" stroke="#B0E4C9" stroke-width="7.64" stroke-linecap="round" stroke-linejoin="round"/>
<path d="M55.9206 327.105V320.354C55.9206 306.594 44.7703 295.441 31.0139 295.441C17.2575 295.441 6.10718 306.594 6.10718 320.354V374.973C6.10718 388.733 17.2575 399.886 31.0139 399.886C44.7703 399.886 55.9206 388.733 55.9206 374.973" stroke="#B0E4C9" stroke-width="7.64" stroke-linecap="round" stroke-linejoin="round"/>
<path d="M118.168 401.24H124.918C138.674 401.24 149.824 390.087 149.824 376.327C149.824 362.567 138.674 351.414 124.918 351.414H33.7188" stroke="#B0E4C9" stroke-width="7.64" stroke-linecap="round" stroke-linejoin="round"/>
<path d="M304.683 252.771C283.389 252.771 266.125 270.038 266.125 291.339C266.125 312.64 283.388 329.907 304.683 329.907C325.979 329.907 343.242 312.64 343.242 291.339V179.788" stroke="#B0E4C9" stroke-width="7.64" stroke-linecap="round" stroke-linejoin="round"/>
<path d="M304.286 276.886C312.75 276.886 319.612 283.75 319.612 292.216C319.612 300.683 312.75 307.547 304.286 307.547C295.821 307.547 288.959 300.683 288.959 292.216C288.959 283.75 295.821 276.886 304.286 276.886Z" stroke="#B0E4C9" stroke-width="7.64" stroke-linecap="round" stroke-linejoin="round"/>
<path d="M407.787 278.133V240.562" stroke="#B0E4C9" stroke-width="7.64" stroke-linecap="round" stroke-linejoin="round"/>
<path d="M646.898 164.064H723.957" stroke="#B0E4C9" stroke-width="7.64" stroke-linecap="round" stroke-linejoin="round"/>
<path d="M257.15 398.205H345.439" stroke="#B0E4C9" stroke-width="7.64" stroke-linecap="round" stroke-linejoin="round"/>
<path d="M222.634 385.156C222.634 396.666 213.305 405.996 201.799 405.996C190.292 405.996 180.964 396.666 180.964 385.156C180.964 373.647 190.292 364.316 201.799 364.316H308.851" stroke="#B0E4C9" stroke-width="7.64" stroke-linecap="round" stroke-linejoin="round"/>
</svg>
