<svg width="148" height="148" viewBox="0 0 148 148" fill="none" xmlns="http://www.w3.org/2000/svg">
<g clip-path="url(#clip0_1_1425)">
<path d="M80.3172 6.31413C80.3172 2.82693 77.4903 0 74.0031 0C70.5159 0 67.689 2.82693 67.689 6.31413V141.686C67.689 145.173 70.5159 148 74.0031 148C77.4903 148 80.3172 145.173 80.3172 141.686V6.31413Z" fill="#00A851"/>
<path d="M6.31413 67.6845C2.82693 67.6845 0 70.5114 0 73.9986C0 77.4858 2.82693 80.3127 6.31413 80.3127L141.686 80.3127C145.173 80.3127 148 77.4858 148 73.9986C148 70.5114 145.173 67.6845 141.686 67.6845L6.31413 67.6845Z" fill="#00A851"/>
<path d="M21.6749 117.397C19.2091 119.863 19.2091 123.861 21.6749 126.327C24.1407 128.793 28.1386 128.793 30.6044 126.327L126.327 30.6045C128.793 28.1386 128.793 24.1408 126.327 21.6749C123.861 19.2091 119.863 19.2091 117.397 21.6749L21.6749 117.397Z" fill="#00A851"/>
<path d="M30.6038 21.6746C28.1379 19.2088 24.1401 19.2088 21.6742 21.6746C19.2084 24.1405 19.2084 28.1383 21.6742 30.6042L117.397 126.326C119.862 128.792 123.86 128.792 126.326 126.326C128.792 123.861 128.792 119.863 126.326 117.397L30.6038 21.6746Z" fill="#00A851"/>
</g>
<defs>
<clipPath id="clip0_1_1425">
<rect width="148" height="148" fill="white"/>
</clipPath>
</defs>
</svg>
