<svg width="66" height="60" viewBox="0 0 66 60" fill="none" xmlns="http://www.w3.org/2000/svg">
<path d="M27.1952 31.4789L8.6552 35.4329C7.93556 35.589 7.18337 35.4556 6.56132 35.0615C5.93927 34.6674 5.49737 34.0443 5.3312 33.3269L3.7202 26.8769C3.5308 26.0997 3.63836 25.2799 4.0218 24.5779C4.40525 23.876 5.03696 23.3424 5.7932 23.0819L46.3052 9.76186M37.6802 29.2409L50.6762 26.4689M45.0002 56.9999L35.6852 38.3699M15.4742 19.8989L18.8162 33.2669M21.0002 56.9999L30.3152 38.3699M46.4552 11.8199C46.0696 10.2763 46.3128 8.64279 47.1313 7.27853C47.9499 5.91426 49.2768 4.93096 50.8202 4.54486L54.0902 3.72886C54.8616 3.53644 55.6777 3.65805 56.3595 4.06699C57.0412 4.47593 57.5328 5.13875 57.7262 5.90986L62.2712 24.0899C62.4645 24.8616 62.3433 25.6786 61.9343 26.361C61.5253 27.0435 60.862 27.5355 60.0902 27.7289L56.8202 28.5449C55.2767 28.9305 53.6431 28.6873 52.2789 27.8687C50.9146 27.0502 49.9313 25.7233 49.5452 24.1799L46.4552 11.8199ZM39.0002 32.9999C39.0002 36.3136 36.3139 38.9999 33.0002 38.9999C29.6865 38.9999 27.0002 36.3136 27.0002 32.9999C27.0002 29.6861 29.6865 26.9999 33.0002 26.9999C36.3139 26.9999 39.0002 29.6861 39.0002 32.9999Z" stroke="#005EEB" stroke-width="6" stroke-linecap="round" stroke-linejoin="round"/>
</svg>
