<svg width="81" height="82" viewBox="0 0 81 82" fill="none" xmlns="http://www.w3.org/2000/svg">
<path d="M40.5391 1.37891C62.591 1.37909 80.4609 19.1215 80.4609 41C80.4609 62.8786 62.591 80.6209 40.5391 80.6211C18.4869 80.6211 0.616211 62.8787 0.616211 41C0.616269 19.1214 18.487 1.37891 40.5391 1.37891Z" fill="white" stroke="#00A851"/>
<path d="M40.4821 81.2449C62.7755 81.2449 80.8479 63.1725 80.8479 40.879C80.8479 18.5856 62.7755 0.513184 40.4821 0.513184C18.1886 0.513184 0.116211 18.5856 0.116211 40.879C0.116211 63.1725 18.1886 81.2449 40.4821 81.2449Z" fill="#F94E10"/>
<path d="M33.418 26.9575L56.9647 42.003L33.418 57.0484V26.9575Z" stroke="white" stroke-width="5" stroke-linecap="round" stroke-linejoin="round"/>
</svg>
