<svg width="81" height="82" viewBox="0 0 81 82" fill="none" xmlns="http://www.w3.org/2000/svg">
<g opacity="0.75">
<path d="M40.4229 1.5C62.4748 1.50018 80.3447 19.2426 80.3447 41.1211C80.3447 62.9996 62.4748 80.742 40.4229 80.7422C18.3707 80.7422 0.5 62.9998 0.5 41.1211C0.500058 19.2425 18.3708 1.5 40.4229 1.5Z" fill="white" stroke="#00A851"/>
<path d="M40.3658 81.366C62.6593 81.366 80.7317 63.2936 80.7317 41.0001C80.7317 18.7067 62.6593 0.634277 40.3658 0.634277C18.0724 0.634277 0 18.7067 0 41.0001C0 63.2936 18.0724 81.366 40.3658 81.366Z" fill="white"/>
<path d="M32.2927 49.0731V32.9268M48.439 49.0731V32.9268" stroke="#EC0A0A" stroke-width="5" stroke-linecap="round" stroke-linejoin="round"/>
</g>
</svg>
