<svg width="2209" height="643" viewBox="0 0 2209 643" fill="none" xmlns="http://www.w3.org/2000/svg">
<path d="M12.1619 410.11C11.8004 406.73 11.6123 403.299 11.6123 399.821L11.6123 312.793C11.6123 260.177 54.2542 217.524 106.856 217.524C139.732 217.524 168.719 234.187 185.836 259.528" stroke="#203EA6" stroke-width="8.63769" stroke-linecap="round" stroke-linejoin="round"/>
<path d="M948.258 513.398C944.879 513.76 941.449 513.948 937.972 513.948H850.966C798.364 513.948 755.722 471.295 755.722 418.68C755.722 385.796 772.38 356.801 797.714 339.68" stroke="#203EA6" stroke-width="8.63769" stroke-linecap="round" stroke-linejoin="round"/>
<path d="M421.118 347.852C420.854 350.307 420.719 285.062 420.719 287.587V393.248C420.719 431.453 451.684 462.426 489.879 462.426" stroke="#203EA6" stroke-width="8.63769" stroke-linecap="round" stroke-linejoin="round"/>
<path d="M595.189 585.539C595.453 583.085 595.588 605.862 595.588 603.337V540.144C595.588 501.939 564.623 470.966 526.428 470.966" stroke="#307EF3" stroke-width="8.63769" stroke-linecap="round" stroke-linejoin="round"/>
<path d="M81.7049 615.727C81.9988 612.991 82.1487 638.396 82.1487 635.582L82.1487 565.09C82.1487 522.473 47.6096 487.922 5 487.922" stroke="#307EF3" stroke-width="8.63769" stroke-linecap="round" stroke-linejoin="round"/>
<path d="M766.745 129.135C766.481 131.589 766.346 108.812 766.346 111.337V174.53C766.346 212.735 797.311 243.708 835.506 243.708" stroke="#203EA6" stroke-width="8.63769" stroke-linecap="round" stroke-linejoin="round"/>
<path d="M940.821 366.822C941.086 364.367 941.221 387.144 941.221 384.619V321.426C941.221 283.221 910.256 252.248 872.061 252.248" stroke="#203EA6" stroke-width="8.63769" stroke-linecap="round" stroke-linejoin="round"/>
<path d="M692.872 626.54V496.477C692.872 448.941 654.348 410.407 606.824 410.407" stroke="#004AB8" stroke-width="8.63769" stroke-linecap="round" stroke-linejoin="round"/>
<path d="M1049.27 6.35345C1049.53 8.80814 1049.66 3.14031 1049.66 5.66261V51.749C1049.66 77.4307 1035.68 99.8433 1014.9 111.779" stroke="#203EA6" stroke-width="8.63769" stroke-linecap="round" stroke-linejoin="round"/>
<path d="M202.107 312.796V399.824C202.107 401.544 202.063 403.252 201.972 404.948" stroke="#307EF3" stroke-width="8.63769" stroke-linecap="round" stroke-linejoin="round"/>
<path d="M55.3574 352.556L55.3574 312.31C55.3574 286.003 76.6799 264.675 102.981 264.675C129.282 264.675 150.605 286.003 150.605 312.31V421.399" stroke="#203EA6" stroke-width="8.63769" stroke-linecap="round" stroke-linejoin="round"/>
<path d="M569.397 316.103C569.036 312.723 568.848 223.387 568.848 219.912V132.884C568.848 80.268 611.49 37.6152 664.092 37.6152C696.967 37.6152 725.955 54.2777 743.072 79.6184" stroke="#307EF3" stroke-width="8.63769" stroke-linecap="round" stroke-linejoin="round"/>
<path d="M617.291 189.106V148.861C617.291 122.553 638.613 101.226 664.914 101.226C691.216 101.226 712.538 122.553 712.538 148.861V312.576" stroke="#203EA6" stroke-width="8.63769" stroke-linecap="round" stroke-linejoin="round"/>
<path d="M301.789 596.023C299.205 596.299 277.159 596.996 274.502 596.996H208.001C167.796 596.996 135.202 564.394 135.202 524.178C135.202 499.043 147.934 476.884 167.299 463.799" stroke="#203EA6" stroke-width="8.63769" stroke-linecap="round" stroke-linejoin="round"/>
<path d="M260.905 547.885H218.058C200.333 547.885 185.964 533.512 185.964 515.783C185.964 498.053 200.333 483.681 218.058 483.681H291.559" stroke="#203EA6" stroke-width="8.63769" stroke-linecap="round" stroke-linejoin="round"/>
<path d="M338.021 483.681H358.274C375.999 483.681 390.368 498.053 390.368 515.783C390.368 533.512 375.999 547.885 358.274 547.885H244.673" stroke="#203EA6" stroke-width="8.63769" stroke-linecap="round" stroke-linejoin="round"/>
<path d="M738.869 638.551C738.869 607.117 764.347 581.632 795.774 581.632H926.092" stroke="#203EA6" stroke-width="8.63769" stroke-linecap="round" stroke-linejoin="round"/>
<path d="M981.585 513.371H1003.21C1022.13 513.371 1037.47 528.717 1037.47 547.643C1037.47 566.572 1022.13 581.914 1003.21 581.914H950.329" stroke="#203EA6" stroke-width="8.63769" stroke-linecap="round" stroke-linejoin="round"/>
<path d="M329.229 136.602H224.192C207.019 136.602 193.098 150.527 193.098 167.704V178.225C193.098 195.403 207.019 209.328 224.192 209.328H329.229C346.402 209.328 360.324 195.403 360.324 178.225V167.704C360.324 150.527 346.402 136.602 329.229 136.602Z" stroke="#307EF3" stroke-width="8.63769" stroke-linecap="round" stroke-linejoin="round"/>
<path d="M878.22 125.604V151.007C878.22 168.184 864.298 182.109 847.125 182.109H846.682C829.509 182.109 815.587 168.184 815.587 151.007V69.1201C815.587 51.9432 829.509 38.0176 846.682 38.0176H847.125C864.298 38.0176 878.22 51.9432 878.22 69.1201V93.864" stroke="#203EA6" stroke-width="8.63769" stroke-linecap="round" stroke-linejoin="round"/>
<path d="M273.603 386.245V314.639C273.603 297.462 287.525 283.536 304.697 283.536H315.213C332.385 283.536 346.308 297.462 346.308 314.639V386.245C346.308 403.422 332.385 417.348 315.213 417.348H304.697C287.525 417.348 273.603 403.422 273.603 386.245Z" stroke="#307EF3" stroke-width="8.63769" stroke-linecap="round" stroke-linejoin="round"/>
<path d="M511.397 581.544C528.864 581.544 543.024 567.38 543.024 549.909C543.024 532.438 528.864 518.274 511.397 518.274C493.931 518.274 479.771 532.438 479.771 549.909V628.891" stroke="#203EA6" stroke-width="8.63769" stroke-linecap="round" stroke-linejoin="round"/>
<path d="M889.14 417.598C889.14 392.637 868.908 372.399 843.953 372.399C818.998 372.399 798.766 392.637 798.766 417.598C798.766 442.559 818.998 462.797 843.953 462.797H1076.12" stroke="#307EF3" stroke-width="8.63769" stroke-linecap="round" stroke-linejoin="round"/>
<path d="M1098.7 274.5C1095.98 274.791 1093.21 274.944 1090.41 274.944H1020.29C977.891 274.944 943.522 240.566 943.522 198.157C943.522 171.653 956.948 148.285 977.368 134.485" stroke="#203EA6" stroke-width="8.63769" stroke-linecap="round" stroke-linejoin="round"/>
<path d="M1060.31 194.127C1060.31 174.007 1044.01 157.697 1023.89 157.697C1003.78 157.697 987.473 174.007 987.473 194.127C987.473 214.246 1003.78 230.556 1023.89 230.556H1099.63" stroke="#307EF3" stroke-width="8.63769" stroke-linecap="round" stroke-linejoin="round"/>
<path d="M83.8128 145.342L83.8128 155.59C83.8128 176.477 66.8871 193.407 46.0055 193.407C25.1239 193.407 8.19824 176.477 8.19824 155.59L8.19824 72.6799C8.19824 51.793 25.1239 34.863 46.0055 34.863C66.8871 34.863 83.8128 51.793 83.8128 72.6799" stroke="#203EA6" stroke-width="8.63769" stroke-linecap="round" stroke-linejoin="round"/>
<path d="M178.302 32.8086H188.547C209.429 32.8086 226.354 49.7386 226.354 70.6255C226.354 91.5124 209.429 108.442 188.547 108.442L50.1113 108.442" stroke="#307EF3" stroke-width="8.63769" stroke-linecap="round" stroke-linejoin="round"/>
<path d="M461.424 258.178C429.101 258.178 402.894 231.967 402.894 199.633C402.894 167.299 429.098 141.088 461.424 141.088C493.75 141.088 519.954 167.299 519.954 199.633V368.962" stroke="#203EA6" stroke-width="8.63769" stroke-linecap="round" stroke-linejoin="round"/>
<path d="M460.821 221.572C473.67 221.572 484.086 211.154 484.086 198.301C484.086 185.449 473.67 175.03 460.821 175.03C447.972 175.03 437.556 185.449 437.556 198.301C437.556 211.154 447.972 221.572 460.821 221.572Z" stroke="#307EF3" stroke-width="8.63769" stroke-linecap="round" stroke-linejoin="round"/>
<path d="M617.931 219.679V276.71" stroke="#203EA6" stroke-width="8.63769" stroke-linecap="round" stroke-linejoin="round"/>
<path d="M980.891 392.83H1097.86" stroke="#307EF3" stroke-width="8.63769" stroke-linecap="round" stroke-linejoin="round"/>
<path d="M389.271 37.4149L523.289 37.4149" stroke="#307EF3" stroke-width="8.63769" stroke-linecap="round" stroke-linejoin="round"/>
<path d="M336.876 57.2225C336.876 39.7516 322.716 25.5879 305.25 25.5879C287.783 25.5879 273.623 39.7516 273.623 57.2225C273.623 74.6934 287.783 88.8571 305.25 88.8571L467.75 88.8571" stroke="#203EA6" stroke-width="8.63769" stroke-linecap="round" stroke-linejoin="round"/>
<path d="M1117.16 410.11C1116.8 406.73 1116.61 403.299 1116.61 399.821V312.793C1116.61 260.177 1159.25 217.524 1211.86 217.524C1244.73 217.524 1273.72 234.187 1290.84 259.528" stroke="#203EA6" stroke-width="8.63769" stroke-linecap="round" stroke-linejoin="round"/>
<path d="M2053.26 513.398C2049.88 513.76 2046.45 513.948 2042.97 513.948H1955.97C1903.36 513.948 1860.72 471.295 1860.72 418.68C1860.72 385.796 1877.38 356.801 1902.71 339.68" stroke="#203EA6" stroke-width="8.63769" stroke-linecap="round" stroke-linejoin="round"/>
<path d="M1526.12 347.852C1525.85 350.307 1525.72 285.062 1525.72 287.587V393.248C1525.72 431.453 1556.68 462.426 1594.88 462.426" stroke="#203EA6" stroke-width="8.63769" stroke-linecap="round" stroke-linejoin="round"/>
<path d="M1700.19 585.539C1700.45 583.085 1700.59 605.862 1700.59 603.337V540.144C1700.59 501.939 1669.62 470.966 1631.43 470.966" stroke="#307EF3" stroke-width="8.63769" stroke-linecap="round" stroke-linejoin="round"/>
<path d="M1186.7 615.727C1187 612.991 1187.15 638.396 1187.15 635.582V565.09C1187.15 522.473 1152.61 487.922 1110 487.922" stroke="#307EF3" stroke-width="8.63769" stroke-linecap="round" stroke-linejoin="round"/>
<path d="M1871.75 129.135C1871.48 131.589 1871.35 108.812 1871.35 111.337V174.53C1871.35 212.735 1902.31 243.708 1940.51 243.708" stroke="#203EA6" stroke-width="8.63769" stroke-linecap="round" stroke-linejoin="round"/>
<path d="M2045.82 366.822C2046.09 364.367 2046.22 387.144 2046.22 384.619V321.426C2046.22 283.221 2015.26 252.248 1977.06 252.248" stroke="#203EA6" stroke-width="8.63769" stroke-linecap="round" stroke-linejoin="round"/>
<path d="M1797.87 626.54V496.477C1797.87 448.941 1759.35 410.407 1711.82 410.407" stroke="#004AB8" stroke-width="8.63769" stroke-linecap="round" stroke-linejoin="round"/>
<path d="M2154.27 6.35345C2154.53 8.80814 2154.66 3.14031 2154.66 5.66261V51.749C2154.66 77.4307 2140.68 99.8433 2119.9 111.779" stroke="#203EA6" stroke-width="8.63769" stroke-linecap="round" stroke-linejoin="round"/>
<path d="M1307.11 312.796V399.824C1307.11 401.544 1307.06 403.252 1306.97 404.948" stroke="#307EF3" stroke-width="8.63769" stroke-linecap="round" stroke-linejoin="round"/>
<path d="M1160.36 352.556V312.31C1160.36 286.003 1181.68 264.675 1207.98 264.675C1234.28 264.675 1255.6 286.003 1255.6 312.31V421.399" stroke="#203EA6" stroke-width="8.63769" stroke-linecap="round" stroke-linejoin="round"/>
<path d="M1674.4 316.103C1674.04 312.723 1673.85 223.387 1673.85 219.912V132.884C1673.85 80.268 1716.49 37.6152 1769.09 37.6152C1801.97 37.6152 1830.95 54.2777 1848.07 79.6184" stroke="#307EF3" stroke-width="8.63769" stroke-linecap="round" stroke-linejoin="round"/>
<path d="M1722.29 189.106V148.861C1722.29 122.553 1743.61 101.226 1769.91 101.226C1796.22 101.226 1817.54 122.553 1817.54 148.861V312.576" stroke="#203EA6" stroke-width="8.63769" stroke-linecap="round" stroke-linejoin="round"/>
<path d="M1406.79 596.023C1404.21 596.299 1382.16 596.996 1379.5 596.996H1313C1272.8 596.996 1240.2 564.394 1240.2 524.178C1240.2 499.043 1252.93 476.884 1272.3 463.799" stroke="#203EA6" stroke-width="8.63769" stroke-linecap="round" stroke-linejoin="round"/>
<path d="M1365.91 547.885H1323.06C1305.33 547.885 1290.96 533.512 1290.96 515.783C1290.96 498.053 1305.33 483.681 1323.06 483.681H1396.56" stroke="#203EA6" stroke-width="8.63769" stroke-linecap="round" stroke-linejoin="round"/>
<path d="M1443.02 483.681H1463.27C1481 483.681 1495.37 498.053 1495.37 515.783C1495.37 533.512 1481 547.885 1463.27 547.885H1349.67" stroke="#203EA6" stroke-width="8.63769" stroke-linecap="round" stroke-linejoin="round"/>
<path d="M1843.87 638.551C1843.87 607.117 1869.35 581.632 1900.77 581.632H2031.09" stroke="#203EA6" stroke-width="8.63769" stroke-linecap="round" stroke-linejoin="round"/>
<path d="M2086.59 513.371H2108.21C2127.13 513.371 2142.47 528.717 2142.47 547.643C2142.47 566.572 2127.13 581.914 2108.21 581.914H2055.33" stroke="#203EA6" stroke-width="8.63769" stroke-linecap="round" stroke-linejoin="round"/>
<path d="M1434.23 136.602H1329.19C1312.02 136.602 1298.1 150.527 1298.1 167.704V178.225C1298.1 195.403 1312.02 209.328 1329.19 209.328H1434.23C1451.4 209.328 1465.32 195.403 1465.32 178.225V167.704C1465.32 150.527 1451.4 136.602 1434.23 136.602Z" stroke="#307EF3" stroke-width="8.63769" stroke-linecap="round" stroke-linejoin="round"/>
<path d="M1983.22 125.604V151.007C1983.22 168.184 1969.3 182.109 1952.13 182.109H1951.68C1934.51 182.109 1920.59 168.184 1920.59 151.007V69.1201C1920.59 51.9432 1934.51 38.0176 1951.68 38.0176H1952.13C1969.3 38.0176 1983.22 51.9432 1983.22 69.1201V93.864" stroke="#203EA6" stroke-width="8.63769" stroke-linecap="round" stroke-linejoin="round"/>
<path d="M1378.6 386.245V314.639C1378.6 297.462 1392.52 283.536 1409.7 283.536H1420.21C1437.39 283.536 1451.31 297.462 1451.31 314.639V386.245C1451.31 403.422 1437.39 417.348 1420.21 417.348H1409.7C1392.52 417.348 1378.6 403.422 1378.6 386.245Z" stroke="#307EF3" stroke-width="8.63769" stroke-linecap="round" stroke-linejoin="round"/>
<path d="M1616.4 581.544C1633.86 581.544 1648.02 567.38 1648.02 549.909C1648.02 532.438 1633.86 518.274 1616.4 518.274C1598.93 518.274 1584.77 532.438 1584.77 549.909V628.891" stroke="#203EA6" stroke-width="8.63769" stroke-linecap="round" stroke-linejoin="round"/>
<path d="M1994.14 417.598C1994.14 392.637 1973.91 372.399 1948.95 372.399C1924 372.399 1903.77 392.637 1903.77 417.598C1903.77 442.559 1924 462.797 1948.95 462.797H2181.12" stroke="#307EF3" stroke-width="8.63769" stroke-linecap="round" stroke-linejoin="round"/>
<path d="M2203.7 274.5C2200.98 274.791 2198.21 274.944 2195.41 274.944H2125.29C2082.89 274.944 2048.52 240.566 2048.52 198.157C2048.52 171.653 2061.95 148.285 2082.37 134.485" stroke="#203EA6" stroke-width="8.63769" stroke-linecap="round" stroke-linejoin="round"/>
<path d="M2165.31 194.126C2165.31 174.007 2149.01 157.697 2128.89 157.697C2108.78 157.697 2092.47 174.007 2092.47 194.126C2092.47 214.246 2108.78 230.556 2128.89 230.556H2204.63" stroke="#307EF3" stroke-width="8.63769" stroke-linecap="round" stroke-linejoin="round"/>
<path d="M1188.81 145.342V155.59C1188.81 176.477 1171.89 193.407 1151.01 193.407C1130.12 193.407 1113.2 176.477 1113.2 155.59V72.6799C1113.2 51.793 1130.12 34.863 1151.01 34.863C1171.89 34.863 1188.81 51.793 1188.81 72.6799" stroke="#203EA6" stroke-width="8.63769" stroke-linecap="round" stroke-linejoin="round"/>
<path d="M1283.3 32.8086H1293.55C1314.43 32.8086 1331.35 49.7386 1331.35 70.6255C1331.35 91.5124 1314.43 108.442 1293.55 108.442L1155.11 108.442" stroke="#307EF3" stroke-width="8.63769" stroke-linecap="round" stroke-linejoin="round"/>
<path d="M1566.42 258.178C1534.1 258.178 1507.89 231.967 1507.89 199.633C1507.89 167.299 1534.1 141.088 1566.42 141.088C1598.75 141.088 1624.95 167.299 1624.95 199.633V368.962" stroke="#203EA6" stroke-width="8.63769" stroke-linecap="round" stroke-linejoin="round"/>
<path d="M1565.82 221.572C1578.67 221.572 1589.09 211.154 1589.09 198.301C1589.09 185.449 1578.67 175.03 1565.82 175.03C1552.97 175.03 1542.56 185.449 1542.56 198.301C1542.56 211.154 1552.97 221.572 1565.82 221.572Z" stroke="#307EF3" stroke-width="8.63769" stroke-linecap="round" stroke-linejoin="round"/>
<path d="M1722.93 219.679V276.71" stroke="#203EA6" stroke-width="8.63769" stroke-linecap="round" stroke-linejoin="round"/>
<path d="M2085.89 392.83H2202.86" stroke="#307EF3" stroke-width="8.63769" stroke-linecap="round" stroke-linejoin="round"/>
<path d="M1494.27 37.4149L1628.29 37.4149" stroke="#307EF3" stroke-width="8.63769" stroke-linecap="round" stroke-linejoin="round"/>
<path d="M1441.88 57.2225C1441.88 39.7516 1427.72 25.5879 1410.25 25.5879C1392.78 25.5879 1378.62 39.7516 1378.62 57.2225C1378.62 74.6934 1392.78 88.8571 1410.25 88.8571L1572.75 88.8571" stroke="#203EA6" stroke-width="8.63769" stroke-linecap="round" stroke-linejoin="round"/>
</svg>
