<svg width="455" height="787" viewBox="0 0 455 787" fill="none" xmlns="http://www.w3.org/2000/svg">
<path d="M165.496 776.032C167.871 776.288 170.28 776.421 172.722 776.421L233.839 776.421C270.79 776.421 300.743 746.219 300.743 708.963C300.743 685.679 289.042 665.148 271.246 653.025" stroke="white" stroke-width="10" stroke-linecap="round" stroke-linejoin="round"/>
<path d="M92.9606 112.926C92.7066 115.319 92.5745 117.749 92.5745 120.211L92.5745 181.834C92.5745 219.09 122.528 249.292 159.478 249.292C182.572 249.292 202.934 237.494 214.958 219.55" stroke="#B3C1D6" stroke-width="10" stroke-linecap="round" stroke-linejoin="round"/>
<path d="M209.218 486.384C207.494 486.571 253.314 486.667 251.54 486.667L177.338 486.667C150.508 486.667 128.757 464.735 128.757 437.683" stroke="white" stroke-width="10" stroke-linecap="round" stroke-linejoin="round"/>
<path d="M42.298 363.096C44.0218 362.909 28.0261 362.813 29.7995 362.813L74.1778 362.813C101.008 362.813 122.759 384.745 122.759 411.797" stroke="#A80707" stroke-width="10" stroke-linecap="round" stroke-linejoin="round"/>
<path d="M21.0972 726.777C23.0193 726.569 5.17794 726.463 7.15366 726.463L56.6581 726.463C86.587 726.463 110.851 750.926 110.851 781.104" stroke="#A80707" stroke-width="10" stroke-linecap="round" stroke-linejoin="round"/>
<path d="M362.816 241.484C361.092 241.672 377.088 241.768 375.315 241.768L330.936 241.768C304.106 241.768 282.355 219.836 282.355 192.784" stroke="white" stroke-width="10" stroke-linecap="round" stroke-linejoin="round"/>
<path d="M195.895 118.194C197.619 118.007 181.624 117.911 183.397 117.911L227.775 117.911C254.605 117.911 276.357 139.842 276.357 166.895" stroke="white" stroke-width="10" stroke-linecap="round" stroke-linejoin="round"/>
<path d="M65.1802 294.263C67.3252 294.03 11.299 293.911 13.5039 293.911L104.843 293.911C138.226 293.911 165.287 321.196 165.287 354.855" stroke="white" stroke-width="10" stroke-linecap="round" stroke-linejoin="round"/>
<path d="M449.042 41.3839C447.318 41.1965 451.298 41.1007 449.527 41.1007L417.162 41.1008C399.126 41.1008 383.387 51.0091 375.005 65.7217" stroke="#B3C1D6" stroke-width="10" stroke-linecap="round" stroke-linejoin="round"/>
<path d="M233.837 641.503L172.72 641.503C171.512 641.503 170.313 641.534 169.121 641.598" stroke="#A80707" stroke-width="10" stroke-linecap="round" stroke-linejoin="round"/>
<path d="M205.914 745.438L234.177 745.438C252.652 745.438 267.63 730.337 267.63 711.709C267.63 693.081 252.652 677.979 234.177 677.979L157.568 677.979" stroke="#B3C1D6" stroke-width="10" stroke-linecap="round" stroke-linejoin="round"/>
<path d="M231.515 381.364C233.889 381.62 296.627 381.753 299.067 381.753L360.184 381.753C397.134 381.753 427.088 351.551 427.088 314.295C427.088 291.011 415.386 270.48 397.59 258.357" stroke="#A80707" stroke-width="10" stroke-linecap="round" stroke-linejoin="round"/>
<path d="M320.7 347.443L348.963 347.443C367.438 347.443 382.416 332.342 382.416 313.713C382.416 295.085 367.438 279.984 348.963 279.984L233.992 279.984" stroke="#B3C1D6" stroke-width="10" stroke-linecap="round" stroke-linejoin="round"/>
<path d="M34.5477 505.194C34.3537 507.023 34.2525 588.344 34.2525 590.226L34.2525 637.326C34.2525 665.802 57.1477 688.887 85.3899 688.887C103.041 688.887 118.603 679.869 127.792 666.154" stroke="white" stroke-width="10" stroke-linecap="round" stroke-linejoin="round"/>
<path d="M68.7419 599.856L68.7419 630.204C68.7419 642.758 78.8352 652.935 91.2861 652.935C103.737 652.935 113.83 642.758 113.83 630.204L113.83 578.145" stroke="#B3C1D6" stroke-width="10" stroke-linecap="round" stroke-linejoin="round"/>
<path d="M113.83 545.238L113.83 530.894C113.83 518.34 103.737 508.163 91.2858 508.163C78.8349 508.163 68.7416 518.34 68.7416 530.894L68.7416 611.354" stroke="#B3C1D6" stroke-width="10" stroke-linecap="round" stroke-linejoin="round"/>
<path d="M5.17773 261.229C27.2533 261.229 45.1504 243.183 45.1504 220.925L45.1504 128.626" stroke="white" stroke-width="10" stroke-linecap="round" stroke-linejoin="round"/>
<path d="M92.9785 89.3223L92.9785 74.0082C92.9785 60.6049 82.2019 49.7411 68.9107 49.7411C55.6174 49.7411 44.8429 60.607 44.8429 74.0082L44.8429 111.46" stroke="#B3C1D6" stroke-width="10" stroke-linecap="round" stroke-linejoin="round"/>
<path d="M357.572 551.465L357.572 625.859C357.572 638.022 347.793 647.882 335.73 647.882L328.341 647.882C316.278 647.882 306.499 638.022 306.499 625.859L306.499 551.465C306.499 539.302 316.278 529.442 328.341 529.442L335.73 529.442C347.793 529.442 357.572 539.302 357.572 551.465Z" stroke="#A80707" stroke-width="10" stroke-linecap="round" stroke-linejoin="round"/>
<path d="M365.295 162.531L347.456 162.531C335.393 162.531 325.614 172.391 325.614 184.554L325.614 184.868C325.614 197.031 335.393 206.892 347.456 206.892L404.963 206.892C417.025 206.892 426.805 197.031 426.805 184.868L426.805 184.554C426.805 172.391 417.025 162.531 404.963 162.531L387.586 162.531" stroke="white" stroke-width="10" stroke-linecap="round" stroke-linejoin="round"/>
<path d="M182.256 590.863L232.543 590.863C244.606 590.863 254.385 581.003 254.385 568.84L254.385 561.392C254.385 549.23 244.606 539.369 232.543 539.369L182.256 539.369C170.193 539.369 160.414 549.23 160.414 561.392L160.414 568.84C160.414 581.003 170.193 590.863 182.256 590.863Z" stroke="#A80707" stroke-width="10" stroke-linecap="round" stroke-linejoin="round"/>
<path d="M45.1032 422.443C45.1032 410.072 55.0499 400.043 67.3192 400.043C79.5884 400.043 89.5352 410.072 89.5352 422.443C89.5352 434.814 79.5884 444.843 67.3192 444.843L11.8525 444.843" stroke="white" stroke-width="10" stroke-linecap="round" stroke-linejoin="round"/>
<path d="M160.238 154.797C177.768 154.797 191.979 169.127 191.979 186.801C191.979 204.476 177.768 218.806 160.238 218.806C142.708 218.806 128.496 204.476 128.496 186.801L128.496 22.3649" stroke="#A80707" stroke-width="10" stroke-linecap="round" stroke-linejoin="round"/>
<path d="M260.731 6.37078C260.527 8.3004 260.419 10.2592 260.419 12.243L260.419 61.9094C260.419 91.9383 284.561 116.28 314.344 116.28C332.957 116.28 349.368 106.772 359.059 92.3088" stroke="#B3C1D6" stroke-width="10" stroke-linecap="round" stroke-linejoin="round"/>
<path d="M317.175 33.5625C331.304 33.5625 342.758 45.111 342.758 59.3574C342.758 73.6037 331.304 85.1523 317.175 85.1523C303.046 85.1523 291.592 73.6037 291.592 59.3574L291.592 5.71508" stroke="#A80707" stroke-width="10" stroke-linecap="round" stroke-linejoin="round"/>
<path d="M351.434 725.284L344.237 725.284C329.569 725.284 317.68 737.272 317.68 752.061C317.68 766.851 329.569 778.839 344.237 778.839L402.462 778.839C417.13 778.839 429.02 766.851 429.02 752.061C429.02 737.272 417.13 725.284 402.462 725.284" stroke="#B3C1D6" stroke-width="10" stroke-linecap="round" stroke-linejoin="round"/>
<path d="M430.463 658.361L430.463 651.105C430.463 636.315 418.574 624.327 403.906 624.327C389.238 624.327 377.348 636.315 377.348 651.105L377.348 749.153" stroke="#A80707" stroke-width="10" stroke-linecap="round" stroke-linejoin="round"/>
<path d="M272.193 457.837C272.193 480.731 290.6 499.292 313.307 499.292C336.014 499.292 354.421 480.733 354.421 457.837C354.421 434.942 336.014 416.383 313.307 416.383L194.392 416.383" stroke="white" stroke-width="10" stroke-linecap="round" stroke-linejoin="round"/>
<path d="M297.9 458.264C297.9 449.164 305.217 441.787 314.243 441.787C323.269 441.787 330.585 449.164 330.585 458.264C330.585 467.365 323.269 474.742 314.243 474.742C305.217 474.742 297.9 467.365 297.9 458.264Z" stroke="#A80707" stroke-width="10" stroke-linecap="round" stroke-linejoin="round"/>
<path d="M299.229 346.99L259.178 346.99" stroke="#B3C1D6" stroke-width="10" stroke-linecap="round" stroke-linejoin="round"/>
<path d="M177.632 89.8135L177.632 6.9666" stroke="#A80707" stroke-width="10" stroke-linecap="round" stroke-linejoin="round"/>
<path d="M427.228 508.94L427.228 414.02" stroke="#A80707" stroke-width="10" stroke-linecap="round" stroke-linejoin="round"/>
<path d="M413.318 546.049C425.587 546.049 435.534 556.078 435.534 568.449C435.534 580.82 425.587 590.849 413.318 590.849C401.048 590.849 391.102 580.82 391.102 568.449L391.102 453.356" stroke="white" stroke-width="10" stroke-linecap="round" stroke-linejoin="round"/>
</svg>
