<svg width="453" height="779" viewBox="0 0 453 779" fill="none" xmlns="http://www.w3.org/2000/svg">
<path d="M163.496 768.798C165.87 769.052 168.28 769.184 170.722 769.184L231.839 769.184C268.789 769.184 298.743 739.238 298.743 702.297C298.743 679.209 287.042 658.852 269.246 646.832" stroke="white" stroke-width="10" stroke-linecap="round" stroke-linejoin="round"/>
<path d="M90.9601 111.303C90.7061 113.677 90.574 116.085 90.574 118.527L90.574 179.629C90.574 216.57 120.528 246.516 157.478 246.516C180.571 246.516 200.933 234.817 212.957 217.026" stroke="#B3C1D6" stroke-width="10" stroke-linecap="round" stroke-linejoin="round"/>
<path d="M207.219 481.601C205.495 481.787 251.314 481.882 249.541 481.882L175.339 481.882C148.509 481.882 126.757 460.136 126.757 433.313" stroke="white" stroke-width="10" stroke-linecap="round" stroke-linejoin="round"/>
<path d="M40.2983 359.357C42.0222 359.171 26.0265 359.076 27.7999 359.076L72.1782 359.076C99.0083 359.076 120.76 380.822 120.76 407.646" stroke="#2551C1" stroke-width="10" stroke-linecap="round" stroke-linejoin="round"/>
<path d="M19.0969 719.96C21.0189 719.753 3.17757 719.648 5.15329 719.648L54.6577 719.648C84.5866 719.648 108.851 743.904 108.851 773.827" stroke="#2551C1" stroke-width="10" stroke-linecap="round" stroke-linejoin="round"/>
<path d="M360.816 238.774C359.092 238.96 375.088 239.055 373.315 239.055L328.936 239.055C302.106 239.055 280.355 217.309 280.355 190.485" stroke="white" stroke-width="10" stroke-linecap="round" stroke-linejoin="round"/>
<path d="M193.895 116.527C195.619 116.341 179.623 116.246 181.397 116.246L225.775 116.246C252.605 116.246 274.356 137.992 274.356 164.815" stroke="white" stroke-width="10" stroke-linecap="round" stroke-linejoin="round"/>
<path d="M63.18 291.106C65.325 290.874 9.29884 290.757 11.5037 290.757L102.843 290.757C136.226 290.757 163.287 317.811 163.287 351.186" stroke="white" stroke-width="10" stroke-linecap="round" stroke-linejoin="round"/>
<path d="M447.042 40.3672C445.318 40.1814 449.298 40.0864 447.527 40.0864L415.162 40.0864C397.126 40.0864 381.387 49.9109 373.005 64.499" stroke="#B3C1D6" stroke-width="10" stroke-linecap="round" stroke-linejoin="round"/>
<path d="M231.837 635.406L170.72 635.406C169.512 635.406 168.313 635.437 167.121 635.501" stroke="#2551C1" stroke-width="10" stroke-linecap="round" stroke-linejoin="round"/>
<path d="M203.915 738.463L232.178 738.463C250.653 738.463 265.631 723.489 265.631 705.018C265.631 686.548 250.653 671.574 232.178 671.574L155.569 671.574" stroke="#B3C1D6" stroke-width="10" stroke-linecap="round" stroke-linejoin="round"/>
<path d="M229.515 377.47C231.889 377.723 294.627 377.855 297.067 377.855L358.184 377.855C395.134 377.855 425.088 347.909 425.088 310.969C425.088 287.881 413.386 267.524 395.59 255.504" stroke="#2551C1" stroke-width="10" stroke-linecap="round" stroke-linejoin="round"/>
<path d="M318.7 343.836L346.963 343.836C365.438 343.836 380.416 328.862 380.416 310.391C380.416 291.921 365.438 276.947 346.963 276.947L231.992 276.947" stroke="#B3C1D6" stroke-width="10" stroke-linecap="round" stroke-linejoin="round"/>
<path d="M32.5482 500.252C32.3542 502.066 32.253 582.699 32.253 584.565L32.253 631.266C32.253 659.501 55.1482 682.391 83.3904 682.391C101.042 682.391 116.604 673.45 125.793 659.85" stroke="white" stroke-width="10" stroke-linecap="round" stroke-linejoin="round"/>
<path d="M66.7416 594.113L66.7416 624.204C66.7416 636.651 76.8349 646.742 89.2859 646.742C101.737 646.742 111.83 636.651 111.83 624.204L111.83 572.586" stroke="#B3C1D6" stroke-width="10" stroke-linecap="round" stroke-linejoin="round"/>
<path d="M111.83 539.957L111.83 525.734C111.83 513.287 101.737 503.196 89.2858 503.196C76.8349 503.196 66.7416 513.287 66.7416 525.734L66.7416 605.513" stroke="#B3C1D6" stroke-width="10" stroke-linecap="round" stroke-linejoin="round"/>
<path d="M9.17773 258.351C31.2533 258.351 49.1504 240.458 49.1504 218.388L49.1504 126.87" stroke="white" stroke-width="10" stroke-linecap="round" stroke-linejoin="round"/>
<path d="M90.9785 87.8993L90.9785 72.7148C90.9785 59.4249 80.2019 48.6531 66.9107 48.6531C53.6174 48.6531 42.8429 59.427 42.8429 72.7148L42.8429 109.85" stroke="#B3C1D6" stroke-width="10" stroke-linecap="round" stroke-linejoin="round"/>
<path d="M355.572 546.132L355.572 619.896C355.572 631.956 345.793 641.732 333.73 641.732L326.341 641.732C314.278 641.732 304.499 631.956 304.499 619.896L304.499 546.132C304.499 534.072 314.278 524.295 326.341 524.295L333.73 524.295C345.793 524.295 355.572 534.072 355.572 546.132Z" stroke="#2551C1" stroke-width="10" stroke-linecap="round" stroke-linejoin="round"/>
<path d="M363.295 160.489L345.456 160.489C333.393 160.489 323.614 170.265 323.614 182.325L323.614 182.637C323.614 194.697 333.393 204.474 345.456 204.474L402.962 204.474C415.025 204.474 424.805 194.697 424.805 182.637L424.805 182.325C424.805 170.265 415.025 160.489 402.962 160.489L385.586 160.489" stroke="white" stroke-width="10" stroke-linecap="round" stroke-linejoin="round"/>
<path d="M180.257 585.196L230.543 585.196C242.606 585.196 252.386 575.419 252.386 563.36L252.386 555.975C252.386 543.915 242.606 534.138 230.543 534.138L180.257 534.138C168.194 534.138 158.414 543.915 158.414 555.975L158.414 563.36C158.414 575.419 168.194 585.196 180.257 585.196Z" stroke="#2551C1" stroke-width="10" stroke-linecap="round" stroke-linejoin="round"/>
<path d="M43.1032 418.201C43.1032 405.935 53.0499 395.991 65.3192 395.991C77.5884 395.99 87.5352 405.935 87.5352 418.201C87.5352 430.467 77.5884 440.411 65.3192 440.411L9.8525 440.411" stroke="white" stroke-width="10" stroke-linecap="round" stroke-linejoin="round"/>
<path d="M158.238 152.82C175.768 152.82 189.979 167.029 189.979 184.554C189.979 202.079 175.768 216.287 158.238 216.287C140.708 216.287 126.496 202.079 126.496 184.554L126.496 21.5087" stroke="#2551C1" stroke-width="10" stroke-linecap="round" stroke-linejoin="round"/>
<path d="M258.731 5.6505C258.527 7.56379 258.419 9.50603 258.419 11.473L258.419 60.7191C258.419 90.4939 282.561 114.63 312.344 114.63C330.957 114.63 347.368 105.202 357.059 90.8613" stroke="#B3C1D6" stroke-width="10" stroke-linecap="round" stroke-linejoin="round"/>
<path d="M315.175 32.6113C329.304 32.6113 340.758 44.0622 340.758 58.188C340.758 72.3137 329.304 83.7646 315.175 83.7646C301.045 83.7647 289.591 72.3137 289.591 58.188L289.591 4.99962" stroke="#2551C1" stroke-width="10" stroke-linecap="round" stroke-linejoin="round"/>
<path d="M349.434 718.479L342.237 718.479C327.569 718.479 315.68 730.366 315.68 745.03C315.68 759.695 327.569 771.581 342.237 771.581L400.462 771.581C415.13 771.581 427.02 759.695 427.02 745.03C427.02 730.366 415.13 718.479 400.462 718.479" stroke="#B3C1D6" stroke-width="10" stroke-linecap="round" stroke-linejoin="round"/>
<path d="M428.464 652.123L428.464 644.928C428.464 630.263 416.574 618.377 401.906 618.377C387.238 618.377 375.349 630.263 375.349 644.928L375.349 742.146" stroke="#2551C1" stroke-width="10" stroke-linecap="round" stroke-linejoin="round"/>
<path d="M270.192 453.296C270.192 475.995 288.599 494.399 311.307 494.399C334.014 494.399 352.421 475.997 352.421 453.296C352.421 430.594 334.014 412.192 311.307 412.192L192.392 412.192" stroke="white" stroke-width="10" stroke-linecap="round" stroke-linejoin="round"/>
<path d="M295.901 453.719C295.901 444.696 303.218 437.381 312.243 437.381C321.269 437.381 328.586 444.696 328.586 453.719C328.586 462.743 321.269 470.058 312.243 470.058C303.218 470.058 295.901 462.743 295.901 453.719Z" stroke="#2551C1" stroke-width="10" stroke-linecap="round" stroke-linejoin="round"/>
<path d="M297.229 343.387L257.178 343.387" stroke="#B3C1D6" stroke-width="10" stroke-linecap="round" stroke-linejoin="round"/>
<path d="M175.632 88.3867L175.632 6.24095" stroke="#2551C1" stroke-width="10" stroke-linecap="round" stroke-linejoin="round"/>
<path d="M425.228 503.967L425.228 409.85" stroke="#2551C1" stroke-width="10" stroke-linecap="round" stroke-linejoin="round"/>
<path d="M411.317 540.761C423.586 540.761 433.533 550.705 433.533 562.971C433.533 575.237 423.586 585.182 411.317 585.182C399.048 585.182 389.101 575.237 389.101 562.971L389.101 448.853" stroke="white" stroke-width="10" stroke-linecap="round" stroke-linejoin="round"/>
</svg>
