<svg width="149" height="347" viewBox="0 0 149 347" fill="none" xmlns="http://www.w3.org/2000/svg">
<path d="M71.7154 343.21C72.779 343.323 73.8583 343.382 74.9524 343.382L102.332 343.382C118.885 343.382 132.303 330.022 132.303 313.54C132.303 303.24 127.061 294.157 119.089 288.794" stroke="white" stroke-width="4" stroke-linecap="round" stroke-linejoin="round"/>
<path d="M39.222 49.8685C39.1082 50.9275 39.049 52.0021 39.049 53.0915L39.049 80.3523C39.049 96.8337 52.4677 110.194 69.0206 110.194C79.366 110.194 88.4878 104.975 93.8741 97.0372" stroke="#A80707" stroke-width="4" stroke-linecap="round" stroke-linejoin="round"/>
<path d="M91.303 215.076C90.5307 215.159 111.057 215.202 110.262 215.202L77.0215 215.202C65.0021 215.202 55.2579 205.5 55.2579 193.532" stroke="white" stroke-width="4" stroke-linecap="round" stroke-linejoin="round"/>
<path d="M16.5257 160.536C17.298 160.453 10.1323 160.411 10.9267 160.411L30.8073 160.411C42.8266 160.411 52.5709 170.113 52.5709 182.081" stroke="#E3ECFA" stroke-width="4" stroke-linecap="round" stroke-linejoin="round"/>
<path d="M160.11 106.741C159.338 106.824 166.504 106.866 165.709 106.866L145.829 106.866C133.809 106.866 124.065 97.1641 124.065 85.1967" stroke="white" stroke-width="4" stroke-linecap="round" stroke-linejoin="round"/>
<path d="M85.3345 52.1994C86.1068 52.1166 78.941 52.0742 79.7355 52.0742L99.6161 52.0742C111.635 52.0742 121.38 61.7763 121.38 73.7437" stroke="white" stroke-width="4" stroke-linecap="round" stroke-linejoin="round"/>
<path d="M26.7756 130.085C27.7365 129.982 2.63793 129.929 3.62567 129.929L44.5438 129.929C59.4987 129.929 71.6216 142 71.6216 156.89" stroke="white" stroke-width="4" stroke-linecap="round" stroke-linejoin="round"/>
<path d="M102.331 283.697L74.9517 283.697C74.4106 283.697 73.8733 283.711 73.3397 283.74" stroke="#E3ECFA" stroke-width="4" stroke-linecap="round" stroke-linejoin="round"/>
<path d="M89.824 329.677L102.485 329.677C110.762 329.677 117.471 322.996 117.471 314.755C117.471 306.515 110.762 299.834 102.485 299.834L68.1659 299.834" stroke="#A80707" stroke-width="4" stroke-linecap="round" stroke-linejoin="round"/>
<path d="M101.291 168.617C102.355 168.73 130.46 168.789 131.553 168.789L158.933 168.789C175.486 168.789 188.904 155.428 188.904 138.947C188.904 128.646 183.662 119.564 175.69 114.201" stroke="white" stroke-width="4" stroke-linecap="round" stroke-linejoin="round"/>
<path d="M141.245 153.612L153.906 153.612C162.183 153.612 168.893 146.932 168.893 138.691C168.893 130.45 162.183 123.769 153.906 123.769L102.401 123.769" stroke="#A80707" stroke-width="4" stroke-linecap="round" stroke-linejoin="round"/>
<path d="M13.0529 223.397C12.966 224.207 12.9207 260.182 12.9207 261.014L12.9207 281.85C12.9207 294.447 23.1773 304.66 35.8292 304.66C43.7367 304.66 50.7082 300.671 54.8247 294.603" stroke="white" stroke-width="4" stroke-linecap="round" stroke-linejoin="round"/>
<path d="M28.3717 265.275L28.3717 278.7C28.3717 284.253 32.8933 288.755 38.4711 288.755C44.0488 288.755 48.5704 284.253 48.5704 278.7L48.5704 255.67" stroke="#A80707" stroke-width="4" stroke-linecap="round" stroke-linejoin="round"/>
<path d="M48.5704 241.112L48.5704 234.766C48.5704 229.213 44.0488 224.711 38.4711 224.711C32.8933 224.711 28.3717 229.213 28.3717 234.766L28.3717 270.36" stroke="#A80707" stroke-width="4" stroke-linecap="round" stroke-linejoin="round"/>
<path d="M2.58554 115.475C12.475 115.475 20.4925 107.492 20.4925 97.6451L20.4925 56.8136" stroke="white" stroke-width="4" stroke-linecap="round" stroke-linejoin="round"/>
<path d="M39.2307 39.4265L39.2307 32.6518C39.2307 26.7224 34.403 21.9165 28.4488 21.9165C22.4937 21.9165 17.6669 26.7233 17.6669 32.6518L17.6669 49.2197" stroke="#A80707" stroke-width="4" stroke-linecap="round" stroke-linejoin="round"/>
<path d="M157.761 243.867L157.761 276.777C157.761 282.158 153.381 286.52 147.976 286.52L144.666 286.52C139.262 286.52 134.882 282.158 134.882 276.777L134.882 243.867C134.882 238.486 139.262 234.124 144.666 234.124L147.976 234.124C153.381 234.124 157.761 238.486 157.761 243.867Z" stroke="white" stroke-width="4" stroke-linecap="round" stroke-linejoin="round"/>
<path d="M161.222 71.8123L153.23 71.8123C147.826 71.8123 143.445 76.1743 143.445 81.5549L143.445 81.6939C143.445 87.0744 147.826 91.4365 153.23 91.4365L178.992 91.4365C184.396 91.4365 188.777 87.0744 188.777 81.6939L188.777 81.5549C188.777 76.1743 184.396 71.8123 178.992 71.8123L171.208 71.8123" stroke="white" stroke-width="4" stroke-linecap="round" stroke-linejoin="round"/>
<path d="M79.2235 261.296L101.751 261.296C107.155 261.296 111.536 256.934 111.536 251.554L111.536 248.259C111.536 242.878 107.155 238.516 101.751 238.516L79.2235 238.516C73.8196 238.516 69.4386 242.878 69.4386 248.259L69.4386 251.554C69.4386 256.934 73.8196 261.296 79.2235 261.296Z" stroke="#E3ECFA" stroke-width="4" stroke-linecap="round" stroke-linejoin="round"/>
<path d="M17.7827 186.79C17.7827 181.318 22.2387 176.881 27.7351 176.881C33.2314 176.881 37.6874 181.318 37.6874 186.79C37.6874 192.263 33.2314 196.7 27.7351 196.7L2.8871 196.7" stroke="white" stroke-width="4" stroke-linecap="round" stroke-linejoin="round"/>
<path d="M114.379 2.73118C114.288 3.58481 114.24 4.45135 114.24 5.32892L114.24 27.3004C114.24 40.5846 125.055 51.353 138.397 51.353C146.735 51.353 154.087 47.1466 158.428 40.7485" stroke="#A80707" stroke-width="4" stroke-linecap="round" stroke-linejoin="round"/>
<path d="M139.664 14.7606C145.994 14.7606 151.125 19.8695 151.125 26.1718C151.125 32.4741 145.994 37.583 139.664 37.583C133.335 37.583 128.204 32.4741 128.204 26.1718L128.204 2.44149" stroke="#A80707" stroke-width="4" stroke-linecap="round" stroke-linejoin="round"/>
<path d="M155.013 320.761L151.789 320.761C145.218 320.761 139.892 326.064 139.892 332.607C139.892 339.149 145.218 344.453 151.789 344.453L177.873 344.453C184.444 344.453 189.77 339.149 189.77 332.607C189.77 326.064 184.444 320.761 177.873 320.761" stroke="#A80707" stroke-width="4" stroke-linecap="round" stroke-linejoin="round"/>
<path d="M119.513 202.447C119.513 212.575 127.759 220.786 137.931 220.786C148.104 220.786 156.35 212.576 156.35 202.447C156.35 192.319 148.104 184.109 137.931 184.109L84.66 184.109" stroke="white" stroke-width="4" stroke-linecap="round" stroke-linejoin="round"/>
<path d="M131.031 202.637C131.031 198.611 134.309 195.347 138.352 195.347C142.396 195.347 145.673 198.611 145.673 202.637C145.673 206.663 142.396 209.926 138.352 209.926C134.309 209.926 131.031 206.663 131.031 202.637Z" stroke="white" stroke-width="4" stroke-linecap="round" stroke-linejoin="round"/>
<path d="M131.627 153.411L113.685 153.411" stroke="#A80707" stroke-width="4" stroke-linecap="round" stroke-linejoin="round"/>
<path d="M66.3497 50.415L66.3497 13.7652" stroke="white" stroke-width="4" stroke-linecap="round" stroke-linejoin="round"/>
</svg>
