<svg width="487" height="851" viewBox="0 0 487 851" fill="none" xmlns="http://www.w3.org/2000/svg">
<path d="M314.219 8.28149C311.639 8.0032 309.02 7.8584 306.366 7.8584L239.937 7.8584C199.776 7.8584 167.219 40.6847 167.219 81.1784C167.219 106.486 179.938 128.801 199.28 141.978" stroke="white" stroke-width="10" stroke-linecap="round" stroke-linejoin="round"/>
<path d="M393.059 728.9C393.335 726.298 393.478 723.657 393.478 720.981L393.478 654.003C393.478 613.509 360.922 580.683 320.76 580.683C295.66 580.683 273.528 593.506 260.46 613.009" stroke="#B3C1D6" stroke-width="10" stroke-linecap="round" stroke-linejoin="round"/>
<path d="M266.698 323.101C268.572 322.897 218.771 322.793 220.698 322.793L301.348 322.793C330.51 322.793 354.152 346.63 354.152 376.034" stroke="white" stroke-width="10" stroke-linecap="round" stroke-linejoin="round"/>
<path d="M448.124 457.102C446.251 457.305 463.636 457.409 461.709 457.409L413.474 457.409C384.312 457.409 360.67 433.572 360.67 404.169" stroke="#A80707" stroke-width="10" stroke-linecap="round" stroke-linejoin="round"/>
<path d="M99.7519 589.169C101.626 588.965 84.2398 588.861 86.1673 588.861L134.402 588.861C163.564 588.861 187.206 612.699 187.206 642.102" stroke="white" stroke-width="10" stroke-linecap="round" stroke-linejoin="round"/>
<path d="M281.178 723.174C279.304 723.378 296.69 723.482 294.762 723.482L246.528 723.482C217.366 723.482 193.724 699.644 193.724 670.241" stroke="white" stroke-width="10" stroke-linecap="round" stroke-linejoin="round"/>
<path d="M423.253 531.919C420.922 532.172 481.817 532.301 479.42 532.301L380.143 532.301C343.859 532.301 314.446 502.645 314.446 466.061" stroke="white" stroke-width="10" stroke-linecap="round" stroke-linejoin="round"/>
<path d="M6.03296 806.656C7.90662 806.86 3.58038 806.964 5.50564 806.964L40.6833 806.964C60.286 806.964 77.3935 796.194 86.5037 780.203" stroke="#B3C1D6" stroke-width="10" stroke-linecap="round" stroke-linejoin="round"/>
<path d="M239.939 154.503L306.368 154.503C307.681 154.503 308.984 154.469 310.279 154.399" stroke="#A80707" stroke-width="10" stroke-linecap="round" stroke-linejoin="round"/>
<path d="M270.288 41.5342L239.569 41.5342C219.488 41.5342 203.209 57.9484 203.209 78.1953C203.209 98.4422 219.488 114.856 239.569 114.856L322.836 114.856" stroke="#B3C1D6" stroke-width="10" stroke-linecap="round" stroke-linejoin="round"/>
<path d="M242.464 437.247C239.884 436.969 171.694 436.824 169.042 436.824L102.613 436.824C62.4518 436.824 29.895 469.65 29.895 510.144C29.895 535.452 42.6134 557.767 61.9559 570.944" stroke="#A80707" stroke-width="10" stroke-linecap="round" stroke-linejoin="round"/>
<path d="M145.528 474.117L114.809 474.117C94.7282 474.117 78.4487 490.531 78.4487 510.778C78.4487 531.025 94.7282 547.439 114.809 547.439L239.772 547.439" stroke="#B3C1D6" stroke-width="10" stroke-linecap="round" stroke-linejoin="round"/>
<path d="M456.548 302.657C456.759 300.668 456.869 212.28 456.869 210.235L456.869 159.042C456.869 128.091 431.984 103 401.287 103C382.102 103 365.187 112.801 355.2 127.708" stroke="white" stroke-width="10" stroke-linecap="round" stroke-linejoin="round"/>
<path d="M419.382 199.767L419.382 166.782C419.382 153.137 408.411 142.076 394.878 142.076C381.345 142.076 370.375 153.137 370.375 166.782L370.375 223.365" stroke="#B3C1D6" stroke-width="10" stroke-linecap="round" stroke-linejoin="round"/>
<path d="M370.375 259.132L370.375 274.723C370.375 288.368 381.345 299.429 394.878 299.429C408.411 299.429 419.382 288.368 419.382 274.723L419.382 187.271" stroke="#B3C1D6" stroke-width="10" stroke-linecap="round" stroke-linejoin="round"/>
<path d="M481.949 567.71C457.955 567.71 438.502 587.323 438.502 611.516L438.502 711.836" stroke="white" stroke-width="10" stroke-linecap="round" stroke-linejoin="round"/>
<path d="M393.039 754.555L393.039 771.2C393.039 785.768 404.752 797.576 419.198 797.576C433.646 797.576 445.357 785.765 445.357 771.2L445.357 730.493" stroke="#B3C1D6" stroke-width="10" stroke-linecap="round" stroke-linejoin="round"/>
<path d="M105.451 252.364L105.451 171.505C105.451 158.285 116.08 147.568 129.192 147.568L137.223 147.568C150.334 147.568 160.963 158.285 160.963 171.505L160.963 252.364C160.963 265.584 150.334 276.301 137.223 276.301L129.192 276.301C116.08 276.301 105.451 265.584 105.451 252.364Z" stroke="#A80707" stroke-width="10" stroke-linecap="round" stroke-linejoin="round"/>
<path d="M97.0564 674.983L116.446 674.983C129.557 674.983 140.186 664.266 140.186 651.046L140.186 650.705C140.186 637.485 129.557 626.768 116.446 626.768L53.9421 626.768C40.831 626.768 30.2017 637.485 30.2017 650.705L30.2017 651.046C30.2017 664.266 40.831 674.983 53.9421 674.983L72.829 674.983" stroke="white" stroke-width="10" stroke-linecap="round" stroke-linejoin="round"/>
<path d="M296.003 209.542L241.346 209.542C228.235 209.542 217.606 220.259 217.606 233.479L217.606 241.574C217.606 254.794 228.235 265.511 241.346 265.511L296.003 265.511C309.114 265.511 319.744 254.794 319.744 241.574L319.744 233.479C319.744 220.259 309.114 209.542 296.003 209.542Z" stroke="#A80707" stroke-width="10" stroke-linecap="round" stroke-linejoin="round"/>
<path d="M445.074 392.598C445.074 406.044 434.263 416.945 420.928 416.945C407.592 416.945 396.781 406.044 396.781 392.598C396.781 379.153 407.592 368.252 420.928 368.252L481.215 368.252" stroke="white" stroke-width="10" stroke-linecap="round" stroke-linejoin="round"/>
<path d="M319.935 683.389C300.882 683.389 285.435 667.815 285.435 648.604C285.435 629.393 300.882 613.818 319.935 613.818C338.987 613.818 354.435 629.393 354.435 648.604L354.434 827.33" stroke="#A80707" stroke-width="10" stroke-linecap="round" stroke-linejoin="round"/>
<path d="M210.708 844.715C210.93 842.618 211.047 840.489 211.047 838.332L211.047 784.35C211.047 751.711 184.807 725.254 152.436 725.254C132.205 725.254 114.368 735.589 103.836 751.309" stroke="#B3C1D6" stroke-width="10" stroke-linecap="round" stroke-linejoin="round"/>
<path d="M149.36 815.16C134.002 815.16 121.553 802.608 121.553 787.124C121.553 771.639 134.002 759.087 149.36 759.087C164.717 759.087 177.166 771.639 177.166 787.124L177.166 845.428" stroke="#A80707" stroke-width="10" stroke-linecap="round" stroke-linejoin="round"/>
<path d="M112.122 63.4394L119.945 63.4394C135.888 63.4394 148.81 50.4098 148.81 34.335C148.81 18.2601 135.888 5.23047 119.945 5.23047L56.66 5.23047C40.7171 5.23047 27.7944 18.2601 27.7944 34.3349C27.7944 50.4098 40.7171 63.4394 56.66 63.4394" stroke="#B3C1D6" stroke-width="10" stroke-linecap="round" stroke-linejoin="round"/>
<path d="M26.2258 136.178L26.2258 144.065C26.2258 160.14 39.1484 173.17 55.0914 173.17C71.0343 173.17 83.9569 160.14 83.9569 144.065L83.9569 37.4961" stroke="#A80707" stroke-width="10" stroke-linecap="round" stroke-linejoin="round"/>
<path d="M198.251 354.128C198.251 329.246 178.244 309.071 153.563 309.071C128.883 309.071 108.876 329.244 108.876 354.128C108.876 379.013 128.883 399.186 153.563 399.186L282.812 399.186" stroke="white" stroke-width="10" stroke-linecap="round" stroke-linejoin="round"/>
<path d="M170.309 353.665C170.309 363.556 162.356 371.574 152.546 371.574C142.736 371.574 134.784 363.556 134.784 353.665C134.784 343.773 142.736 335.755 152.546 335.755C162.356 335.755 170.309 343.773 170.309 353.665Z" stroke="#A80707" stroke-width="10" stroke-linecap="round" stroke-linejoin="round"/>
<path d="M168.864 474.609L212.396 474.609" stroke="#B3C1D6" stroke-width="10" stroke-linecap="round" stroke-linejoin="round"/>
<path d="M301.029 754.021L301.029 844.067" stroke="#A80707" stroke-width="10" stroke-linecap="round" stroke-linejoin="round"/>
<path d="M29.7422 298.584L29.7422 401.753" stroke="#A80707" stroke-width="10" stroke-linecap="round" stroke-linejoin="round"/>
<path d="M44.8617 258.251C31.5262 258.251 20.7151 247.35 20.7151 233.904C20.7151 220.458 31.5262 209.558 44.8617 209.558C58.1972 209.558 69.0083 220.458 69.0083 233.904L69.0083 358.999" stroke="white" stroke-width="10" stroke-linecap="round" stroke-linejoin="round"/>
</svg>
