<svg width="72" height="72" viewBox="0 0 72 72" fill="none" xmlns="http://www.w3.org/2000/svg">
<path d="M59.9998 9.00002V21M65.9998 15H53.9998M11.9998 51V57M14.9998 54H8.99982M29.8108 46.5C29.543 45.4618 29.0018 44.5143 28.2437 43.7562C27.4855 42.998 26.538 42.4568 25.4998 42.189L7.09482 37.443C6.78081 37.3539 6.50445 37.1648 6.30766 36.9043C6.11087 36.6439 6.00439 36.3264 6.00439 36C6.00439 35.6736 6.11087 35.3561 6.30766 35.0957C6.50445 34.8353 6.78081 34.6461 7.09482 34.557L25.4998 29.808C26.5377 29.5404 27.4849 28.9997 28.243 28.2421C29.0012 27.4845 29.5425 26.5377 29.8108 25.5L34.5568 7.09502C34.645 6.77977 34.834 6.50204 35.0948 6.3042C35.3556 6.10636 35.674 5.99927 36.0013 5.99927C36.3287 5.99927 36.647 6.10636 36.9079 6.3042C37.1687 6.50204 37.3576 6.77977 37.4458 7.09502L42.1888 25.5C42.4567 26.5382 42.9978 27.4857 43.756 28.2439C44.5141 29.002 45.4616 29.5432 46.4998 29.811L64.9048 34.554C65.2213 34.6413 65.5004 34.83 65.6993 35.0912C65.8982 35.3524 66.006 35.6717 66.006 36C66.006 36.3283 65.8982 36.6476 65.6993 36.9088C65.5004 37.17 65.2213 37.3587 64.9048 37.446L46.4998 42.189C45.4616 42.4568 44.5141 42.998 43.756 43.7562C42.9978 44.5143 42.4567 45.4618 42.1888 46.5L37.4428 64.905C37.3546 65.2203 37.1657 65.498 36.9049 65.6958C36.644 65.8937 36.3257 66.0008 35.9983 66.0008C35.671 66.0008 35.3526 65.8937 35.0918 65.6958C34.831 65.498 34.642 65.2203 34.5538 64.905L29.8108 46.5Z" stroke="#EC0A0A" stroke-width="6" stroke-linecap="round" stroke-linejoin="round"/>
</svg>
