<svg width="24" height="25" viewBox="0 0 24 25" fill="none" xmlns="http://www.w3.org/2000/svg">
<path d="M11.5248 2.79489C11.5687 2.70635 11.6364 2.63183 11.7203 2.57972C11.8042 2.52761 11.9011 2.5 11.9998 2.5C12.0986 2.5 12.1955 2.52761 12.2794 2.57972C12.3633 2.63183 12.431 2.70635 12.4748 2.79489L14.7848 7.47389C14.937 7.78186 15.1617 8.0483 15.4395 8.25035C15.7173 8.45239 16.04 8.58401 16.3798 8.63389L21.5458 9.38989C21.6437 9.40408 21.7357 9.44537 21.8113 9.50909C21.887 9.57282 21.9433 9.65644 21.9739 9.7505C22.0045 9.84456 22.0081 9.9453 21.9844 10.0413C21.9607 10.1374 21.9107 10.2248 21.8398 10.2939L18.1038 13.9319C17.8575 14.172 17.6731 14.4684 17.5667 14.7955C17.4602 15.1227 17.4349 15.4708 17.4928 15.8099L18.3748 20.9499C18.3921 21.0477 18.3816 21.1485 18.3443 21.2406C18.3071 21.3327 18.2448 21.4125 18.1644 21.4709C18.084 21.5293 17.9888 21.5639 17.8897 21.5708C17.7906 21.5777 17.6915 21.5566 17.6038 21.5099L12.9858 19.0819C12.6816 18.9221 12.343 18.8386 11.9993 18.8386C11.6557 18.8386 11.3171 18.9221 11.0128 19.0819L6.39585 21.5099C6.30818 21.5563 6.20924 21.5772 6.1103 21.5701C6.01135 21.5631 5.91636 21.5285 5.83614 21.4701C5.75592 21.4118 5.69368 21.3321 5.6565 21.2401C5.61933 21.1482 5.6087 21.0476 5.62585 20.9499L6.50685 15.8109C6.56504 15.4716 6.53983 15.1233 6.43338 14.7959C6.32694 14.4686 6.14245 14.172 5.89585 13.9319L2.15985 10.2949C2.08844 10.2259 2.03784 10.1383 2.01381 10.042C1.98978 9.94565 1.99328 9.84451 2.02393 9.75008C2.05457 9.65566 2.11111 9.57174 2.18712 9.50788C2.26313 9.44402 2.35555 9.40279 2.45385 9.38889L7.61885 8.63389C7.9591 8.58439 8.28224 8.45295 8.56043 8.25088C8.83863 8.04881 9.06355 7.78216 9.21585 7.47389L11.5248 2.79489Z" stroke="#B0CDF9" stroke-width="2" stroke-linecap="round" stroke-linejoin="round"/>
</svg>
