<svg width="62" height="100" viewBox="0 0 62 100" fill="none" xmlns="http://www.w3.org/2000/svg">
<path d="M49.4514 17.4375C40.5681 19.836 37.9177 22.7046 35.6896 32.2669C35.6393 32.4751 35.5262 32.6594 35.368 32.791C35.2099 32.9226 35.0157 32.9939 34.8158 32.9939C34.616 32.9939 34.4218 32.9226 34.2637 32.791C34.1055 32.6594 33.9924 32.4751 33.9421 32.2669C31.714 22.7046 29.049 19.836 20.1657 17.4375C19.9723 17.3833 19.801 17.2616 19.6788 17.0914C19.5566 16.9212 19.4903 16.7121 19.4903 16.497C19.4903 16.2818 19.5566 16.0728 19.6788 15.9026C19.801 15.7324 19.9723 15.6106 20.1657 15.5564C29.049 13.158 31.714 10.2893 33.9421 0.727045C33.9924 0.518852 34.1055 0.334528 34.2637 0.202957C34.4218 0.0713862 34.616 0 34.8158 0C35.0157 0 35.2099 0.0713862 35.368 0.202957C35.5262 0.334528 35.6393 0.518852 35.6896 0.727045C37.9177 10.2893 40.5681 13.158 49.4514 15.5564C49.6449 15.6106 49.8161 15.7324 49.9384 15.9026C50.0606 16.0728 50.1269 16.2818 50.1269 16.497C50.1269 16.7121 50.0606 16.9212 49.9384 17.0914C49.8161 17.2616 49.6449 17.3833 49.4514 17.4375Z" fill="#1F79FF"/>
<path d="M60.8063 74.4027C50.8528 77.0901 47.883 80.3044 45.3865 91.0187C45.3301 91.252 45.2033 91.4586 45.0261 91.606C44.849 91.7534 44.6314 91.8334 44.4074 91.8334C44.1835 91.8334 43.9659 91.7534 43.7887 91.606C43.6115 91.4586 43.4848 91.252 43.4284 91.0187C40.9318 80.3044 37.9458 77.0901 27.9922 74.4027C27.7755 74.342 27.5836 74.2056 27.4466 74.0148C27.3097 73.8241 27.2354 73.5899 27.2354 73.3488C27.2354 73.1078 27.3097 72.8735 27.4466 72.6828C27.5836 72.4921 27.7755 72.3557 27.9922 72.2949C37.9458 69.6076 40.9318 66.3933 43.4284 55.6789C43.4848 55.4456 43.6115 55.2391 43.7887 55.0917C43.9659 54.9442 44.1835 54.8643 44.4074 54.8643C44.6314 54.8643 44.849 54.9442 45.0261 55.0917C45.2033 55.2391 45.3301 55.4456 45.3865 55.6789C47.883 66.3933 50.8528 69.6076 60.8063 72.2949C61.0231 72.3557 61.215 72.4921 61.3519 72.6828C61.4889 72.8735 61.5632 73.1078 61.5632 73.3488C61.5632 73.5899 61.4889 73.8241 61.3519 74.0148C61.215 74.2056 61.0231 74.342 60.8063 74.4027Z" fill="#1F79FF"/>
<path d="M18.4981 94.1896C15.1803 95.0854 14.1903 96.1568 13.3582 99.7283C13.3394 99.806 13.2971 99.8749 13.2381 99.924C13.179 99.9731 13.1065 99.9998 13.0318 99.9998C12.9572 99.9998 12.8846 99.9731 12.8256 99.924C12.7665 99.8749 12.7243 99.806 12.7055 99.7283C11.8733 96.1568 10.8779 95.0854 7.56006 94.1896C7.48782 94.1693 7.42386 94.1239 7.37821 94.0603C7.33256 93.9967 7.3078 93.9186 7.3078 93.8383C7.3078 93.7579 7.33256 93.6798 7.37821 93.6163C7.42386 93.5527 7.48782 93.5072 7.56006 93.487C10.8779 92.5912 11.8733 91.5198 12.7055 87.9483C12.7243 87.8705 12.7665 87.8017 12.8256 87.7526C12.8846 87.7034 12.9572 87.6768 13.0318 87.6768C13.1065 87.6768 13.179 87.7034 13.2381 87.7526C13.2971 87.8017 13.3394 87.8705 13.3582 87.9483C14.1903 91.5198 15.1803 92.5912 18.4981 93.487C18.5704 93.5072 18.6343 93.5527 18.68 93.6163C18.7256 93.6798 18.7504 93.7579 18.7504 93.8383C18.7504 93.9186 18.7256 93.9967 18.68 94.0603C18.6343 94.1239 18.5704 94.1693 18.4981 94.1896Z" fill="#1F79FF"/>
<path d="M0.418137 50.0987C5.91307 51.6252 7.55252 53.451 8.93076 59.5373C8.96191 59.6698 9.03187 59.7871 9.12968 59.8708C9.22749 59.9546 9.34763 60 9.47125 60C9.59488 60 9.71501 59.9546 9.81282 59.8708C9.91063 59.7871 9.9806 59.6698 10.0117 59.5373C11.39 53.451 13.0385 51.6252 18.5334 50.0987C18.653 50.0642 18.759 49.9867 18.8346 49.8783C18.9102 49.77 18.9512 49.6369 18.9512 49.5C18.9512 49.3631 18.9102 49.23 18.8346 49.1217C18.759 49.0133 18.653 48.9359 18.5334 48.9014C13.0385 47.3748 11.39 45.549 10.0117 39.4627C9.9806 39.3302 9.91063 39.2129 9.81282 39.1292C9.71501 39.0454 9.59488 39 9.47125 39C9.34763 39 9.22749 39.0454 9.12968 39.1292C9.03187 39.2129 8.96191 39.3302 8.93076 39.4627C7.55252 45.549 5.91307 47.3748 0.418137 48.9014C0.2985 48.9359 0.192558 49.0133 0.116951 49.1217C0.0413437 49.23 0.000335693 49.3631 0.000335693 49.5C0.000335693 49.6369 0.0413437 49.77 0.116951 49.8783C0.192558 49.9867 0.2985 50.0642 0.418137 50.0987Z" fill="#1F79FF"/>
</svg>
