<svg width="345" height="1606" viewBox="0 0 345 1606" fill="none" xmlns="http://www.w3.org/2000/svg">
<path d="M314.219 10.6044C311.638 10.3302 309.02 10.1875 306.365 10.1875L239.937 10.1875C199.776 10.1875 167.219 42.5348 167.219 82.4377C167.219 107.377 179.937 129.366 199.28 142.35" stroke="white" stroke-width="10" stroke-linecap="round" stroke-linejoin="round"/>
<path d="M393.058 720.708C393.334 718.144 393.477 715.543 393.477 712.905L393.477 646.904C393.477 607.001 360.921 574.654 320.759 574.654C295.659 574.654 273.527 587.29 260.459 606.508" stroke="#B3C1D6" stroke-width="10" stroke-linecap="round" stroke-linejoin="round"/>
<path d="M266.697 320.831C268.571 320.63 218.77 320.527 220.697 320.527L301.347 320.527C330.509 320.527 354.151 344.017 354.151 372.991" stroke="white" stroke-width="10" stroke-linecap="round" stroke-linejoin="round"/>
<path d="M99.7516 583.016C101.625 582.815 84.2395 582.713 86.167 582.713L134.402 582.713C163.564 582.713 187.205 606.203 187.205 635.177" stroke="white" stroke-width="10" stroke-linecap="round" stroke-linejoin="round"/>
<path d="M281.178 715.066C279.305 715.267 296.69 715.37 294.763 715.37L246.528 715.37C217.366 715.37 193.725 691.88 193.725 662.906" stroke="white" stroke-width="10" stroke-linecap="round" stroke-linejoin="round"/>
<path d="M423.252 526.602C420.921 526.851 481.816 526.978 479.419 526.978L380.142 526.978C343.858 526.978 314.445 497.755 314.445 461.704" stroke="white" stroke-width="10" stroke-linecap="round" stroke-linejoin="round"/>
<path d="M6.03308 797.33C7.90674 797.531 3.5805 797.633 5.50577 797.633L40.6834 797.633C60.2861 797.633 77.3936 787.021 86.5038 771.263" stroke="#B3C1D6" stroke-width="10" stroke-linecap="round" stroke-linejoin="round"/>
<path d="M239.939 154.694L306.368 154.694C307.681 154.694 308.984 154.66 310.279 154.59" stroke="#6D96D4" stroke-width="10" stroke-linecap="round" stroke-linejoin="round"/>
<path d="M270.288 43.3716L239.569 43.3716C219.488 43.3716 203.209 59.5463 203.209 79.4978C203.209 99.4493 219.488 115.624 239.569 115.624L322.836 115.624" stroke="#B3C1D6" stroke-width="10" stroke-linecap="round" stroke-linejoin="round"/>
<path d="M242.464 433.311C239.883 433.037 171.693 432.895 169.041 432.895L102.613 432.895C62.4513 432.895 29.8945 465.242 29.8945 505.145C29.8945 530.084 42.613 552.073 61.9554 565.057" stroke="#6D96D4" stroke-width="10" stroke-linecap="round" stroke-linejoin="round"/>
<path d="M145.528 469.643L114.809 469.643C94.7287 469.643 78.4492 485.817 78.4492 505.769C78.4492 525.72 94.7287 541.895 114.809 541.895L239.772 541.895" stroke="#B3C1D6" stroke-width="10" stroke-linecap="round" stroke-linejoin="round"/>
<path d="M105.451 251.125L105.451 171.447C105.451 158.419 116.08 147.859 129.192 147.859L137.223 147.859C150.334 147.859 160.963 158.419 160.963 171.447L160.963 251.125C160.963 264.153 150.334 274.713 137.223 274.713L129.192 274.713C116.08 274.713 105.451 264.153 105.451 251.125Z" stroke="#6D96D4" stroke-width="10" stroke-linecap="round" stroke-linejoin="round"/>
<path d="M97.0559 667.579L116.445 667.579C129.557 667.579 140.186 657.018 140.186 643.991L140.186 643.655C140.186 630.628 129.557 620.067 116.445 620.067L53.9416 620.067C40.8305 620.067 30.2012 630.628 30.2012 643.655L30.2012 643.991C30.2012 657.018 40.8305 667.579 53.9416 667.579L72.8285 667.579" stroke="white" stroke-width="10" stroke-linecap="round" stroke-linejoin="round"/>
<path d="M296.003 208.928L241.346 208.928C228.235 208.928 217.605 219.489 217.605 232.516L217.605 240.493C217.605 253.52 228.235 264.081 241.346 264.081L296.003 264.081C309.114 264.081 319.743 253.52 319.743 240.493L319.743 232.516C319.743 219.489 309.114 208.928 296.003 208.928Z" stroke="#6D96D4" stroke-width="10" stroke-linecap="round" stroke-linejoin="round"/>
<path d="M319.934 675.862C300.881 675.862 285.434 660.515 285.434 641.584C285.434 622.654 300.881 607.306 319.934 607.306C338.987 607.306 354.434 622.654 354.434 641.584L354.434 817.703" stroke="#6D96D4" stroke-width="10" stroke-linecap="round" stroke-linejoin="round"/>
<path d="M210.708 834.834C210.931 832.767 211.047 830.669 211.047 828.544L211.047 775.349C211.047 743.187 184.807 717.116 152.437 717.116C132.206 717.116 114.369 727.3 103.836 742.79" stroke="#B3C1D6" stroke-width="10" stroke-linecap="round" stroke-linejoin="round"/>
<path d="M149.359 805.71C134.002 805.71 121.553 793.341 121.553 778.083C121.553 762.824 134.002 750.455 149.359 750.455C164.716 750.455 177.166 762.824 177.166 778.083L177.166 835.536" stroke="#6D96D4" stroke-width="10" stroke-linecap="round" stroke-linejoin="round"/>
<path d="M112.123 64.9578L119.945 64.9578C135.888 64.9578 148.811 52.1183 148.811 36.278C148.811 20.4376 135.888 7.59815 119.945 7.59815L56.6605 7.59815C40.7175 7.59815 27.7949 20.4376 27.7949 36.278C27.7949 52.1183 40.7175 64.9578 56.6605 64.9578" stroke="#B3C1D6" stroke-width="10" stroke-linecap="round" stroke-linejoin="round"/>
<path d="M26.2266 136.635L26.2266 144.407C26.2266 160.247 39.1492 173.087 55.0921 173.087C71.035 173.087 83.9576 160.247 83.9576 144.407L83.9576 39.3926" stroke="#6D96D4" stroke-width="10" stroke-linecap="round" stroke-linejoin="round"/>
<path d="M198.25 351.406C198.25 326.886 178.243 307.006 153.562 307.006C128.882 307.006 108.875 326.884 108.875 351.406C108.875 375.928 128.882 395.805 153.562 395.805L282.811 395.805" stroke="white" stroke-width="10" stroke-linecap="round" stroke-linejoin="round"/>
<path d="M170.309 350.948C170.309 360.695 162.356 368.596 152.546 368.596C142.736 368.596 134.783 360.695 134.783 350.948C134.783 341.201 142.736 333.299 152.546 333.299C162.356 333.299 170.309 341.201 170.309 350.948Z" stroke="#6D96D4" stroke-width="10" stroke-linecap="round" stroke-linejoin="round"/>
<path d="M168.863 470.128L212.395 470.128" stroke="#B3C1D6" stroke-width="10" stroke-linecap="round" stroke-linejoin="round"/>
<path d="M301.029 745.462L301.029 834.195" stroke="#6D96D4" stroke-width="10" stroke-linecap="round" stroke-linejoin="round"/>
<path d="M29.7422 296.671L29.7422 398.335" stroke="#6D96D4" stroke-width="10" stroke-linecap="round" stroke-linejoin="round"/>
<path d="M44.8615 256.926C31.526 256.926 20.7148 246.185 20.7148 232.935C20.7148 219.685 31.526 208.944 44.8615 208.944C58.197 208.944 69.0081 219.685 69.0081 232.935L69.0081 356.204" stroke="white" stroke-width="10" stroke-linecap="round" stroke-linejoin="round"/>
<g clip-path="url(#clip0_1_2154)">
<path d="M211.269 908.466C213.85 908.19 216.468 908.047 219.123 908.047L285.551 908.047C325.713 908.047 358.27 940.595 358.27 980.746C358.27 1005.84 345.551 1027.97 326.209 1041.03" stroke="white" stroke-width="10" stroke-linecap="round" stroke-linejoin="round"/>
<path d="M132.43 1622.99C132.154 1620.41 132.011 1617.79 132.011 1615.13L132.011 1548.72C132.011 1508.57 164.568 1476.02 204.729 1476.02C229.829 1476.02 251.961 1488.74 265.029 1508.08" stroke="#B3C1D6" stroke-width="10" stroke-linecap="round" stroke-linejoin="round"/>
<path d="M258.791 1220.62C256.918 1220.42 306.719 1220.32 304.791 1220.32L224.141 1220.32C194.979 1220.32 171.337 1243.95 171.337 1273.11" stroke="white" stroke-width="10" stroke-linecap="round" stroke-linejoin="round"/>
<path d="M77.3646 1353.49C79.2383 1353.69 61.8525 1353.79 63.78 1353.79L112.015 1353.79C141.177 1353.79 164.818 1330.16 164.818 1301" stroke="#6D96D4" stroke-width="10" stroke-linecap="round" stroke-linejoin="round"/>
<path d="M54.3214 961.549C56.4105 961.773 37.0187 961.887 39.1661 961.887L92.9726 961.887C125.502 961.887 151.875 935.524 151.875 903" stroke="#6D96D4" stroke-width="10" stroke-linecap="round" stroke-linejoin="round"/>
<path d="M425.737 1484.44C423.863 1484.24 441.249 1484.13 439.321 1484.13L391.086 1484.13C361.925 1484.13 338.283 1507.77 338.283 1536.92" stroke="white" stroke-width="10" stroke-linecap="round" stroke-linejoin="round"/>
<path d="M244.31 1617.31C246.184 1617.51 228.798 1617.61 230.725 1617.61L278.96 1617.61C308.122 1617.61 331.764 1593.98 331.764 1564.82" stroke="white" stroke-width="10" stroke-linecap="round" stroke-linejoin="round"/>
<path d="M102.236 1427.67C104.568 1427.92 43.6727 1428.05 46.0692 1428.05L145.346 1428.05C181.63 1428.05 211.043 1398.65 211.043 1362.37" stroke="white" stroke-width="10" stroke-linecap="round" stroke-linejoin="round"/>
<path d="M285.549 1053.45L219.12 1053.45C217.808 1053.45 216.504 1053.42 215.209 1053.35" stroke="#6D96D4" stroke-width="10" stroke-linecap="round" stroke-linejoin="round"/>
<path d="M255.2 941.438L285.919 941.438C306 941.438 322.279 957.713 322.279 977.788C322.279 997.864 306 1014.14 285.919 1014.14L202.653 1014.14" stroke="#B3C1D6" stroke-width="10" stroke-linecap="round" stroke-linejoin="round"/>
<path d="M283.025 1333.8C285.605 1333.53 353.795 1333.38 356.447 1333.38L422.876 1333.38C463.037 1333.38 495.594 1365.93 495.594 1406.08C495.594 1431.18 482.875 1453.3 463.533 1466.37" stroke="#6D96D4" stroke-width="10" stroke-linecap="round" stroke-linejoin="round"/>
<path d="M379.96 1370.36L410.679 1370.36C430.76 1370.36 447.039 1386.63 447.039 1406.71C447.039 1426.79 430.76 1443.06 410.679 1443.06L285.716 1443.06" stroke="#B3C1D6" stroke-width="10" stroke-linecap="round" stroke-linejoin="round"/>
<path d="M68.9411 1200.35C68.7302 1198.38 68.6202 1110.74 68.6202 1108.71L68.6202 1057.95C68.6202 1027.26 93.505 1002.38 124.202 1002.38C143.387 1002.38 160.301 1012.1 170.289 1026.88" stroke="white" stroke-width="10" stroke-linecap="round" stroke-linejoin="round"/>
<path d="M106.107 1098.33L106.107 1065.63C106.107 1052.1 117.077 1041.13 130.61 1041.13C144.143 1041.13 155.113 1052.1 155.113 1065.63L155.113 1121.73" stroke="#B3C1D6" stroke-width="10" stroke-linecap="round" stroke-linejoin="round"/>
<path d="M155.113 1157.19L155.113 1172.65C155.113 1186.18 144.143 1197.15 130.61 1197.15C117.077 1197.15 106.107 1186.18 106.107 1172.65L106.107 1085.94" stroke="#B3C1D6" stroke-width="10" stroke-linecap="round" stroke-linejoin="round"/>
<path d="M43.5399 1463.16C67.534 1463.16 86.9863 1482.61 86.9863 1506.6L86.9863 1606.07" stroke="white" stroke-width="10" stroke-linecap="round" stroke-linejoin="round"/>
<path d="M229.485 1108.02L284.142 1108.02C297.253 1108.02 307.883 1118.65 307.883 1131.76L307.883 1139.78C307.883 1152.89 297.253 1163.52 284.142 1163.52L229.485 1163.52C216.374 1163.52 205.745 1152.89 205.745 1139.78L205.745 1131.76C205.745 1118.65 216.374 1108.02 229.485 1108.02Z" stroke="#6D96D4" stroke-width="10" stroke-linecap="round" stroke-linejoin="round"/>
<path d="M80.4138 1289.53C80.4138 1302.86 91.2249 1313.67 104.56 1313.67C117.896 1313.67 128.707 1302.86 128.707 1289.53C128.707 1276.2 117.896 1265.39 104.56 1265.39L44.2735 1265.39" stroke="white" stroke-width="10" stroke-linecap="round" stroke-linejoin="round"/>
<path d="M205.555 1577.86C224.608 1577.86 240.055 1562.42 240.055 1543.37C240.055 1524.32 224.608 1508.88 205.555 1508.88C186.502 1508.88 171.055 1524.32 171.055 1543.37L171.055 1720.58" stroke="#6D96D4" stroke-width="10" stroke-linecap="round" stroke-linejoin="round"/>
<path d="M327.239 1251.39C327.239 1226.71 347.245 1206.71 371.926 1206.71C396.607 1206.71 416.613 1226.71 416.613 1251.39C416.613 1276.06 396.607 1296.06 371.926 1296.06L242.677 1296.06" stroke="white" stroke-width="10" stroke-linecap="round" stroke-linejoin="round"/>
<path d="M356.625 1370.85L313.093 1370.85" stroke="#B3C1D6" stroke-width="10" stroke-linecap="round" stroke-linejoin="round"/>
</g>
<defs>
<clipPath id="clip0_1_2154">
<rect width="481" height="703" fill="white" transform="translate(39 903)"/>
</clipPath>
</defs>
</svg>
