<svg width="1546" height="2659" viewBox="0 0 1546 2659" fill="none" xmlns="http://www.w3.org/2000/svg">
<path d="M559.546 25.2908C567.709 24.418 575.992 23.9639 584.388 23.9639L794.509 23.9639C921.543 23.9639 1024.52 126.918 1024.52 253.92C1024.52 333.295 984.294 403.282 923.112 444.608" stroke="#203EA6" stroke-width="15" stroke-linecap="round" stroke-linejoin="round"/>
<path d="M310.169 2285.39C309.296 2277.23 308.842 2268.95 308.842 2260.56L308.842 2050.49C308.842 1923.49 411.822 1820.54 538.857 1820.54C618.252 1820.54 688.256 1860.76 729.593 1921.92" stroke="#203EA6" stroke-width="15" stroke-linecap="round" stroke-linejoin="round"/>
<path d="M709.862 1012.67C703.936 1012.03 861.462 1011.71 855.365 1011.71L600.259 1011.71C508.018 1011.71 433.236 1086.47 433.236 1178.69" stroke="#203EA6" stroke-width="15" stroke-linecap="round" stroke-linejoin="round"/>
<path d="M93.0226 1433.91L245.595 1433.91C337.836 1433.91 412.618 1359.15 412.618 1266.93" stroke="#307EF3" stroke-width="15" stroke-linecap="round" stroke-linejoin="round"/>
<path d="M63.1047 193.196C69.7127 193.905 8.37434 194.267 15.1668 194.267L185.363 194.267C288.258 194.267 371.677 110.876 371.677 8" stroke="#307EF3" stroke-width="15" stroke-linecap="round" stroke-linejoin="round"/>
<path d="M1237.93 1847.15C1232 1846.51 1287 1846.19 1280.9 1846.19L1128.33 1846.19C1036.09 1846.19 961.304 1920.95 961.304 2013.17" stroke="#203EA6" stroke-width="15" stroke-linecap="round" stroke-linejoin="round"/>
<path d="M664.06 2267.44C669.987 2268.08 614.994 2268.4 621.091 2268.4L773.663 2268.4C865.905 2268.4 940.686 2193.64 940.686 2101.42" stroke="#203EA6" stroke-width="15" stroke-linecap="round" stroke-linejoin="round"/>
<path d="M36.9991 1668.79L351.023 1668.79C465.793 1668.79 558.829 1575.78 558.829 1461.04" stroke="#004AB8" stroke-width="15" stroke-linecap="round" stroke-linejoin="round"/>
<path d="M1534.37 2529.26C1528.45 2529.9 1542.13 2530.23 1536.04 2530.23L1424.77 2530.23C1362.76 2530.23 1308.65 2496.45 1279.84 2446.3" stroke="#203EA6" stroke-width="15" stroke-linecap="round" stroke-linejoin="round"/>
<path d="M794.501 483.892L584.381 483.892C580.228 483.892 576.105 483.786 572.009 483.566" stroke="#307EF3" stroke-width="15" stroke-linecap="round" stroke-linejoin="round"/>
<path d="M698.505 129.582L795.672 129.582C859.19 129.582 910.684 181.063 910.684 244.564C910.684 308.065 859.19 359.546 795.672 359.546L532.291 359.546" stroke="#203EA6" stroke-width="15" stroke-linecap="round" stroke-linejoin="round"/>
<path d="M786.517 1370.67C794.68 1369.8 1010.37 1369.35 1018.76 1369.35L1228.88 1369.35C1355.92 1369.35 1458.9 1472.3 1458.9 1599.3C1458.9 1678.68 1418.67 1748.67 1357.48 1789.99" stroke="#307EF3" stroke-width="15" stroke-linecap="round" stroke-linejoin="round"/>
<path d="M1093.14 1486.31L1190.3 1486.31C1253.82 1486.31 1305.32 1537.79 1305.32 1601.29C1305.32 1664.79 1253.82 1716.27 1190.3 1716.27L795.033 1716.27" stroke="#203EA6" stroke-width="15" stroke-linecap="round" stroke-linejoin="round"/>
<path d="M110.681 724.564C110.013 718.326 108.331 665.097 108.331 658.682L108.331 498.124C108.331 401.052 187.045 322.358 284.141 322.358C344.827 322.358 398.329 353.098 429.921 399.853" stroke="#203EA6" stroke-width="15" stroke-linecap="round" stroke-linejoin="round"/>
<path d="M226.906 625.855L226.906 522.404C226.906 479.609 261.606 444.917 304.413 444.917C347.219 444.917 381.919 479.609 381.919 522.404L381.919 699.865" stroke="#203EA6" stroke-width="15" stroke-linecap="round" stroke-linejoin="round"/>
<path d="M381.919 812.044L381.919 860.942C381.919 903.737 347.219 938.429 304.413 938.429C261.606 938.429 226.906 903.737 226.906 860.942L226.906 586.664" stroke="#203EA6" stroke-width="15" stroke-linecap="round" stroke-linejoin="round"/>
<path d="M8.0006 1779.85C83.8963 1779.85 145.426 1841.36 145.426 1917.24L145.426 2231.88" stroke="#203EA6" stroke-width="15" stroke-linecap="round" stroke-linejoin="round"/>
<path d="M310.233 2365.86L310.233 2418.06C310.233 2463.75 273.183 2500.79 227.488 2500.79C181.786 2500.79 144.743 2463.75 144.743 2418.06L144.743 2290.39" stroke="#203EA6" stroke-width="15" stroke-linecap="round" stroke-linejoin="round"/>
<path d="M1219.9 790.815L1219.9 537.215C1219.9 495.753 1186.28 462.141 1144.81 462.141L1119.41 462.141C1077.93 462.141 1044.31 495.753 1044.31 537.215L1044.31 790.815C1044.31 832.278 1077.93 865.89 1119.41 865.89L1144.81 865.89C1186.28 865.89 1219.9 832.278 1219.9 790.815Z" stroke="#307EF3" stroke-width="15" stroke-linecap="round" stroke-linejoin="round"/>
<path d="M1246.46 2116.29L1185.12 2116.29C1143.65 2116.29 1110.03 2082.68 1110.03 2041.22L1110.03 2040.15C1110.03 1998.69 1143.65 1965.07 1185.12 1965.07L1382.83 1965.07C1424.3 1965.07 1457.92 1998.69 1457.92 2040.15L1457.92 2041.22C1457.92 2082.68 1424.3 2116.29 1382.83 2116.29L1323.09 2116.29" stroke="#203EA6" stroke-width="15" stroke-linecap="round" stroke-linejoin="round"/>
<path d="M617.166 656.512L790.051 656.512C831.523 656.512 865.145 690.125 865.145 731.586L865.145 756.975C865.145 798.437 831.523 832.05 790.051 832.05L617.166 832.05C575.694 832.05 542.072 798.437 542.072 756.975L542.072 731.586C542.072 690.125 575.694 656.512 617.166 656.512Z" stroke="#307EF3" stroke-width="15" stroke-linecap="round" stroke-linejoin="round"/>
<path d="M145.638 1230.64C145.638 1272.81 179.835 1307 222.016 1307C264.198 1307 298.395 1272.81 298.395 1230.64C298.395 1188.47 264.198 1154.28 222.016 1154.28L31.3222 1154.28" stroke="#203EA6" stroke-width="15" stroke-linecap="round" stroke-linejoin="round"/>
<path d="M541.469 2142.66C601.735 2142.66 650.596 2093.81 650.596 2033.56C650.596 1973.31 601.735 1924.46 541.469 1924.46C481.202 1924.46 432.341 1973.31 432.341 2033.56L432.341 2594.11" stroke="#203EA6" stroke-width="15" stroke-linecap="round" stroke-linejoin="round"/>
<path d="M886.963 2648.63C886.261 2642.05 885.892 2635.37 885.892 2628.61L885.892 2459.3C885.892 2356.94 968.892 2273.96 1071.28 2273.96C1135.28 2273.96 1191.7 2306.37 1225.01 2355.68" stroke="#203EA6" stroke-width="15" stroke-linecap="round" stroke-linejoin="round"/>
<path d="M1081.02 2555.94C1129.59 2555.94 1168.97 2516.57 1168.97 2468.01C1168.97 2419.44 1129.59 2380.07 1081.02 2380.07C1032.44 2380.07 993.061 2419.44 993.061 2468.01L993.061 2650.87" stroke="#307EF3" stroke-width="15" stroke-linecap="round" stroke-linejoin="round"/>
<path d="M1198.8 198.286L1174.06 198.286C1123.63 198.286 1082.75 157.421 1082.75 107.004C1082.75 56.5879 1123.63 15.7227 1174.06 15.7227L1374.23 15.7227C1424.66 15.7227 1465.54 56.5879 1465.54 107.004C1465.54 157.421 1424.66 198.286 1374.23 198.286" stroke="#203EA6" stroke-width="15" stroke-linecap="round" stroke-linejoin="round"/>
<path d="M1470.5 426.419L1470.5 451.155C1470.5 501.572 1429.63 542.437 1379.2 542.437C1328.77 542.437 1287.89 501.572 1287.89 451.155L1287.89 116.917" stroke="#307EF3" stroke-width="15" stroke-linecap="round" stroke-linejoin="round"/>
<path d="M926.369 1109.99C926.369 1031.94 989.652 968.67 1067.72 968.67C1145.79 968.67 1209.07 1031.94 1209.07 1109.99C1209.07 1188.03 1145.79 1251.3 1067.72 1251.3L658.892 1251.3" stroke="#203EA6" stroke-width="15" stroke-linecap="round" stroke-linejoin="round"/>
<path d="M1014.75 1108.53C1014.75 1139.55 1039.91 1164.7 1070.94 1164.7C1101.97 1164.7 1127.12 1139.55 1127.12 1108.53C1127.12 1077.51 1101.97 1052.36 1070.94 1052.36C1039.91 1052.36 1014.75 1077.51 1014.75 1108.53Z" stroke="#307EF3" stroke-width="15" stroke-linecap="round" stroke-linejoin="round"/>
<path d="M1019.32 1487.85L881.626 1487.85" stroke="#203EA6" stroke-width="15" stroke-linecap="round" stroke-linejoin="round"/>
<path d="M601.267 2364.18L601.267 2646.6" stroke="#307EF3" stroke-width="15" stroke-linecap="round" stroke-linejoin="round"/>
<path d="M1459.38 935.779L1459.38 1259.35" stroke="#307EF3" stroke-width="15" stroke-linecap="round" stroke-linejoin="round"/>
<path d="M1411.55 809.279C1453.74 809.279 1487.93 775.091 1487.93 732.92C1487.93 690.749 1453.74 656.561 1411.55 656.561C1369.37 656.561 1335.18 690.749 1335.18 732.92L1335.18 1125.26" stroke="#203EA6" stroke-width="15" stroke-linecap="round" stroke-linejoin="round"/>
</svg>
