<svg width="250" height="146" viewBox="0 0 250 146" fill="none" xmlns="http://www.w3.org/2000/svg">
<path d="M212.7 116.575C211.906 116.66 211.101 116.705 210.284 116.705H189.848C177.493 116.705 167.478 106.686 167.478 94.3282C167.478 86.6045 171.39 79.7943 177.341 75.7729" stroke="#E6EFFD" stroke-width="2.48009" stroke-linecap="round" stroke-linejoin="round"/>
<path d="M88.8868 77.6922C88.8247 78.2687 88.793 62.9442 88.793 63.5374V88.3546C88.793 97.3281 96.066 104.603 105.037 104.603" stroke="#E6EFFD" stroke-width="2.48009" stroke-linecap="round" stroke-linejoin="round"/>
<path d="M129.772 133.52C129.834 132.943 129.866 138.293 129.866 137.7V122.857C129.866 113.884 122.593 106.609 113.621 106.609" stroke="#E6EFFD" stroke-width="2.48009" stroke-linecap="round" stroke-linejoin="round"/>
<path d="M170.067 26.3211C170.005 26.8976 169.973 21.5478 169.973 22.1409V36.9835C169.973 45.9569 177.246 53.2318 186.218 53.2318" stroke="#E6EFFD" stroke-width="2.48009" stroke-linecap="round" stroke-linejoin="round"/>
<path d="M210.954 82.1484C211.016 81.5719 211.048 86.9217 211.048 86.3286V71.486C211.048 62.5125 203.775 55.2377 194.803 55.2377" stroke="#E6EFFD" stroke-width="2.48009" stroke-linecap="round" stroke-linejoin="round"/>
<path d="M152.599 125.866C152.677 125.149 152.716 143.887 152.716 143.15V112.601C152.716 101.436 143.668 92.3851 132.505 92.3851" stroke="#E6EFFD" stroke-width="2.48009" stroke-linecap="round" stroke-linejoin="round"/>
<path d="M37.4466 69.4584V89.8993C37.4466 90.3033 37.4362 90.7044 37.4148 91.1028" stroke="#E6EFFD" stroke-width="2.48009" stroke-linecap="round" stroke-linejoin="round"/>
<path d="M2.97803 78.7974L2.97803 69.3447C2.97803 63.1656 7.98618 58.1562 14.1637 58.1562C20.3412 58.1562 25.3494 63.1656 25.3494 69.3447L25.3494 94.967" stroke="#E6EFFD" stroke-width="2.48009" stroke-linecap="round" stroke-linejoin="round"/>
<path d="M123.714 70.2355C123.629 69.4415 123.585 48.4585 123.585 47.6423V27.2014C123.585 14.8432 133.601 4.82503 145.956 4.82503C153.678 4.82503 160.486 8.73866 164.506 14.6906" stroke="#E6EFFD" stroke-width="2.48009" stroke-linecap="round" stroke-linejoin="round"/>
<path d="M134.963 40.407V30.9543C134.963 24.7752 139.972 19.7658 146.149 19.7658C152.327 19.7658 157.335 24.7752 157.335 30.9543V69.4071" stroke="#E6EFFD" stroke-width="2.48009" stroke-linecap="round" stroke-linejoin="round"/>
<path d="M82.6489 136.112C82.0421 136.177 55.074 136.211 54.45 136.211H38.8305C29.3872 136.211 21.7317 128.553 21.7317 119.108C21.7317 113.204 24.7221 107.999 29.2705 104.926" stroke="#E6EFFD" stroke-width="2.48009" stroke-linecap="round" stroke-linejoin="round"/>
<path d="M51.2568 124.676H41.1929C37.0297 124.676 33.6548 121.3 33.6548 117.136C33.6548 112.971 37.0297 109.596 41.1929 109.596H58.4567" stroke="#E6EFFD" stroke-width="2.48009" stroke-linecap="round" stroke-linejoin="round"/>
<path d="M69.3693 109.596H74.1262C78.2894 109.596 81.6643 112.971 81.6643 117.136C81.6643 121.3 78.2894 124.676 74.1262 124.676H47.4438" stroke="#E6EFFD" stroke-width="2.48009" stroke-linecap="round" stroke-linejoin="round"/>
<path d="M163.52 143.928C163.52 136.545 169.504 130.559 176.885 130.559H207.494" stroke="#E6EFFD" stroke-width="2.48009" stroke-linecap="round" stroke-linejoin="round"/>
<path d="M220.528 116.57H225.607C230.052 116.57 233.654 120.174 233.654 124.619C233.654 129.065 230.051 132.669 225.607 132.669H213.187" stroke="#E6EFFD" stroke-width="2.48009" stroke-linecap="round" stroke-linejoin="round"/>
<path d="M67.304 28.0745L42.6332 28.0745C38.5997 28.0745 35.3298 31.3451 35.3298 35.3797V37.851C35.3298 41.8856 38.5997 45.1562 42.6332 45.1562H67.304C71.3376 45.1562 74.6074 41.8856 74.6074 37.851V35.3797C74.6074 31.3451 71.3376 28.0745 67.304 28.0745Z" stroke="#E6EFFD" stroke-width="2.48009" stroke-linecap="round" stroke-linejoin="round"/>
<path d="M196.249 25.491V31.4574C196.249 35.4919 192.979 38.7627 188.946 38.7627H188.842C184.808 38.7627 181.538 35.4919 181.538 31.4574V12.2241C181.538 8.18961 184.808 4.91881 188.842 4.91881H188.946C192.979 4.91881 196.249 8.18961 196.249 12.2241V18.0358" stroke="#E6EFFD" stroke-width="2.48009" stroke-linecap="round" stroke-linejoin="round"/>
<path d="M54.2393 86.7104V69.8917C54.2393 65.8572 57.5092 62.5864 61.5427 62.5864H64.0126C68.046 62.5864 71.316 65.8572 71.316 69.8917V86.7104C71.316 90.7448 68.046 94.0156 64.0126 94.0156H61.5427C57.5092 94.0156 54.2393 90.7448 54.2393 86.7104Z" stroke="#E6EFFD" stroke-width="2.48009" stroke-linecap="round" stroke-linejoin="round"/>
<path d="M110.091 132.582C114.194 132.582 117.52 129.255 117.52 125.151C117.52 121.048 114.194 117.721 110.091 117.721C105.989 117.721 102.663 121.048 102.663 125.151V143.703" stroke="#E6EFFD" stroke-width="2.48009" stroke-linecap="round" stroke-linejoin="round"/>
<path d="M198.814 94.074C198.814 88.2112 194.062 83.4579 188.201 83.4579C182.34 83.4579 177.588 88.2112 177.588 94.074C177.588 99.9369 182.34 104.69 188.201 104.69H242.732" stroke="#E6EFFD" stroke-width="2.48009" stroke-linecap="round" stroke-linejoin="round"/>
<path d="M248.036 60.4639C247.396 60.5322 246.747 60.5681 246.089 60.5681H229.618C219.66 60.5681 211.588 52.4936 211.588 42.5328C211.588 36.3074 214.741 30.8188 219.537 27.5777" stroke="#E6EFFD" stroke-width="2.48009" stroke-linecap="round" stroke-linejoin="round"/>
<path d="M239.019 41.5857C239.019 36.8601 235.189 33.0293 230.464 33.0293C225.74 33.0293 221.91 36.8601 221.91 41.5857C221.91 46.3114 225.74 50.1422 230.464 50.1422H248.254" stroke="#E6EFFD" stroke-width="2.48009" stroke-linecap="round" stroke-linejoin="round"/>
<path d="M31.8551 3.69588H34.2615C39.1661 3.69588 43.1415 7.67235 43.1415 12.5782C43.1415 17.4841 39.1661 21.4605 34.2615 21.4605L1.74609 21.4605" stroke="#E6EFFD" stroke-width="2.48009" stroke-linecap="round" stroke-linejoin="round"/>
<path d="M98.3541 56.6301C90.7621 56.6301 84.6067 50.4738 84.6067 42.8792C84.6067 35.2846 90.7614 29.1283 98.3541 29.1283C105.947 29.1283 112.101 35.2846 112.101 42.8792V82.6508" stroke="#E6EFFD" stroke-width="2.48009" stroke-linecap="round" stroke-linejoin="round"/>
<path d="M98.212 48.0324C101.23 48.0324 103.676 45.5853 103.676 42.5666C103.676 39.5479 101.23 37.1007 98.212 37.1007C95.1941 37.1007 92.7476 39.5479 92.7476 42.5666C92.7476 45.5853 95.1941 48.0324 98.212 48.0324Z" stroke="#E6EFFD" stroke-width="2.48009" stroke-linecap="round" stroke-linejoin="round"/>
<path d="M135.113 47.5875V60.9828" stroke="#E6EFFD" stroke-width="2.48009" stroke-linecap="round" stroke-linejoin="round"/>
<path d="M220.365 88.2567H247.839" stroke="#E6EFFD" stroke-width="2.48009" stroke-linecap="round" stroke-linejoin="round"/>
<path d="M81.4062 4.77754L112.884 4.77754" stroke="#E6EFFD" stroke-width="2.48009" stroke-linecap="round" stroke-linejoin="round"/>
<path d="M69.1004 9.43016C69.1004 5.32664 65.7745 1.99991 61.672 1.99991C57.5695 1.99991 54.2437 5.32664 54.2437 9.43016C54.2437 13.5337 57.5695 16.8604 61.672 16.8604L99.8396 16.8604" stroke="#E6EFFD" stroke-width="2.48009" stroke-linecap="round" stroke-linejoin="round"/>
</svg>
