<svg width="118" height="296" viewBox="0 0 118 296" fill="none" xmlns="http://www.w3.org/2000/svg">
<path d="M7.95097 291.533C8.84899 291.629 9.76028 291.679 10.6841 291.679L33.8013 291.679C47.7775 291.679 59.1073 280.327 59.1073 266.324C59.1073 257.572 54.6813 249.855 47.9501 245.299" stroke="white" stroke-width="4" stroke-linecap="round" stroke-linejoin="round"/>
<path d="M-19.4854 42.2968C-19.5814 43.1965 -19.6314 44.1096 -19.6314 45.0351L-19.6314 68.1972C-19.6314 82.2005 -8.3016 93.5522 5.67462 93.5522C14.4096 93.5522 22.1114 89.1176 26.6592 82.3734" stroke="#A80707" stroke-width="4" stroke-linecap="round" stroke-linejoin="round"/>
<path d="M24.4877 182.664C23.8356 182.735 41.1665 182.771 40.4957 182.771L12.4293 182.771C2.28095 182.771 -5.94641 174.527 -5.94641 164.359" stroke="white" stroke-width="4" stroke-linecap="round" stroke-linejoin="round"/>
<path d="M82.5848 90.6177C81.9328 90.6881 87.9831 90.7241 87.3123 90.7241L70.5265 90.7241C60.3781 90.7241 52.1508 82.4808 52.1508 72.3128" stroke="white" stroke-width="4" stroke-linecap="round" stroke-linejoin="round"/>
<path d="M19.4489 44.2771C20.1009 44.2067 14.0506 44.1707 14.7214 44.1707L31.5072 44.1707C41.6556 44.1707 49.8829 52.414 49.8829 62.582" stroke="white" stroke-width="4" stroke-linecap="round" stroke-linejoin="round"/>
<path d="M-29.9938 110.452C-29.1824 110.365 -50.374 110.32 -49.54 110.32L-14.9915 110.32C-2.36463 110.32 7.87115 120.576 7.87115 133.227" stroke="white" stroke-width="4" stroke-linecap="round" stroke-linejoin="round"/>
<path d="M115.2 15.4069C114.548 15.3365 116.054 15.3005 115.384 15.3005L103.142 15.3005C96.32 15.3005 90.3665 19.0247 87.1961 24.5547" stroke="#A80707" stroke-width="4" stroke-linecap="round" stroke-linejoin="round"/>
<path d="M33.7999 240.967L10.6827 240.967C10.2258 240.967 9.77215 240.979 9.32158 241.003" stroke="white" stroke-width="4" stroke-linecap="round" stroke-linejoin="round"/>
<path d="M23.2396 280.034L33.9299 280.034C40.918 280.034 46.5833 274.358 46.5833 267.356C46.5833 260.355 40.918 254.678 33.9299 254.678L4.95291 254.678" stroke="#A80707" stroke-width="4" stroke-linecap="round" stroke-linejoin="round"/>
<path d="M32.9211 143.191C33.8191 143.287 57.5493 143.337 58.4723 143.337L81.5895 143.337C95.5658 143.337 106.896 131.985 106.896 117.982C106.896 109.23 102.47 101.513 95.7383 96.9565" stroke="#A80707" stroke-width="4" stroke-linecap="round" stroke-linejoin="round"/>
<path d="M66.6564 130.441L77.3467 130.441C84.3348 130.441 90.0001 124.765 90.0001 117.763C90.0001 110.762 84.3348 105.086 77.3467 105.086L33.8594 105.086" stroke="#A80707" stroke-width="4" stroke-linecap="round" stroke-linejoin="round"/>
<path d="M80.6015 207.126L80.6015 235.088C80.6015 239.66 76.9026 243.366 72.3398 243.366L69.545 243.366C64.9822 243.366 61.2833 239.66 61.2833 235.088L61.2833 207.126C61.2833 202.554 64.9822 198.848 69.545 198.848L72.3398 198.848C76.9026 198.848 80.6015 202.554 80.6015 207.126Z" stroke="white" stroke-width="4" stroke-linecap="round" stroke-linejoin="round"/>
<path d="M83.5235 60.9411L76.7759 60.9411C72.2133 60.9411 68.5142 64.6473 68.5142 69.2189L68.5142 69.337C68.5142 73.9085 72.2133 77.6147 76.7759 77.6147L98.5274 77.6147C103.09 77.6147 106.789 73.9085 106.789 69.337L106.789 69.2189C106.789 64.6473 103.09 60.9411 98.5274 60.9411L91.9547 60.9411" stroke="white" stroke-width="4" stroke-linecap="round" stroke-linejoin="round"/>
<path d="M14.2889 221.935L33.3096 221.935C37.8723 221.935 41.5713 218.228 41.5713 213.657L41.5713 210.857C41.5713 206.286 37.8723 202.58 33.3096 202.58L14.2889 202.58C9.72622 202.58 6.02718 206.286 6.02718 210.857L6.02718 213.657C6.02718 218.228 9.72622 221.935 14.2889 221.935Z" stroke="#A80707" stroke-width="4" stroke-linecap="round" stroke-linejoin="round"/>
<path d="M5.96178 58.0351C12.5922 58.0351 17.9678 63.4211 17.9678 70.0644C17.9678 76.7077 12.5922 82.0938 5.96178 82.0938C-0.66868 82.0938 -6.04427 76.7077 -6.04427 70.0644L-6.04427 8.25834" stroke="white" stroke-width="4" stroke-linecap="round" stroke-linejoin="round"/>
<path d="M43.9723 2.24686C43.895 2.97214 43.8544 3.70839 43.8544 4.45401L43.8544 23.1219C43.8544 34.4088 52.986 43.5581 64.251 43.5581C71.2914 43.5581 77.4987 39.9841 81.1641 34.548" stroke="#A80707" stroke-width="4" stroke-linecap="round" stroke-linejoin="round"/>
<path d="M65.3224 12.467C70.6667 12.467 74.9991 16.8077 74.9991 22.1625C74.9991 27.5172 70.6668 31.8579 65.3224 31.8579C59.978 31.8579 55.6457 27.5172 55.6457 22.1625L55.6457 2.00013" stroke="white" stroke-width="4" stroke-linecap="round" stroke-linejoin="round"/>
<path d="M78.2817 272.458L75.5595 272.458C70.0114 272.458 65.5143 276.964 65.5143 282.523C65.5143 288.082 70.0114 292.588 75.5595 292.588L97.5827 292.588C103.131 292.588 107.628 288.082 107.628 282.523C107.628 276.964 103.131 272.458 97.5827 272.458" stroke="#A80707" stroke-width="4" stroke-linecap="round" stroke-linejoin="round"/>
<path d="M108.174 247.304L108.174 244.577C108.174 239.018 103.677 234.512 98.1286 234.512C92.5805 234.512 88.0834 239.018 88.0834 244.577L88.0834 281.43" stroke="white" stroke-width="4" stroke-linecap="round" stroke-linejoin="round"/>
<path d="M48.3078 171.934C48.3078 180.539 55.2701 187.516 63.859 187.516C72.4479 187.516 79.4103 180.54 79.4103 171.934C79.4103 163.329 72.4479 156.353 63.859 156.353L18.8803 156.353" stroke="white" stroke-width="4" stroke-linecap="round" stroke-linejoin="round"/>
<path d="M58.0319 172.095C58.0319 168.675 60.7994 165.902 64.2133 165.902C67.6272 165.902 70.3948 168.675 70.3948 172.095C70.3948 175.516 67.6272 178.289 64.2133 178.289C60.7994 178.289 58.0319 175.516 58.0319 172.095Z" stroke="#A80707" stroke-width="4" stroke-linecap="round" stroke-linejoin="round"/>
<path d="M58.5352 130.271L43.3861 130.271" stroke="#A80707" stroke-width="4" stroke-linecap="round" stroke-linejoin="round"/>
<path d="M12.5411 33.6094L12.5411 2.47005" stroke="white" stroke-width="4" stroke-linecap="round" stroke-linejoin="round"/>
<path d="M106.949 191.143L106.949 155.465" stroke="#A80707" stroke-width="4" stroke-linecap="round" stroke-linejoin="round"/>
<path d="M101.687 205.09C106.328 205.09 110.09 208.86 110.09 213.509C110.09 218.159 106.328 221.929 101.687 221.929C97.0461 221.929 93.2838 218.159 93.2838 213.509L93.2838 170.25" stroke="white" stroke-width="4" stroke-linecap="round" stroke-linejoin="round"/>
</svg>
