<svg width="561" height="495" viewBox="0 0 561 495" fill="none" xmlns="http://www.w3.org/2000/svg">
<path d="M492.31 437.394C490.841 437.551 489.35 437.633 487.838 437.633H450.017C427.151 437.633 408.615 419.092 408.615 396.22C408.615 381.926 415.856 369.322 426.869 361.879" stroke="#E6EFFD" stroke-width="4.59" stroke-linecap="round" stroke-linejoin="round"/>
<path d="M263.164 365.431C263.049 366.498 262.99 338.137 262.99 339.234V385.165C262.99 401.772 276.451 415.236 293.054 415.236" stroke="#E6EFFD" stroke-width="4.59" stroke-linecap="round" stroke-linejoin="round"/>
<path d="M338.831 468.754C338.946 467.686 339.005 477.588 339.005 476.49V449.02C339.005 432.413 325.544 418.949 308.941 418.949" stroke="#E6EFFD" stroke-width="4.59" stroke-linecap="round" stroke-linejoin="round"/>
<path d="M413.408 270.357C413.293 271.424 413.234 261.522 413.234 262.62V290.09C413.234 306.697 426.695 320.161 443.298 320.161" stroke="#E6EFFD" stroke-width="4.59" stroke-linecap="round" stroke-linejoin="round"/>
<path d="M489.078 373.678C489.193 372.611 489.252 382.513 489.252 381.415V353.945C489.252 337.338 475.791 323.874 459.188 323.874" stroke="#E6EFFD" stroke-width="4.59" stroke-linecap="round" stroke-linejoin="round"/>
<path d="M381.079 454.589C381.222 453.261 381.295 487.941 381.295 486.576V430.038C381.295 409.375 364.549 392.624 343.89 392.624" stroke="#E6EFFD" stroke-width="4.59" stroke-linecap="round" stroke-linejoin="round"/>
<path d="M167.961 350.193V388.023C167.961 388.771 167.942 389.513 167.902 390.251" stroke="#E6EFFD" stroke-width="4.59" stroke-linecap="round" stroke-linejoin="round"/>
<path d="M104.169 367.477V349.982C104.169 338.546 113.438 329.275 124.871 329.275C136.304 329.275 145.573 338.546 145.573 349.982V397.402" stroke="#E6EFFD" stroke-width="4.59" stroke-linecap="round" stroke-linejoin="round"/>
<path d="M327.62 351.631C327.463 350.161 327.381 311.327 327.381 309.817V271.986C327.381 249.114 345.918 230.573 368.784 230.573C383.075 230.573 395.675 237.816 403.116 248.832" stroke="#E6EFFD" stroke-width="4.59" stroke-linecap="round" stroke-linejoin="round"/>
<path d="M348.44 296.426V278.931C348.44 267.496 357.708 258.224 369.141 258.224C380.574 258.224 389.843 267.496 389.843 278.931V350.098" stroke="#E6EFFD" stroke-width="4.59" stroke-linecap="round" stroke-linejoin="round"/>
<path d="M251.619 473.551C250.496 473.671 200.585 473.734 199.431 473.734H170.523C153.046 473.734 138.877 459.562 138.877 442.08C138.877 431.154 144.412 421.521 152.83 415.833" stroke="#E6EFFD" stroke-width="4.59" stroke-linecap="round" stroke-linejoin="round"/>
<path d="M193.521 452.385H174.895C167.19 452.385 160.944 446.138 160.944 438.431C160.944 430.724 167.19 424.476 174.895 424.476H206.846" stroke="#E6EFFD" stroke-width="4.59" stroke-linecap="round" stroke-linejoin="round"/>
<path d="M227.042 424.476H235.846C243.551 424.476 249.797 430.724 249.797 438.431C249.797 446.138 243.551 452.385 235.846 452.385H186.464" stroke="#E6EFFD" stroke-width="4.59" stroke-linecap="round" stroke-linejoin="round"/>
<path d="M401.289 492.271C401.289 478.606 412.365 467.528 426.026 467.528H482.675" stroke="#E6EFFD" stroke-width="4.59" stroke-linecap="round" stroke-linejoin="round"/>
<path d="M506.798 437.383H516.197C524.423 437.383 531.091 444.054 531.091 452.281C531.091 460.509 524.422 467.179 516.197 467.179H493.211" stroke="#E6EFFD" stroke-width="4.59" stroke-linecap="round" stroke-linejoin="round"/>
<path d="M223.22 273.602H177.561C170.096 273.602 164.044 279.655 164.044 287.122V291.695C164.044 299.162 170.096 305.216 177.561 305.216H223.22C230.685 305.216 236.737 299.162 236.737 291.695V287.122C236.737 279.655 230.685 273.602 223.22 273.602Z" stroke="#E6EFFD" stroke-width="4.59" stroke-linecap="round" stroke-linejoin="round"/>
<path d="M461.864 268.82V279.863C461.864 287.329 455.813 293.383 448.348 293.383H448.155C440.69 293.383 434.638 287.329 434.638 279.863V244.267C434.638 236.8 440.69 230.747 448.155 230.747H448.348C455.813 230.747 461.864 236.8 461.864 244.267V255.023" stroke="#E6EFFD" stroke-width="4.59" stroke-linecap="round" stroke-linejoin="round"/>
<path d="M199.04 382.121V350.994C199.04 343.528 205.092 337.474 212.557 337.474H217.128C224.593 337.474 230.645 343.528 230.645 350.994V382.121C230.645 389.588 224.593 395.642 217.128 395.642H212.557C205.092 395.642 199.04 389.588 199.04 382.121Z" stroke="#E6EFFD" stroke-width="4.59" stroke-linecap="round" stroke-linejoin="round"/>
<path d="M302.408 467.017C310.001 467.017 316.156 460.861 316.156 453.266C316.156 445.671 310.001 439.515 302.408 439.515C294.816 439.515 288.66 445.671 288.66 453.266V487.599" stroke="#E6EFFD" stroke-width="4.59" stroke-linecap="round" stroke-linejoin="round"/>
<path d="M466.612 395.75C466.612 384.899 457.817 376.102 446.969 376.102C436.121 376.102 427.326 384.899 427.326 395.75C427.326 406.6 436.121 415.397 446.969 415.397H547.892" stroke="#E6EFFD" stroke-width="4.59" stroke-linecap="round" stroke-linejoin="round"/>
<path d="M557.709 333.546C556.524 333.672 555.322 333.739 554.105 333.739H523.622C505.192 333.739 490.252 318.795 490.252 300.36C490.252 288.839 496.088 278.681 504.964 272.682" stroke="#E6EFFD" stroke-width="4.59" stroke-linecap="round" stroke-linejoin="round"/>
<path d="M541.019 298.608C541.019 289.862 533.931 282.772 525.188 282.772C516.444 282.772 509.356 289.862 509.356 298.608C509.356 307.354 516.444 314.443 525.188 314.443H558.111" stroke="#E6EFFD" stroke-width="4.59" stroke-linecap="round" stroke-linejoin="round"/>
<path d="M157.613 228.483H162.067C171.144 228.483 178.501 235.843 178.501 244.922C178.501 254.002 171.144 261.361 162.067 261.361H101.889" stroke="#E6EFFD" stroke-width="4.59" stroke-linecap="round" stroke-linejoin="round"/>
<path d="M280.685 326.451C266.634 326.451 255.242 315.057 255.242 301.001C255.242 286.946 266.633 275.552 280.685 275.552C294.737 275.552 306.128 286.946 306.128 301.001V374.608" stroke="#E6EFFD" stroke-width="4.59" stroke-linecap="round" stroke-linejoin="round"/>
<path d="M280.423 310.539C286.008 310.539 290.536 306.01 290.536 300.423C290.536 294.836 286.008 290.307 280.423 290.307C274.837 290.307 270.309 294.836 270.309 300.423C270.309 306.01 274.837 310.539 280.423 310.539Z" stroke="#E6EFFD" stroke-width="4.59" stroke-linecap="round" stroke-linejoin="round"/>
<path d="M348.717 309.715V334.506" stroke="#E6EFFD" stroke-width="4.59" stroke-linecap="round" stroke-linejoin="round"/>
<path d="M506.495 384.983H557.343" stroke="#E6EFFD" stroke-width="4.59" stroke-linecap="round" stroke-linejoin="round"/>
<path d="M249.319 230.485H307.577" stroke="#E6EFFD" stroke-width="4.59" stroke-linecap="round" stroke-linejoin="round"/>
<path d="M226.544 239.096C226.544 231.501 220.389 225.344 212.796 225.344C205.203 225.344 199.048 231.501 199.048 239.096C199.048 246.69 205.203 252.847 212.796 252.847H283.434" stroke="#E6EFFD" stroke-width="4.59" stroke-linecap="round" stroke-linejoin="round"/>
<path d="M393.31 215.083C391.841 215.24 390.35 215.322 388.838 215.322H351.017C328.151 215.322 309.615 196.781 309.615 173.909C309.615 159.614 316.856 147.011 327.869 139.568" stroke="#E6EFFD" stroke-width="4.59" stroke-linecap="round" stroke-linejoin="round"/>
<path d="M164.164 143.12C164.049 144.187 163.99 115.826 163.99 116.923V162.853C163.99 179.461 177.451 192.925 194.054 192.925" stroke="#E6EFFD" stroke-width="4.59" stroke-linecap="round" stroke-linejoin="round"/>
<path d="M239.831 246.443C239.946 245.376 240.005 255.277 240.005 254.179V226.709C240.005 210.102 226.544 196.638 209.941 196.638" stroke="#E6EFFD" stroke-width="4.59" stroke-linecap="round" stroke-linejoin="round"/>
<path d="M314.408 48.0456C314.293 49.1126 314.234 39.2115 314.234 40.3092V67.7789C314.234 84.3864 327.695 97.8504 344.298 97.8504" stroke="#E6EFFD" stroke-width="4.59" stroke-linecap="round" stroke-linejoin="round"/>
<path d="M390.078 151.367C390.193 150.3 390.252 160.202 390.252 159.104V131.634C390.252 115.027 376.791 101.563 360.188 101.563" stroke="#E6EFFD" stroke-width="4.59" stroke-linecap="round" stroke-linejoin="round"/>
<path d="M282.079 232.278C282.222 230.95 282.295 265.63 282.295 264.265V207.727C282.295 187.064 265.549 170.313 244.89 170.313" stroke="#E6EFFD" stroke-width="4.59" stroke-linecap="round" stroke-linejoin="round"/>
<path d="M68.9611 127.881V165.712C68.9611 166.46 68.9419 167.202 68.9023 167.94" stroke="#E6EFFD" stroke-width="4.59" stroke-linecap="round" stroke-linejoin="round"/>
<path d="M5.16919 145.166L5.16919 127.671C5.16919 116.235 14.438 106.964 25.871 106.964C37.304 106.964 46.5728 116.235 46.5728 127.671L46.5728 175.091" stroke="#E6EFFD" stroke-width="4.59" stroke-linecap="round" stroke-linejoin="round"/>
<path d="M228.62 129.32C228.463 127.85 228.381 89.0162 228.381 87.5057V49.6748C228.381 26.803 246.918 8.26196 269.784 8.26196C284.075 8.26196 296.675 15.5051 304.116 26.5206" stroke="#E6EFFD" stroke-width="4.59" stroke-linecap="round" stroke-linejoin="round"/>
<path d="M249.44 74.1149V56.6204C249.44 45.1845 258.708 35.9134 270.141 35.9134C281.574 35.9134 290.843 45.1845 290.843 56.6204V127.787" stroke="#E6EFFD" stroke-width="4.59" stroke-linecap="round" stroke-linejoin="round"/>
<path d="M152.619 251.24C151.496 251.36 101.585 251.423 100.431 251.423H71.5229C54.0457 251.423 39.8774 237.251 39.8774 219.769C39.8774 208.843 45.4119 199.21 53.8298 193.522" stroke="#E6EFFD" stroke-width="4.59" stroke-linecap="round" stroke-linejoin="round"/>
<path d="M94.5208 230.074H75.8951C68.19 230.074 61.944 223.827 61.944 216.12C61.944 208.413 68.19 202.165 75.8951 202.165H107.846" stroke="#E6EFFD" stroke-width="4.59" stroke-linecap="round" stroke-linejoin="round"/>
<path d="M128.042 202.165H136.846C144.551 202.165 150.797 208.413 150.797 216.12C150.797 223.827 144.551 230.074 136.846 230.074H87.4639" stroke="#E6EFFD" stroke-width="4.59" stroke-linecap="round" stroke-linejoin="round"/>
<path d="M302.29 265.705C302.29 252.041 313.365 240.963 327.026 240.963H383.675" stroke="#E6EFFD" stroke-width="4.59" stroke-linecap="round" stroke-linejoin="round"/>
<path d="M407.798 215.072H417.197C425.423 215.072 432.091 221.743 432.091 229.97C432.091 238.198 425.422 244.867 417.197 244.867H394.211" stroke="#E6EFFD" stroke-width="4.59" stroke-linecap="round" stroke-linejoin="round"/>
<path d="M124.22 51.2906L78.5609 51.2906C71.0958 51.2906 65.0442 57.3438 65.0442 64.8108V69.3844C65.0442 76.8514 71.0958 82.9046 78.5609 82.9046H124.22C131.685 82.9046 137.737 76.8514 137.737 69.3844V64.8108C137.737 57.3438 131.685 51.2906 124.22 51.2906Z" stroke="#E6EFFD" stroke-width="4.59" stroke-linecap="round" stroke-linejoin="round"/>
<path d="M362.864 46.5092V57.5516C362.864 65.0183 356.813 71.0717 349.348 71.0717H349.155C341.69 71.0717 335.638 65.0183 335.638 57.5516V21.9557C335.638 14.4889 341.69 8.43555 349.155 8.43555H349.348C356.813 8.43555 362.864 14.4889 362.864 21.9557V32.7118" stroke="#E6EFFD" stroke-width="4.59" stroke-linecap="round" stroke-linejoin="round"/>
<path d="M100.04 159.81V128.683C100.04 121.217 106.092 115.163 113.557 115.163H118.128C125.593 115.163 131.645 121.217 131.645 128.683V159.81C131.645 167.277 125.593 173.331 118.128 173.331H113.557C106.092 173.331 100.04 167.277 100.04 159.81Z" stroke="#E6EFFD" stroke-width="4.59" stroke-linecap="round" stroke-linejoin="round"/>
<path d="M203.408 244.706C211.001 244.706 217.156 238.549 217.156 230.955C217.156 223.36 211.001 217.203 203.408 217.203C195.816 217.203 189.66 223.36 189.66 230.955V265.288" stroke="#E6EFFD" stroke-width="4.59" stroke-linecap="round" stroke-linejoin="round"/>
<path d="M367.612 173.439C367.612 162.588 358.817 153.791 347.969 153.791C337.121 153.791 328.326 162.588 328.326 173.439C328.326 184.289 337.121 193.086 347.969 193.086H448.892" stroke="#E6EFFD" stroke-width="4.59" stroke-linecap="round" stroke-linejoin="round"/>
<path d="M458.709 111.235C457.524 111.361 456.322 111.428 455.105 111.428H424.622C406.192 111.428 391.252 96.4842 391.252 78.0492C391.252 66.5277 397.088 56.3697 405.964 50.3712" stroke="#E6EFFD" stroke-width="4.59" stroke-linecap="round" stroke-linejoin="round"/>
<path d="M426.188 60.4608C417.444 60.4608 410.356 67.5505 410.356 76.2965C410.356 85.0424 417.444 92.1322 426.188 92.1322H459.111" stroke="#E6EFFD" stroke-width="4.59" stroke-linecap="round" stroke-linejoin="round"/>
<path d="M58.613 6.17224H63.0666C72.1438 6.17224 79.5013 13.5317 79.5013 22.6111C79.5013 31.6906 72.1438 39.05 63.0666 39.05L2.88916 39.05" stroke="#E6EFFD" stroke-width="4.59" stroke-linecap="round" stroke-linejoin="round"/>
<path d="M181.685 104.14C167.634 104.14 156.242 92.7459 156.242 78.6903C156.242 64.6347 167.633 53.241 181.685 53.241C195.737 53.241 207.128 64.6347 207.128 78.6903V152.297" stroke="#E6EFFD" stroke-width="4.59" stroke-linecap="round" stroke-linejoin="round"/>
<path d="M181.423 88.2276C187.008 88.2276 191.536 83.6986 191.536 78.1117C191.536 72.5249 187.008 67.9959 181.423 67.9959C175.837 67.9959 171.309 72.5249 171.309 78.1117C171.309 83.6986 175.837 88.2276 181.423 88.2276Z" stroke="#E6EFFD" stroke-width="4.59" stroke-linecap="round" stroke-linejoin="round"/>
<path d="M249.717 87.4042V112.195" stroke="#E6EFFD" stroke-width="4.59" stroke-linecap="round" stroke-linejoin="round"/>
<path d="M407.495 162.672H458.343" stroke="#E6EFFD" stroke-width="4.59" stroke-linecap="round" stroke-linejoin="round"/>
<path d="M150.319 8.17407L208.577 8.17407" stroke="#E6EFFD" stroke-width="4.59" stroke-linecap="round" stroke-linejoin="round"/>
<path d="M127.544 16.7848C127.544 9.1903 121.389 3.03339 113.796 3.03339C106.203 3.03339 100.048 9.1903 100.048 16.7848C100.048 24.3794 106.203 30.5363 113.796 30.5363L184.434 30.5363" stroke="#E6EFFD" stroke-width="4.59" stroke-linecap="round" stroke-linejoin="round"/>
</svg>
