<svg width="960" height="908" viewBox="0 0 960 908" fill="none" xmlns="http://www.w3.org/2000/svg">
<g clip-path="url(#clip0_1644_5008)">
<path d="M825.053 518.387C811.1 514.445 796.483 512.243 781.304 512.243H648.576C558.932 512.243 486 585.305 486 675.057V870.28C486 880.111 491.877 889.019 500.975 892.808C504.041 894.088 507.21 894.703 510.379 894.703C516.665 894.703 522.798 892.296 527.449 887.688C560.056 855.586 603.089 837.922 648.576 837.922H781.304C870.948 837.922 943.829 764.861 943.829 675.057C943.829 600.46 893.436 537.587 825.053 518.387Z" stroke="#0043A7" stroke-width="10" stroke-miterlimit="10"/>
<path d="M604.053 265.4C590.1 261.449 575.483 259.243 560.304 259.243H427.576C337.932 259.243 265 332.458 265 422.399V618.031C265 627.882 270.877 636.809 279.975 640.606C283.041 641.889 286.21 642.504 289.379 642.504C295.665 642.504 301.798 640.093 306.449 635.475C339.056 603.306 382.089 585.605 427.576 585.605H560.304C649.948 585.605 722.829 512.391 722.829 422.399C722.829 347.645 672.436 284.64 604.053 265.4Z" stroke="#0043A7" stroke-width="10" stroke-miterlimit="10"/>
<path d="M352.053 23.1439C338.1 19.2016 323.483 17 308.304 17H175.576C85.9317 17 13 90.0615 13 179.814V375.037C13 384.868 18.8775 393.776 27.9748 397.565C31.0413 398.845 34.21 399.459 37.3787 399.459C43.665 399.459 49.798 397.053 54.4489 392.445C87.056 360.343 130.089 342.679 175.576 342.679H308.304C397.948 342.679 470.829 269.618 470.829 179.814C470.829 105.217 420.436 42.3437 352.053 23.1439Z" stroke="#0043A7" stroke-width="10" stroke-miterlimit="10"/>
</g>
<defs>
<clipPath id="clip0_1644_5008">
<rect width="960" height="908" fill="white"/>
</clipPath>
</defs>
</svg>
