<svg width="60" height="60" viewBox="0 0 60 60" fill="none" xmlns="http://www.w3.org/2000/svg">
<circle cx="30" cy="30" r="30" fill="white"/>
<path d="M36.5 17.2H39.75C40.612 17.2 41.4386 17.5371 42.0481 18.1373C42.6576 18.7374 43 19.5513 43 20.4V42.8C43 43.6487 42.6576 44.4626 42.0481 45.0627C41.4386 45.6629 40.612 46 39.75 46H20.25C19.388 46 18.5614 45.6629 17.9519 45.0627C17.3424 44.4626 17 43.6487 17 42.8V20.4C17 19.5513 17.3424 18.7374 17.9519 18.1373C18.5614 17.5371 19.388 17.2 20.25 17.2H23.5M30 28.4H36.5M30 36.4H36.5M23.5 28.4H23.5163M23.5 36.4H23.5163M25.125 14H34.875C35.7725 14 36.5 14.7163 36.5 15.6V18.8C36.5 19.6837 35.7725 20.4 34.875 20.4H25.125C24.2275 20.4 23.5 19.6837 23.5 18.8V15.6C23.5 14.7163 24.2275 14 25.125 14Z" stroke="#005EEB" stroke-width="3" stroke-linecap="round" stroke-linejoin="round"/>
</svg>
