<svg width="177" height="273" viewBox="0 0 177 273" fill="none" xmlns="http://www.w3.org/2000/svg">
<path d="M64 224C77.2548 224 88 234.745 88 248C88 261.255 77.2548 272 64 272C50.7452 272 40 261.255 40 248C40 234.745 50.7452 224 64 224Z" fill="#00A851" stroke="#00A851" stroke-width="2"/>
<path d="M71.6777 236.413C75.7835 236.413 79.1152 239.846 79.1152 243.775C79.1152 243.865 79.1129 243.959 79.1084 244.065L79.1055 244.131L79.1104 244.191C79.1104 244.191 79.1102 244.192 79.1104 244.194C79.1106 244.198 79.1116 244.206 79.1123 244.219C79.1137 244.246 79.1156 244.293 79.1162 244.357C79.1174 244.485 79.1141 244.686 79.0928 244.949C79.0501 245.475 78.9363 246.252 78.6484 247.206C78.1105 248.988 76.9568 251.415 74.4795 254.004L73.9658 254.525L73.959 254.532C71.421 257.072 68.5857 259.502 64.0068 263.234C60.0263 259.991 57.3633 257.732 55.0684 255.526L54.0547 254.532L54.0479 254.524L53.5342 254.004C51.0547 251.415 49.8998 248.988 49.3613 247.206C49.0732 246.252 48.9597 245.475 48.917 244.949C48.8957 244.686 48.8914 244.485 48.8926 244.357C48.8932 244.293 48.8951 244.246 48.8965 244.219L48.8984 244.193L48.8975 244.194L48.9053 244.115L48.8984 244.032C48.8934 243.965 48.8936 243.893 48.8936 243.775C48.8936 239.846 52.2253 236.413 56.3311 236.413C59.2105 236.413 61.7499 238.219 62.9863 240.599L63.1025 240.831L64.0049 242.724L64.9072 240.831C66.0958 238.337 68.7056 236.413 71.6777 236.413Z" fill="white" stroke="white" stroke-width="2"/>
<path d="M145 118C162.121 118 176 131.879 176 149C176 166.121 162.121 180 145 180C127.879 180 114 166.121 114 149C114 131.879 127.879 118 145 118Z" fill="#00A851" stroke="#00A851" stroke-width="2"/>
<path d="M154.827 133.888C160.238 133.888 164.628 138.408 164.628 143.591C164.628 143.713 164.624 143.839 164.618 143.976L164.615 144.042L164.621 144.107V144.108C164.622 144.115 164.623 144.128 164.624 144.147C164.626 144.185 164.628 144.248 164.629 144.334C164.631 144.507 164.626 144.772 164.598 145.118C164.542 145.809 164.393 146.822 164.019 148.064C163.318 150.386 161.819 153.532 158.616 156.879L157.952 157.551L157.945 157.558C154.653 160.853 150.975 164.001 145.009 168.861C139.429 164.318 135.85 161.27 132.717 158.197L132.072 157.558L132.065 157.551L131.401 156.879C128.196 153.532 126.696 150.386 125.994 148.064C125.619 146.822 125.47 145.809 125.414 145.118C125.386 144.772 125.381 144.507 125.383 144.334C125.384 144.248 125.387 144.185 125.389 144.147C125.39 144.128 125.39 144.115 125.391 144.108V144.107L125.397 144.025L125.392 143.942C125.384 143.845 125.384 143.741 125.384 143.591C125.384 138.408 129.774 133.888 135.185 133.888C139.111 133.888 142.542 136.427 144.104 139.703L145.007 141.596L145.909 139.703C147.471 136.427 150.901 133.888 154.827 133.888Z" fill="white" stroke="white" stroke-width="2"/>
<path d="M49.5 1C76.2858 1 98 22.7142 98 49.5C98 76.2858 76.2858 98 49.5 98C22.7142 98 1 76.2858 1 49.5C1 22.7142 22.7142 1 49.5 1Z" fill="#00A851" stroke="#00A851" stroke-width="2"/>
<path d="M18.6172 41.8809L18.625 41.7998L18.6191 41.7178C18.6058 41.5429 18.6045 41.3613 18.6045 41.1338C18.6047 32.8148 25.6395 25.5771 34.3125 25.5771C40.6235 25.5772 46.1095 29.651 48.6035 34.8828L49.5059 36.7773L50.4082 34.8828C52.9022 29.6508 58.3872 25.5771 64.6982 25.5771C73.371 25.5774 80.4051 32.815 80.4053 41.1338C80.4053 41.3336 80.3987 41.5364 80.3896 41.751L80.3867 41.8174L80.3926 41.8828C80.3928 41.8852 80.3932 41.8893 80.3936 41.8945C80.3945 41.9084 80.3958 41.9319 80.3975 41.9648C80.4008 42.0315 80.4049 42.1372 80.4062 42.2783C80.4089 42.5605 80.4011 42.9866 80.3564 43.5381C80.267 44.6419 80.0304 46.2484 79.4385 48.21C78.2935 52.0043 75.8103 57.1547 70.4434 62.5908L69.915 63.1182L69.9082 63.125C64.7315 68.3071 58.9443 73.2496 49.5088 80.9287C40.6769 73.7441 35.0423 68.9537 30.1123 64.1172L29.1113 63.125L29.1045 63.1182L28.5752 62.5908C23.204 57.1548 20.7193 52.0043 19.5732 48.21C18.9807 46.2484 18.7439 44.6419 18.6543 43.5381C18.6095 42.9865 18.6009 42.5605 18.6035 42.2783C18.6048 42.1372 18.6089 42.0315 18.6123 41.9648C18.614 41.9319 18.6162 41.9084 18.6172 41.8945V41.8809Z" fill="white" stroke="white" stroke-width="2"/>
</svg>
