<svg width="60" height="61" viewBox="0 0 60 61" fill="none" xmlns="http://www.w3.org/2000/svg">
<circle cx="30" cy="30.5" r="30" fill="white"/>
<path d="M32.2399 14.5002H20.4C19.5513 14.5002 18.7373 14.8374 18.1372 15.4375C17.5371 16.0376 17.2 16.8515 17.2 17.7002V43.3C17.2 44.1487 17.5371 44.9626 18.1372 45.5627C18.7373 46.1629 19.5513 46.5 20.4 46.5H39.5998C40.4485 46.5 41.2624 46.1629 41.8625 45.5627C42.4626 44.9626 42.7998 44.1487 42.7998 43.3V31.4601M14 20.9002H20.4M14 27.3001H20.4M14 33.7001H20.4M14 40.1H20.4M45.0046 20.3018C45.6419 19.6644 46 18.8 46 17.8986C46 16.9972 45.6419 16.1328 45.0046 15.4954C44.3672 14.8581 43.5028 14.5 42.6014 14.5C41.7 14.5 40.8356 14.8581 40.1982 15.4954L32.1823 23.5146C31.8019 23.8948 31.5234 24.3647 31.3727 24.881L30.0335 29.4729C29.9933 29.6106 29.9909 29.7565 30.0265 29.8955C30.0621 30.0344 30.1344 30.1612 30.2358 30.2626C30.3372 30.364 30.464 30.4363 30.6029 30.4719C30.7419 30.5075 30.8878 30.5051 31.0255 30.4649L35.6174 29.1257C36.1337 28.975 36.6036 28.6965 36.9838 28.3161L45.0046 20.3018Z" stroke="#005EEB" stroke-width="3" stroke-linecap="round" stroke-linejoin="round"/>
</svg>
