<svg width="60" height="61" viewBox="0 0 60 61" fill="none" xmlns="http://www.w3.org/2000/svg">
<circle cx="30" cy="30.5" r="30" fill="white"/>
<path d="M34.0556 18.9685L30.0278 14.9685C29.7257 14.6685 29.316 14.5 28.8888 14.5C28.4616 14.5 28.0519 14.6685 27.7497 14.9685L24.5275 18.1685C24.2255 18.4685 24.0558 18.8754 24.0558 19.2997C24.0558 19.724 24.2255 20.1309 24.5275 20.4309L28.5553 24.431M34.0556 18.9685L43.7125 20.9317C43.9975 20.9898 44.2615 21.1234 44.4762 21.3184C44.6909 21.5135 44.8485 21.7626 44.9321 22.0395C45.0157 22.3163 45.0222 22.6104 44.951 22.8906C44.8798 23.1708 44.7335 23.4267 44.5277 23.631L33.25 34.8311C33.0443 35.0355 32.7867 35.1808 32.5046 35.2515C32.2224 35.3222 31.9262 35.3157 31.6475 35.2327C31.3688 35.1497 31.1179 34.9932 30.9215 34.7799C30.7251 34.5667 30.5905 34.3046 30.5321 34.0215L28.5553 24.431M34.0556 18.9685L28.5553 24.431M25.8051 21.6997L18.0831 29.3686C17.8404 29.6093 17.6814 29.9207 17.6293 30.2574C17.5771 30.5941 17.6345 30.9386 17.7932 31.2406L22.4444 40.0999M16 43.3C16 42.4513 16.3395 41.6373 16.9438 41.0372C17.548 40.4371 18.3676 40.0999 19.2222 40.0999H25.6666C26.5212 40.0999 27.3407 40.4371 27.945 41.0372C28.5493 41.6373 28.8888 42.4513 28.8888 43.3V44.9C28.8888 45.3243 28.719 45.7313 28.4169 46.0314C28.1148 46.3314 27.705 46.5 27.2777 46.5H17.6111C17.1838 46.5 16.774 46.3314 16.4719 46.0314C16.1697 45.7313 16 45.3243 16 44.9V43.3Z" stroke="#005EEB" stroke-width="3" stroke-linecap="round" stroke-linejoin="round"/>
</svg>
