<svg width="98" height="98" viewBox="0 0 98 98" fill="none" xmlns="http://www.w3.org/2000/svg">
<path fill-rule="evenodd" clip-rule="evenodd" d="M10.4658 54.313V94L42.0393 93.9936V78.2438C42.0393 74.6187 44.9778 71.6804 48.6027 71.6804C52.2277 71.6804 55.1662 74.6187 55.1662 78.2438V93.9915L87.5267 93.9852V54.313H10.4658Z" fill="#B0CDF9"/>
<path d="M42.0322 78.2431C42.0322 74.618 44.9708 71.6797 48.5957 71.6797C52.2206 71.6797 55.1592 74.618 55.1592 78.2431V93.9993H42.0322V78.2431Z" fill="white"/>
<path d="M42.0322 78.2431C42.0322 74.618 44.9708 71.6797 48.5957 71.6797C52.2206 71.6797 55.1592 74.618 55.1592 78.2431V93.9993H42.0322V78.2431Z" stroke="#005EEB" stroke-width="7.5" stroke-linecap="round" stroke-linejoin="round"/>
<path d="M48.9945 21.501L26.2744 39.3495H71.7144L48.9945 21.501Z" fill="#B0CDF9"/>
<path d="M4.04785 93.9976H93.9521" stroke="#005EEB" stroke-width="7.5" stroke-linecap="round" stroke-linejoin="round"/>
<path d="M29.7471 54.3335H68.2775V93.9974H29.7471V54.3335Z" stroke="#005EEB" stroke-width="7.5" stroke-linecap="round" stroke-linejoin="round"/>
<path d="M26.2744 39.3495L48.9945 21.501L71.7144 39.3495" stroke="#005EEB" stroke-width="7.5" stroke-linecap="round" stroke-linejoin="round"/>
<path d="M21.8955 39.3496H76.1027V54.3105H21.8955V39.3496Z" fill="white"/>
<path d="M21.8955 39.3496H76.1027V54.3105H21.8955V39.3496Z" stroke="#005EEB" stroke-width="7.5" stroke-linecap="round" stroke-linejoin="round"/>
<path d="M10.4658 54.313V94" stroke="#005EEB" stroke-width="7.5" stroke-linecap="round" stroke-linejoin="round"/>
<path d="M87.5361 54.313V93.9852" stroke="#005EEB" stroke-width="7.5" stroke-linecap="round" stroke-linejoin="round"/>
<path d="M4.04785 54.313H93.9521" stroke="#005EEB" stroke-width="7.5" stroke-linecap="round" stroke-linejoin="round"/>
<path d="M49.0018 21.5024L49.001 4" stroke="#005EEB" stroke-width="7.5" stroke-linecap="round" stroke-linejoin="round"/>
<path d="M49.001 4H57.818" stroke="#005EEB" stroke-width="7.5" stroke-linecap="round" stroke-linejoin="round"/>
</svg>
