<svg width="60" height="60" viewBox="0 0 60 60" fill="none" xmlns="http://www.w3.org/2000/svg">
<circle cx="30" cy="30" r="30" fill="white"/>
<path d="M37.2325 24.451C36.4458 23.6799 35.388 23.2479 34.2863 23.2479C33.1847 23.2479 32.1269 23.6799 31.3402 24.451L30.8351 25.1244L30.2459 24.6194C29.86 24.2016 29.3908 23.8693 28.8687 23.6438C28.3466 23.4184 27.783 23.3047 27.2143 23.3102C26.6456 23.3156 26.0843 23.4401 25.5666 23.6756C25.0489 23.9111 24.5863 24.2523 24.2084 24.6774C23.8306 25.1025 23.5459 25.6019 23.3728 26.1437C23.1996 26.6854 23.1418 27.2574 23.2031 27.8228C23.2643 28.3883 23.4433 28.9346 23.7284 29.4267C24.0135 29.9188 24.3986 30.3457 24.8587 30.68L30.9193 36.5723L36.98 30.68C39.0002 28.6598 38.8318 26.1345 37.3167 24.451M23.9327 42.633C27.1459 44.2812 30.842 44.7277 34.3552 43.8919C37.8683 43.0561 40.9675 40.9929 43.0941 38.0743C45.2207 35.1557 46.235 31.5735 45.9541 27.9732C45.6732 24.3729 44.1157 20.9913 41.5622 18.4378C39.0087 15.8843 35.6271 14.3268 32.0268 14.0459C28.4265 13.765 24.8443 14.7793 21.9257 16.9059C19.0071 19.0325 16.9439 22.1317 16.1081 25.6448C15.2723 29.158 15.7188 32.8542 17.367 36.0673L14 46L23.9327 42.633Z" stroke="#005EEB" stroke-width="3" stroke-linecap="round" stroke-linejoin="round"/>
</svg>
