<svg width="91" height="90" viewBox="0 0 91 90" fill="none" xmlns="http://www.w3.org/2000/svg">
<path d="M22.9961 3.21387V38.571C22.9961 50.9974 33.0697 61.071 45.4961 61.071C57.9225 61.071 67.9961 50.9974 67.9961 38.571V3.21387H22.9961Z" fill="#B0CDF9"/>
<path d="M45.4961 61.0713V86.7856" stroke="#005EEB" stroke-width="7.5" stroke-linecap="round" stroke-linejoin="round"/>
<path d="M22.9961 86.7856H67.9961" stroke="#005EEB" stroke-width="7.5" stroke-linecap="round" stroke-linejoin="round"/>
<path d="M22.9967 3.21387H3.71094V22.4996C3.71094 33.1508 12.3455 41.7853 22.9967 41.7853V3.21387Z" stroke="#005EEB" stroke-width="7.5" stroke-linecap="round" stroke-linejoin="round"/>
<path d="M67.9961 3.21387H87.2818V22.4996C87.2818 33.1508 78.6476 41.7853 67.9961 41.7853V3.21387Z" stroke="#005EEB" stroke-width="7.5" stroke-linecap="round" stroke-linejoin="round"/>
<path d="M22.9961 3.21387V38.571C22.9961 50.9974 33.0697 61.071 45.4961 61.071C57.9225 61.071 67.9961 50.9974 67.9961 38.571V3.21387H22.9961Z" stroke="#005EEB" stroke-width="7.5" stroke-linecap="round" stroke-linejoin="round"/>
</svg>
