<svg width="160" height="161" viewBox="0 0 160 161" fill="none" xmlns="http://www.w3.org/2000/svg">
<circle cx="80" cy="80.5" r="80" fill="#005EEB"/>
<path d="M71.2561 66.4229C61.2116 59.5697 51.8473 64.8012 44 72.8577L61.3686 83.3206" stroke="white" stroke-width="6" stroke-linecap="round" stroke-linejoin="round"/>
<path d="M92.0774 87.2441C98.9306 97.2884 93.6991 106.653 85.6427 114.5L75.1797 97.1315" stroke="white" stroke-width="6" stroke-linecap="round" stroke-linejoin="round"/>
<path d="M61.3701 83.2664L75.2336 97.1299C86.3244 90.4858 98.9323 84.0511 104.687 78.0872C117.138 65.6362 109.918 48.5816 109.918 48.5816C109.918 48.5816 92.8638 41.3621 80.4128 53.8131C74.4489 59.5677 67.9618 72.228 61.3701 83.2664Z" stroke="white" stroke-width="6" stroke-linecap="round" stroke-linejoin="round"/>
<path d="M69.0068 70.1333L88.3634 89.4898" stroke="white" stroke-width="6" stroke-linecap="round" stroke-linejoin="round"/>
<path d="M96.3159 64.7999C97.7604 64.7999 98.9317 63.6287 98.9317 62.1841C98.9317 60.7395 97.7604 59.5684 96.3159 59.5684C94.8715 59.5684 93.7002 60.7395 93.7002 62.1841C93.7002 63.6287 94.8715 64.7999 96.3159 64.7999Z" stroke="white" stroke-width="6" stroke-linecap="round" stroke-linejoin="round"/>
<path d="M60.6362 108.949C57.6019 111.879 44 114.495 44 114.495C44 114.495 46.6158 100.893 49.5454 97.8587C50.2638 97.0881 51.1301 96.4697 52.0927 96.0407C53.0553 95.6118 54.0944 95.3812 55.1481 95.3625C56.2017 95.344 57.2484 95.5378 58.2255 95.9325C59.2026 96.3269 60.0902 96.9144 60.8354 97.6599C61.5805 98.4049 62.168 99.2927 62.5627 100.27C62.9573 101.247 63.1512 102.293 63.1325 103.347C63.114 104.401 62.8834 105.44 62.4544 106.402C62.0256 107.365 61.4071 108.231 60.6362 108.949Z" stroke="white" stroke-width="6" stroke-linecap="round" stroke-linejoin="round"/>
</svg>
