<svg width="60" height="61" viewBox="0 0 60 61" fill="none" xmlns="http://www.w3.org/2000/svg">
<circle cx="30" cy="30.5" r="30" fill="white"/>
<path d="M15.6292 29.4625L44.2958 21.1292L42.9625 16.7958C42.4625 15.1292 40.6292 14.1292 38.7958 14.6292L16.2958 21.2958C14.6292 21.7958 13.6292 23.6292 14.1292 25.4625L15.6292 29.4625ZM15.6292 29.4625H45.6292V42.7958C45.6292 43.6799 45.278 44.5277 44.6528 45.1528C44.0277 45.778 43.1799 46.1292 42.2958 46.1292H18.9625C18.0784 46.1292 17.2306 45.778 16.6055 45.1528C15.9803 44.5277 15.6292 43.6799 15.6292 42.7958V29.4625ZM20.9625 19.9625L26.1292 26.4625M31.2958 16.7958L36.4625 23.4625" stroke="#005EEB" stroke-width="3" stroke-linecap="round" stroke-linejoin="round"/>
</svg>
