<svg width="26" height="26" viewBox="0 0 26 26" fill="none" xmlns="http://www.w3.org/2000/svg">
<path d="M19.8011 6.69547C19.5306 6.69547 19.3113 6.47618 19.3113 6.20568C19.3113 5.93517 19.5306 5.71588 19.8011 5.71588" stroke="#004BBD" stroke-width="1.71429" stroke-linecap="round" stroke-linejoin="round"/>
<path d="M19.8002 6.69547C20.0707 6.69547 20.29 6.47618 20.29 6.20568C20.29 5.93517 20.0707 5.71588 19.8002 5.71588" stroke="#0043A7" stroke-width="1.71429" stroke-linecap="round" stroke-linejoin="round"/>
<path d="M1.23767 6.27867C1.23767 3.49462 3.4946 1.23767 6.27868 1.23767H19.7214C22.5054 1.23767 24.7624 3.49462 24.7624 6.27867V19.7214C24.7624 22.5054 22.5054 24.7624 19.7214 24.7624H6.27868C3.4946 24.7624 1.23767 22.5054 1.23767 19.7214V6.27867Z" stroke="#0043A7" stroke-width="1.71429" stroke-linecap="round" stroke-linejoin="round"/>
<path d="M12.9992 17.9957C15.7584 17.9957 17.9951 15.7589 17.9951 12.9998C17.9951 10.2406 15.7584 8.00385 12.9992 8.00385C10.24 8.00385 8.0033 10.2406 8.0033 12.9998C8.0033 15.7589 10.24 17.9957 12.9992 17.9957Z" stroke="#0043A7" stroke-width="1.71429" stroke-linecap="round" stroke-linejoin="round"/>
</svg>
