<svg xmlns="http://www.w3.org/2000/svg" width="23" height="24" viewBox="0 0 23 24" fill="none">
  <path d="M17.7411 6.48355C17.5043 6.48355 17.3125 6.29167 17.3125 6.05498C17.3125 5.81828 17.5043 5.6264 17.7411 5.6264" stroke="black" stroke-width="1.5" stroke-linecap="round" stroke-linejoin="round"/>
  <path d="M17.7402 6.48355C17.977 6.48355 18.1688 6.29167 18.1688 6.05498C18.1688 5.81828 17.977 5.6264 17.7402 5.6264" stroke="black" stroke-width="1.5" stroke-linecap="round" stroke-linejoin="round"/>
  <path d="M1.49805 6.11882C1.49805 3.68277 3.47286 1.70795 5.90893 1.70795H17.6713C20.1073 1.70795 22.0822 3.68277 22.0822 6.11882V17.8812C22.0822 20.3172 20.1073 22.2921 17.6713 22.2921H5.90893C3.47286 22.2921 1.49805 20.3172 1.49805 17.8812V6.11882Z" stroke="black" stroke-width="1.5" stroke-linecap="round" stroke-linejoin="round"/>
  <path d="M11.7894 16.3712C14.2037 16.3712 16.1608 14.4141 16.1608 11.9998C16.1608 9.58551 14.2037 7.62836 11.7894 7.62836C9.37512 7.62836 7.41797 9.58551 7.41797 11.9998C7.41797 14.4141 9.37512 16.3712 11.7894 16.3712Z" stroke="black" stroke-width="1.5" stroke-linecap="round" stroke-linejoin="round"/>
</svg>