<svg width="332" height="633" viewBox="0 0 332 633" fill="none" xmlns="http://www.w3.org/2000/svg">
<path d="M275.459 0.522949C306.144 0.523102 331.018 25.3974 331.018 56.0815V576.964C331.018 607.648 306.144 632.523 275.459 632.523H55.5767C24.8926 632.523 0.0183182 607.648 0.0180664 576.964V56.0815C0.0182624 25.3975 24.8926 0.523135 55.5767 0.522949H275.459ZM53.7466 10.5093C30.1 10.5094 10.9312 29.6791 10.9312 53.3257V579.306C10.9313 602.953 30.1001 622.121 53.7466 622.122H277.291C300.937 622.122 320.107 602.953 320.107 579.306V53.3257C320.107 29.679 300.937 10.5093 277.291 10.5093H252.776L252.582 10.5142C250.179 10.6258 248.268 12.4427 248.268 14.6685V10.5093H248.267V15.0425C248.267 25.1765 240.052 33.3921 229.917 33.3921H100.663C90.5285 33.3921 82.3133 25.1765 82.313 15.0425V10.5093H82.312V14.6685H82.311C82.3108 12.3829 80.297 10.5288 77.8042 10.5093H53.7466Z" fill="#00A851"/>
<rect x="145.508" y="15.9233" width="36.8337" height="5.82632" rx="2.91316" fill="#E4E8EF"/>
<ellipse cx="196.641" cy="18.8365" rx="3.03354" ry="2.91316" fill="#E4E8EF"/>
</svg>
