<svg width="157" height="30" viewBox="0 0 157 30" fill="none" xmlns="http://www.w3.org/2000/svg">
<path d="M25.931 11.0522C25.931 14.9771 22.768 18.168 18.8803 18.168H10.6531C10.2581 18.168 9.8659 18.191 9.47656 18.2254V21.2873C9.8659 21.2443 10.2581 21.2185 10.6531 21.2185H18.8803C24.4362 21.2185 28.9548 16.6571 28.9548 11.0522C28.9548 10.6193 28.9207 10.1949 28.8667 9.77637C27.8834 9.05962 26.7154 8.58944 25.4422 8.46616C25.7548 9.26891 25.931 10.1376 25.931 11.0522Z" fill="#00A851"/>
<path d="M3.72085 20.1087V11.0058C3.72085 7.07619 6.87373 3.87624 10.7455 3.87624H18.939C20.5268 3.87624 21.9872 4.41914 23.1646 5.32397H24.792C25.7288 5.32397 26.6316 5.46472 27.492 5.70889C25.726 2.78757 22.5589 0.822784 18.9362 0.822784H10.7427C5.21238 0.822784 0.709473 5.39004 0.709473 11.0058V23.2138C0.709473 23.8285 1.07457 24.3829 1.63213 24.6213C1.81893 24.7018 2.01704 24.7391 2.21516 24.7391C2.6029 24.7391 2.98215 24.5869 3.27084 24.3025C4.23878 23.3373 5.35673 22.5876 6.56524 22.062V18.8046C5.57182 19.1291 4.61803 19.56 3.72085 20.1087Z" fill="#A9B533"/>
<path d="M27.4638 5.75973C28.185 6.95462 28.6715 8.30673 28.8554 9.75603C30.6259 11.0452 31.7855 13.1406 31.7855 15.5103C31.7855 19.4237 28.6376 22.6053 24.7685 22.6053H16.5805C14.0747 22.6053 11.6649 23.2885 9.56068 24.5692V21.2332C8.51704 21.3504 7.50734 21.6191 6.5542 22.0308V27.6565C6.5542 28.2682 6.91622 28.8199 7.47622 29.06C7.66289 29.1372 7.86087 29.1772 8.05886 29.1772C8.44633 29.1772 8.82532 29.0257 9.11381 28.7399C11.1276 26.7417 13.7805 25.6412 16.5834 25.6412H24.7713C30.3006 25.6412 34.7976 21.096 34.7976 15.5046C34.7976 10.8623 31.6893 6.9489 27.4695 5.75401" fill="#004A8F"/>
<path d="M16.634 8.33536H24.8604C25.0935 8.33536 25.3209 8.34692 25.5455 8.37003C25.0651 7.12751 24.2549 6.05548 23.2259 5.26084H16.634C11.0767 5.26084 6.5542 9.85528 6.5542 15.5044V18.8216C7.5292 18.5038 8.54116 18.2929 9.57586 18.2062V15.5073C9.57586 11.5544 12.7425 8.33536 16.6311 8.33536" fill="#00A851"/>
<path d="M9.47593 18.082C8.47639 18.1728 7.49882 18.3837 6.5542 18.7058V22.027C7.4796 21.6052 8.46266 21.327 9.47593 21.2099V18.082Z" fill="#A9B533"/>
<path d="M9.47593 18.082C8.47639 18.1728 7.49882 18.3837 6.5542 18.7058V22.027C7.4796 21.6052 8.46266 21.327 9.47593 21.2099V18.082Z" fill="#00A851"/>
<path d="M23.1106 5.26084C24.1602 6.05697 24.9813 7.12814 25.47 8.3759C26.7624 8.50038 27.9508 8.97517 28.9541 9.69892C28.769 8.22825 28.2717 6.8589 27.5315 5.65167C26.6525 5.40559 25.7302 5.26374 24.7731 5.26374H23.1106V5.26084Z" fill="#A9B533"/>
<path d="M23.1106 5.26084C24.1602 6.05697 24.9813 7.12814 25.47 8.3759C26.7624 8.50038 27.9508 8.97517 28.9541 9.69892C28.769 8.22825 28.2717 6.8589 27.5315 5.65167C26.6525 5.40559 25.7302 5.26374 24.7731 5.26374H23.1106V5.26084Z" fill="#00A851"/>
<path d="M45.7985 27.2571C47.4361 27.2571 48.8648 25.8702 48.8648 24.2083C48.8648 22.5463 47.5169 21.1366 45.8793 21.1366H42.1697V27.2542H45.7957L45.7985 27.2571ZM45.3641 19.7096C46.7928 19.7096 47.9764 18.4946 47.9764 17.0218C47.9764 15.549 46.7956 14.3369 45.3641 14.3369H42.1725V19.7096H45.3641ZM41.4066 28.6841C40.9916 28.6841 40.6379 28.323 40.6379 27.8961V13.6951C40.6379 13.2681 40.9888 12.9042 41.4066 12.9042H45.4866C47.7035 12.9042 49.5081 14.7581 49.5081 16.9989C49.5081 18.3428 48.8871 19.5348 47.9123 20.2827C49.3828 20.9446 50.377 22.4145 50.377 24.2083C50.377 26.6582 48.2827 28.6841 45.8793 28.6841H41.4038H41.4066Z" fill="#004A8F"/>
<path d="M42.4055 19.2446H45.3646C46.666 19.2446 47.7232 18.1824 47.7232 16.8785C47.7232 15.5745 46.666 14.5153 45.3646 14.5153H42.4055V19.2446ZM45.3646 19.9153H41.739V13.8475H45.3646C47.0337 13.8475 48.3926 15.209 48.3926 16.8814C48.3926 18.5538 47.0337 19.9153 45.3646 19.9153ZM42.4055 26.8265H45.8127C47.3469 26.8265 48.6425 25.5772 48.6425 24.0977C48.6425 22.6181 47.4101 21.3487 45.8989 21.3487H42.4055V26.8265ZM45.8127 27.4972H41.739V20.6809H45.8989C47.7807 20.6809 49.3119 22.2152 49.3119 24.1006C49.3119 25.986 47.7088 27.4972 45.8127 27.4972ZM41.2822 13.0818C41.038 13.0818 40.8254 13.2948 40.8254 13.5395V27.8051C40.8254 28.0498 41.038 28.2628 41.2822 28.2628H45.8989C48.2317 28.2628 50.2025 26.3573 50.2025 24.1006C50.2025 22.4886 49.3033 21.0983 47.8582 20.4651L47.3296 20.2348L47.7922 19.8894C48.7517 19.1726 49.3033 18.0702 49.3033 16.8612C49.3033 14.7801 47.5911 13.0818 45.491 13.0818H41.2822ZM45.8989 28.9306H41.2822C40.6731 28.9306 40.156 28.4154 40.156 27.8051V13.5395C40.156 12.9292 40.6731 12.4111 41.2822 12.4111H45.491C47.9617 12.4111 49.9727 14.4059 49.9727 16.8583C49.9727 18.1018 49.4757 19.2532 48.5937 20.0851C50.01 20.9055 50.869 22.3994 50.869 24.0977C50.869 26.7171 48.5908 28.9277 45.896 28.9277" fill="#004A8F"/>
<path d="M52.3274 21.5274C52.3274 19.7136 53.1178 18.2887 54.4025 17.4007C55.0664 16.9479 56.0494 16.6026 56.7334 16.6026C57.1386 16.6026 57.4404 16.8812 57.4404 17.3136C57.4404 17.659 57.2048 17.984 56.7334 18.0478C55.0664 18.2423 53.8248 19.583 53.8248 21.5245V28.1761C53.8248 28.6056 53.5029 28.9306 53.0775 28.9306C52.6522 28.9306 52.3274 28.6056 52.3274 28.1761V21.5245V21.5274Z" fill="#004A8F"/>
<path d="M56.676 17.0253C56.0912 17.0253 55.1974 17.3399 54.5986 17.7546C53.3929 18.5982 52.7301 19.9453 52.7301 21.544V28.099C52.7301 28.3421 52.8944 28.5108 53.1311 28.5108C53.3678 28.5108 53.5321 28.3421 53.5321 28.099V21.544C53.5321 19.5163 54.7796 18.0091 56.637 17.7889C56.8821 17.7546 57.0352 17.6058 57.0352 17.3942C57.0352 17.1625 56.9016 17.0253 56.6732 17.0253M53.1311 29.1743C52.5436 29.1743 52.0813 28.7024 52.0813 28.0961V21.5411C52.0813 19.7165 52.8443 18.175 54.2339 17.2026C54.9384 16.7135 55.9631 16.356 56.6732 16.356C57.258 16.356 57.6813 16.7908 57.6813 17.3913C57.6813 17.8489 57.3833 18.3523 56.7178 18.4467C55.1974 18.6268 54.1809 19.8709 54.1809 21.544V28.099C54.1809 28.7024 53.7187 29.1772 53.1311 29.1772" fill="#004A8F"/>
<path d="M63.5965 27.5798C66.2412 27.5798 68.1554 25.5823 68.1554 22.7883C68.1554 19.9942 66.1992 17.9563 63.5965 17.9563C60.9938 17.9563 59.1412 20.1039 59.1412 22.7883C59.1412 25.4726 61.0162 27.5798 63.5965 27.5798ZM57.6831 22.7883C57.6831 19.3736 60.2858 16.6026 63.5965 16.6026C66.9073 16.6026 69.6135 19.2004 69.6135 22.7219V28.1772C69.6135 28.6073 69.3001 28.9277 68.8831 28.9277C68.4661 28.9277 68.1554 28.6073 68.1554 28.1772V26.7167H68.1135C67.008 28.0704 65.3848 28.9306 63.5965 28.9306C60.1822 28.9306 57.6831 26.2029 57.6831 22.7883Z" fill="#004A8F"/>
<path d="M63.7188 18.3487C61.3482 18.3487 59.5632 20.2559 59.5632 22.7837C59.5632 25.3115 61.351 27.176 63.7188 27.176C66.0865 27.176 67.9785 25.3286 67.9785 22.7837C67.9785 20.2388 66.2273 18.3487 63.7188 18.3487ZM63.7188 27.8393C60.9766 27.8393 58.9073 25.6645 58.9073 22.7837C58.9073 19.9029 60.9738 17.6883 63.7188 17.6883C66.4638 17.6883 68.6345 19.8318 68.6345 22.7837C68.6345 25.7356 66.5679 27.8393 63.7188 27.8393ZM68.1136 26.3306H68.5922L68.6345 26.6608V28.1012C68.6345 28.3431 68.8006 28.5111 69.0399 28.5111C69.2792 28.5111 69.4453 28.3431 69.4453 28.1012V22.7211C69.4453 19.4702 66.9818 17.0165 63.7188 17.0165C60.4557 17.0165 58.0964 19.5528 58.0964 22.7837C58.0964 26.0146 60.512 28.5111 63.7188 28.5111C65.3573 28.5111 66.9227 27.7596 68.0122 26.4473L68.1108 26.3277L68.1136 26.3306ZM69.0399 29.1743C68.4346 29.1743 67.9785 28.7132 67.9785 28.1012V27.4464C66.8101 28.5538 65.2954 29.1743 63.7188 29.1743C60.1404 29.1743 57.4404 26.4302 57.4404 22.7865C57.4404 19.1429 60.2558 16.356 63.7188 16.356C67.3563 16.356 70.1013 19.0945 70.1013 22.7239V28.104C70.1013 28.716 69.6452 29.1772 69.0399 29.1772" fill="#004A8F"/>
<path d="M77.5087 20.2366C77.0964 20.2366 76.7893 19.8931 76.7893 19.4631C76.7893 18.9695 76.4379 17.9592 75.1016 17.9592C74.1332 17.9592 73.3917 18.7097 73.3917 19.72C73.3917 22.4044 78.6209 21.0073 78.6209 25.3456C78.6209 27.6 77.0577 28.9306 75.1846 28.9306C72.6308 28.9306 71.5601 27.0631 71.5601 25.3225C71.5601 24.9156 71.8893 24.5721 72.2794 24.5721C72.6695 24.5721 73.0016 24.9156 73.0016 25.3225C73.0016 26.4829 73.6185 27.5798 75.1624 27.5798C76.3162 27.5798 77.1794 26.8293 77.1794 25.4726C77.1794 22.3611 71.9502 23.7985 71.9502 19.8672C71.9502 17.9333 73.3308 16.6026 75.1624 16.6026C76.8723 16.6026 78.2087 17.8265 78.2087 19.4804C78.2087 19.9105 77.8988 20.2309 77.5087 20.2309" fill="#004A8F"/>
<path d="M72.1591 24.8731C71.937 24.8731 71.7438 25.0667 71.7438 25.283C71.7438 26.7718 72.6465 28.5111 75.1844 28.5111C77.0965 28.5111 78.4317 27.1931 78.4317 25.3058C78.4317 23.1424 76.9119 22.5873 75.4411 22.0493C74.2327 21.608 72.9839 21.1526 72.9839 19.7549C72.9839 18.5764 73.8923 17.6854 75.1007 17.6854C76.6379 17.6854 77.1945 18.7728 77.1945 19.5015C77.1945 19.7464 77.3733 19.9314 77.6098 19.9314C77.8463 19.9314 78.0049 19.7577 78.0049 19.5215C78.0049 18.0925 76.7821 17.0136 75.1642 17.0136C73.3905 17.0136 72.1533 18.2035 72.1533 19.9029C72.1533 21.7247 73.4886 22.2229 74.8989 22.7495C76.2284 23.2448 77.604 23.7572 77.604 25.431C77.604 26.8714 76.6235 27.8393 75.1642 27.8393C73.255 27.8393 72.5773 26.4615 72.5773 25.283C72.5773 25.0667 72.3811 24.8731 72.162 24.8731M75.1873 29.1743C72.3465 29.1743 71.0747 27.2215 71.0747 25.2859C71.0747 24.7051 71.5736 24.2127 72.162 24.2127C72.7503 24.2127 73.2492 24.7051 73.2492 25.2859C73.2492 25.7299 73.3877 27.1789 75.1671 27.1789C76.2572 27.1789 76.935 26.5099 76.935 25.4339C76.935 24.2753 76.0726 23.8967 74.6653 23.3701C73.2492 22.8435 71.4842 22.1859 71.4842 19.9058C71.4842 17.8505 73.0329 16.356 75.1671 16.356C77.1686 16.356 78.6798 17.7196 78.6798 19.5243C78.6798 20.125 78.2125 20.5975 77.6156 20.5975C77.0186 20.5975 76.5283 20.1164 76.5283 19.5044C76.5283 19.493 76.511 18.3515 75.1036 18.3515C74.2788 18.3515 73.6587 18.955 73.6587 19.7577C73.6587 20.6459 74.4259 20.9732 75.6804 21.4315C77.2089 21.9866 79.1095 22.6812 79.1095 25.3086C79.1095 27.5859 77.4973 29.1772 75.1901 29.1772" fill="#004A8F"/>
<path d="M82.2734 28.1883C82.2734 28.6137 81.9593 28.9307 81.5415 28.9307C81.1237 28.9307 80.8125 28.6137 80.8125 28.1883V17.4805C80.8125 17.055 81.1265 16.7381 81.5415 16.7381C81.9565 16.7381 82.2734 17.055 82.2734 17.4805V28.1883ZM82.2734 14.8878C82.2734 15.3132 81.9593 15.6302 81.5415 15.6302C81.1237 15.6302 80.8125 15.3132 80.8125 14.8878V13.4001C80.8125 12.9747 81.1265 12.6577 81.5415 12.6577C81.9565 12.6577 82.2734 12.9747 82.2734 13.4001V14.8878Z" fill="#004A8F"/>
<path d="M81.5472 12.8355C81.3276 12.8355 81.1752 13.0047 81.1752 13.2484V14.7424C81.1752 14.9861 81.3276 15.1553 81.5472 15.1553C81.7667 15.1553 81.9192 14.9861 81.9192 14.7424V13.2484C81.9192 13.0047 81.7667 12.8355 81.5472 12.8355ZM81.5472 15.8206C80.9943 15.8206 80.5732 15.356 80.5732 14.7395V13.2456C80.5732 12.6291 80.9917 12.1645 81.5472 12.1645C82.1026 12.1645 82.5211 12.6291 82.5211 13.2456V14.7395C82.5211 15.356 82.1026 15.8206 81.5472 15.8206ZM81.5472 16.9303C81.3276 16.9303 81.1752 17.0994 81.1752 17.3432V28.0962C81.1752 28.3399 81.3276 28.5091 81.5472 28.5091C81.7667 28.5091 81.9192 28.3399 81.9192 28.0962V17.3432C81.9192 17.0994 81.7667 16.9303 81.5472 16.9303ZM81.5472 29.1772C80.9943 29.1772 80.5732 28.7127 80.5732 28.0962V17.3432C80.5732 16.7295 80.9917 16.2621 81.5472 16.2621C82.1026 16.2621 82.5211 16.7267 82.5211 17.3432V28.0962C82.5211 28.7127 82.1026 29.1772 81.5472 29.1772Z" fill="#004A8F"/>
<path d="M86.1699 28.1881C86.1699 28.6137 85.858 28.9307 85.4394 28.9307C85.0208 28.9307 84.709 28.6137 84.709 28.1881V13.4003C84.709 12.9747 85.0208 12.6577 85.4394 12.6577C85.858 12.6577 86.1699 12.9747 86.1699 13.4003V28.1881Z" fill="#004A8F"/>
<path d="M85.562 12.8355C85.3149 12.8355 85.1435 13.0047 85.1435 13.2484V28.099C85.1435 28.3428 85.3149 28.5119 85.562 28.5119C85.809 28.5119 85.9805 28.3428 85.9805 28.099V13.2484C85.9805 13.0047 85.809 12.8355 85.562 12.8355ZM85.562 29.1772C84.9371 29.1772 84.4663 28.7127 84.4663 28.0962V13.2456C84.4663 12.6291 84.9371 12.1645 85.562 12.1645C86.1868 12.1645 86.6576 12.6291 86.6576 13.2456V28.0962C86.6576 28.7127 86.1868 29.1772 85.562 29.1772Z" fill="#004A8F"/>
<path d="M97.8748 28.9307C93.5568 28.9307 89.822 25.3614 89.822 20.8784C89.822 16.3954 93.3886 12.6577 97.8748 12.6577C100.651 12.6577 103.028 13.9969 104.528 16.0785C104.612 16.207 104.674 16.3555 104.674 16.5239C104.674 16.9494 104.36 17.2663 103.942 17.2663C103.463 17.2663 103.191 16.8437 102.734 16.3098C101.545 14.9306 100.023 14.0797 97.872 14.0797C94.1989 14.0797 91.3642 17.1607 91.3642 20.8784C91.3642 24.5962 94.3279 27.5087 97.872 27.5087C99.8739 27.5087 101.71 26.5721 102.941 25.1273C103.233 24.7875 103.547 24.3192 103.942 24.3192C104.36 24.3192 104.674 24.639 104.674 25.0616C104.674 25.2329 104.632 25.3386 104.548 25.4671C103.045 27.5715 100.583 28.9307 97.872 28.9307" fill="#004A8F"/>
<path d="M116.588 21.8675C116.21 19.3967 114.339 17.9592 112.238 17.9592C110.136 17.9592 108.266 19.3996 107.91 21.8675H116.591H116.588ZM118.06 22.4881C118.06 22.9181 117.724 23.1981 117.303 23.1981H107.887C107.91 25.5188 109.947 27.5798 112.28 27.5798C114.128 27.5798 115.475 26.6792 116.337 25.1725C116.484 24.9156 116.673 24.7453 117.032 24.7453C117.325 24.7453 117.684 25.0022 117.684 25.4524C117.684 25.5621 117.664 25.6458 117.622 25.7526C116.614 27.7703 114.574 28.9306 112.305 28.9306C108.859 28.9306 106.379 26.1365 106.379 22.6612C106.379 19.186 108.944 16.6026 112.243 16.6026C115.543 16.6026 118.066 19.3303 118.066 22.465V22.4852L118.06 22.4881Z" fill="#004A8F"/>
<path d="M129.996 28.1801C129.996 28.5871 129.641 28.9306 129.262 28.9306C128.864 28.9306 128.529 28.5871 128.529 28.1801V21.6077C128.529 19.5035 126.849 17.9563 124.896 17.9563C122.943 17.9563 121.241 19.5035 121.241 21.6077V28.1801C121.241 28.5871 120.905 28.9306 120.507 28.9306C120.109 28.9306 119.77 28.5871 119.77 28.1801V21.5442C119.77 18.5798 122.164 16.6026 124.916 16.6026C127.668 16.6026 129.996 18.5798 129.996 21.5442V28.1801Z" fill="#004A8F"/>
<path d="M132.616 26.2951C132.472 25.7212 132.43 24.9131 132.43 24.5533V13.4001C132.43 12.9747 132.741 12.6577 133.152 12.6577C133.562 12.6577 133.876 12.9747 133.876 13.4001V17.0322H136.374C136.745 17.0322 137.034 17.3092 137.034 17.6918C137.034 18.0744 136.745 18.3714 136.374 18.3714H133.876V24.639C133.876 26.5293 134.598 27.5487 136.374 27.5487C136.765 27.5487 137.056 27.8256 137.056 28.2283C137.056 28.6309 136.768 28.9307 136.374 28.9307C134.639 28.9307 133.11 28.2083 132.616 26.2951Z" fill="#004A8F"/>
<path d="M148.001 21.8675C147.623 19.3967 145.753 17.9592 143.651 17.9592C141.549 17.9592 139.679 19.3996 139.32 21.8675H148.001ZM149.473 22.4881C149.473 22.9181 149.137 23.1981 148.716 23.1981H139.3C139.323 25.5188 141.36 27.5798 143.693 27.5798C145.544 27.5798 146.888 26.6792 147.75 25.1725C147.897 24.9156 148.086 24.7453 148.442 24.7453C148.736 24.7453 149.095 25.0022 149.095 25.4524C149.095 25.5621 149.075 25.6458 149.032 25.7526C148.024 27.7703 145.984 28.9306 143.713 28.9306C140.266 28.9306 137.786 26.1365 137.786 22.6612C137.786 19.186 140.351 16.6026 143.651 16.6026C146.95 16.6026 149.473 19.3303 149.473 22.465V22.4852V22.4881Z" fill="#004A8F"/>
<path d="M151.178 21.5274C151.178 19.7136 151.968 18.2887 153.253 17.4007C153.917 16.9479 154.9 16.6026 155.584 16.6026C155.989 16.6026 156.291 16.8812 156.291 17.3136C156.291 17.659 156.055 17.984 155.584 18.0478C153.917 18.2423 152.675 19.583 152.675 21.5245V28.1761C152.675 28.6056 152.356 28.9306 151.928 28.9306C151.5 28.9306 151.181 28.6056 151.181 28.1761V21.5245L151.178 21.5274Z" fill="#004A8F"/>
</svg>
