<svg width="72" height="72" viewBox="0 0 72 72" fill="none" xmlns="http://www.w3.org/2000/svg">
<path d="M65.9038 38.9196C65.4407 44.7405 63.3165 50.306 59.7832 54.955C56.2499 59.6041 51.4567 63.1412 45.9722 65.1458C40.4879 67.1508 34.5434 67.5393 28.8449 66.2654C23.1463 64.9909 17.9333 62.108 13.8252 57.9581C9.71699 53.8087 6.88636 48.5669 5.66956 42.8558C4.45277 37.1447 4.90095 31.2044 6.96087 25.7406C9.02079 20.2768 12.6059 15.5191 17.2901 12.0328C21.9744 8.54654 27.561 6.47817 33.3862 6.07349" stroke="#EC0A0A" stroke-width="6" stroke-linecap="round" stroke-linejoin="round"/>
<path d="M48.5915 41.6146C47.7442 43.7956 46.3665 45.7309 44.5832 47.2457C42.7999 48.7604 40.6672 49.8067 38.3778 50.29C36.0885 50.7732 33.7148 50.6785 31.4714 50.0137C29.228 49.3491 27.1857 48.1357 25.529 46.4834C23.8725 44.831 22.6538 42.7918 21.9834 40.5501C21.313 38.3084 21.2119 35.935 21.6893 33.6444C22.1668 31.3538 23.2076 29.2184 24.7177 27.4312C26.2279 25.644 28.1597 24.2614 30.3384 23.4084" stroke="#EC0A0A" stroke-width="6" stroke-linecap="round" stroke-linejoin="round"/>
<path d="M35.5 36.5003L47.2308 24.7695" stroke="#EC0A0A" stroke-width="6" stroke-linecap="round" stroke-linejoin="round"/>
<path d="M56.6153 27.1154L47.2307 24.7692L44.8845 15.3846L54.2691 6L56.6153 15.3846L65.9999 17.7308L56.6153 27.1154Z" stroke="#EC0A0A" stroke-width="6" stroke-linecap="round" stroke-linejoin="round"/>
</svg>
