<svg width="72" height="72" viewBox="0 0 72 72" fill="none" xmlns="http://www.w3.org/2000/svg">
<path d="M30.1947 37.4789L11.6547 41.4329C10.9351 41.589 10.1829 41.4556 9.56083 41.0615C8.93878 40.6674 8.49688 40.0443 8.33072 39.3269L6.71972 32.8769C6.53031 32.0997 6.63787 31.2799 7.02132 30.5779C7.40476 29.876 8.03648 29.3424 8.79272 29.0819L49.3047 15.7619M40.6797 35.2409L53.6757 32.4689M47.9997 62.9999L38.6847 44.3699M18.4737 25.8989L21.8157 39.2669M23.9997 62.9999L33.3147 44.3699M49.4547 17.8199C49.0691 16.2763 49.3123 14.6428 50.1308 13.2785C50.9494 11.9143 52.2763 10.931 53.8197 10.5449L57.0897 9.72886C57.8611 9.53644 58.6773 9.65805 59.359 10.067C60.0408 10.4759 60.5323 11.1387 60.7257 11.9099L65.2707 30.0899C65.464 30.8616 65.3429 31.6786 64.9338 32.361C64.5248 33.0435 63.8615 33.5355 63.0897 33.7289L59.8197 34.5449C58.2762 34.9305 56.6426 34.6873 55.2784 33.8687C53.9141 33.0502 52.9308 31.7233 52.5447 30.1799L49.4547 17.8199ZM41.9997 38.9999C41.9997 42.3136 39.3134 44.9999 35.9997 44.9999C32.686 44.9999 29.9997 42.3136 29.9997 38.9999C29.9997 35.6861 32.686 32.9999 35.9997 32.9999C39.3134 32.9999 41.9997 35.6861 41.9997 38.9999Z" stroke="#EC0A0A" stroke-width="6" stroke-linecap="round" stroke-linejoin="round"/>
<path d="M30.5663 37.8392L12.0263 41.7932C11.3067 41.9494 10.5545 41.816 9.93241 41.4219C9.31036 41.0278 8.86846 40.4046 8.7023 39.6872L7.0913 33.2372C6.90189 32.4601 7.00945 31.6402 7.3929 30.9383C7.77635 30.2363 8.40806 29.7028 9.1643 29.4422L49.6763 16.1222M41.0513 35.6012L54.0473 32.8292M48.3713 63.3602L39.0563 44.7302M18.8453 26.2592L22.1873 39.6272M24.3713 63.3602L33.6863 44.7302M49.8263 18.1802C49.4406 16.6367 49.6838 15.0031 50.5024 13.6389C51.321 12.2746 52.6479 11.2913 54.1913 10.9052L57.4613 10.0892C58.2327 9.89679 59.0488 10.0184 59.7306 10.4273C60.4123 10.8363 60.9039 11.4991 61.0973 12.2702L65.6423 30.4502C65.8356 31.222 65.7144 32.039 65.3054 32.7214C64.8964 33.4038 64.2331 33.8958 63.4613 34.0892L60.1913 34.9052C58.6478 35.2909 57.0142 35.0477 55.65 34.2291C54.2857 33.4105 53.3024 32.0836 52.9163 30.5402L49.8263 18.1802ZM42.3713 39.3602C42.3713 42.6739 39.685 45.3602 36.3713 45.3602C33.0576 45.3602 30.3713 42.6739 30.3713 39.3602C30.3713 36.0465 33.0576 33.3602 36.3713 33.3602C39.685 33.3602 42.3713 36.0465 42.3713 39.3602Z" stroke="#EC0A0A" stroke-width="6" stroke-linecap="round" stroke-linejoin="round"/>
</svg>
