<svg width="197" height="36" viewBox="0 0 197 36" fill="none" xmlns="http://www.w3.org/2000/svg">
<g clip-path="url(#clip0_1513_628)">
<path d="M31.8945 12.6727C31.8945 17.5666 27.9157 21.5454 23.0254 21.5454H12.6763C12.1794 21.5454 11.686 21.574 11.1963 21.6169V25.4348C11.686 25.3812 12.1794 25.349 12.6763 25.349H23.0254C30.0141 25.349 35.6981 19.6615 35.6981 12.6727C35.6981 12.1329 35.6552 11.6039 35.5873 11.0819C34.3504 10.1882 32.8811 9.60196 31.2796 9.44824C31.6728 10.4492 31.8945 11.5324 31.8945 12.6727Z" fill="#00A851"/>
<path d="M3.80361 24.0013V12.6727C3.80361 7.78236 7.78595 3.80002 12.6763 3.80002H23.0254C25.0309 3.80002 26.8755 4.47566 28.3626 5.60173H30.4181C31.6014 5.60173 32.7418 5.77689 33.8285 6.08075C31.5978 2.44517 27.5976 0 23.0218 0H12.6727C5.68754 0 0 5.68395 0 12.6727V27.8656C0 28.6306 0.461152 29.3206 1.16539 29.6173C1.40133 29.7174 1.65157 29.7639 1.9018 29.7639C2.39155 29.7639 2.87058 29.5744 3.23521 29.2205C4.4578 28.0194 5.86985 27.0863 7.3963 26.4321V22.3783C6.14154 22.7823 4.93682 23.3185 3.80361 24.0013Z" fill="#A9B533"/>
<path d="M33.829 6.0843C34.7406 7.57857 35.3555 9.26945 35.5878 11.0819C37.8257 12.6941 39.2914 15.3145 39.2914 18.278C39.2914 23.1719 35.3126 27.1506 30.4222 27.1506H20.0731C16.9058 27.1506 13.8601 28.005 11.2004 29.6065V25.4347C9.88131 25.5813 8.6051 25.9173 7.40039 26.4321V33.4673C7.40039 34.2323 7.85797 34.9223 8.56578 35.2226C8.80172 35.3191 9.05196 35.3691 9.30219 35.3691C9.79194 35.3691 10.271 35.1797 10.6356 34.8222C13.1809 32.3234 16.5341 30.9471 20.0767 30.9471H30.4258C37.4146 30.9471 43.0985 25.2631 43.0985 18.2708C43.0985 12.4653 39.1698 7.57142 33.8362 6.07715" fill="white"/>
<path d="M20.0689 9.40516H30.4144C30.7075 9.40516 30.9935 9.41946 31.2759 9.44806C30.6718 7.91089 29.653 6.58463 28.3589 5.60156H20.0689C13.0801 5.60156 7.39258 11.2855 7.39258 18.2743V22.3781C8.61874 21.9849 9.89138 21.7239 11.1926 21.6167V18.2778C11.1926 13.3875 15.175 9.40516 20.0653 9.40516" fill="#00A851"/>
<path d="M11.1962 21.6172C9.89495 21.728 8.62232 21.9854 7.39258 22.3786V26.4325C8.59729 25.9177 9.87708 25.5781 11.1962 25.4351V21.6172Z" fill="#A9B533"/>
<path d="M11.1962 21.6172C9.89495 21.728 8.62232 21.9854 7.39258 22.3786V26.4325C8.59729 25.9177 9.87708 25.5781 11.1962 25.4351V21.6172Z" fill="#00A851"/>
<path d="M28.3623 5.60547C29.66 6.58854 30.6752 7.91122 31.2794 9.45196C32.8773 9.60568 34.3466 10.1919 35.587 11.0857C35.3582 9.26965 34.7434 7.57876 33.8282 6.08807C32.7415 5.78421 31.6011 5.60904 30.4178 5.60904H28.3623V5.60547Z" fill="#A9B533"/>
<path d="M28.3623 5.60547C29.66 6.58854 30.6752 7.91122 31.2794 9.45196C32.8773 9.60568 34.3466 10.1919 35.587 11.0857C35.3582 9.26965 34.7434 7.57876 33.8282 6.08807C32.7415 5.78421 31.6011 5.60904 30.4178 5.60904H28.3623V5.60547Z" fill="#00A851"/>
<path d="M56.9786 32.8271C59.0806 32.8271 60.9145 31.0969 60.9145 29.0235C60.9145 26.9501 59.1843 25.1913 57.0823 25.1913H52.3206V32.8235H56.9751L56.9786 32.8271ZM56.421 23.4111C58.2548 23.4111 59.7741 21.8953 59.7741 20.0579C59.7741 18.2204 58.2584 16.7083 56.421 16.7083H52.3242V23.4111H56.421ZM51.3411 34.6074C50.8085 34.6074 50.3545 34.1569 50.3545 33.6243V15.9075C50.3545 15.3749 50.8049 14.9209 51.3411 14.9209H56.5783C59.4238 14.9209 61.7403 17.2338 61.7403 20.0293C61.7403 21.7059 60.9431 23.193 59.6919 24.126C61.5794 24.9518 62.8556 26.7857 62.8556 29.0235C62.8556 32.08 60.1674 34.6074 57.0823 34.6074H51.3376H51.3411Z" fill="white"/>
<path d="M52.7395 22.9964H56.4216C58.041 22.9964 59.3565 21.6773 59.3565 20.0579C59.3565 18.4385 58.041 17.123 56.4216 17.123H52.7395V22.9964ZM56.4216 23.8293H51.9102V16.2936H56.4216C58.4985 16.2936 60.1894 17.9845 60.1894 20.0614C60.1894 22.1384 58.4985 23.8293 56.4216 23.8293ZM52.7395 32.4124H56.9792C58.8882 32.4124 60.5004 30.8609 60.5004 29.0235C60.5004 27.186 58.9668 25.6095 57.0865 25.6095H52.7395V32.4124ZM56.9792 33.2453H51.9102V24.7802H57.0865C59.428 24.7802 61.3334 26.6856 61.3334 29.0271C61.3334 31.3686 59.3386 33.2453 56.9792 33.2453ZM51.3418 15.3427C51.0379 15.3427 50.7734 15.6072 50.7734 15.9111V33.6278C50.7734 33.9317 51.0379 34.1962 51.3418 34.1962H57.0865C59.9892 34.1962 62.4416 31.8297 62.4416 29.0271C62.4416 27.0252 61.3227 25.2985 59.5245 24.5121L58.8668 24.2261L59.4423 23.7971C60.6363 22.907 61.3227 21.5378 61.3227 20.0364C61.3227 17.4518 59.1921 15.3427 56.5789 15.3427H51.3418ZM57.0865 35.0256H51.3418C50.5839 35.0256 49.9404 34.3857 49.9404 33.6278V15.9111C49.9404 15.1532 50.5839 14.5098 51.3418 14.5098H56.5789C59.6532 14.5098 62.1556 16.9871 62.1556 20.0328C62.1556 21.5772 61.5371 23.0071 60.4397 24.0402C62.2021 25.059 63.2709 26.9144 63.2709 29.0235C63.2709 32.2766 60.4361 35.022 57.0829 35.022" fill="white"/>
<path d="M65.3262 25.8067C65.3262 23.5724 66.3092 21.8172 67.9072 20.7233C68.733 20.1656 69.9556 19.7402 70.8064 19.7402C71.3104 19.7402 71.6858 20.0834 71.6858 20.6161C71.6858 21.0415 71.3926 21.4418 70.8064 21.5205C68.733 21.76 67.1886 23.4116 67.1886 25.8031V33.9966C67.1886 34.5256 66.7883 34.926 66.2592 34.926C65.7301 34.926 65.3262 34.5256 65.3262 33.9966V25.8031V25.8067Z" fill="white"/>
<path d="M70.8067 20.1588C70.0559 20.1588 68.9084 20.552 68.1398 21.0703C66.5919 22.1249 65.7411 23.8087 65.7411 25.807V34.0004C65.7411 34.3043 65.952 34.5152 66.2559 34.5152C66.5598 34.5152 66.7707 34.3043 66.7707 34.0004V25.807C66.7707 23.2724 68.3722 21.3885 70.7566 21.1132C71.0712 21.0703 71.2678 20.8845 71.2678 20.6199C71.2678 20.3304 71.0962 20.1588 70.8031 20.1588M66.2559 35.3446C65.5016 35.3446 64.9082 34.7547 64.9082 33.9969V25.8034C64.9082 23.5227 65.8877 21.5958 67.6715 20.3804C68.576 19.7691 69.8915 19.3223 70.8031 19.3223C71.5538 19.3223 72.0972 19.8656 72.0972 20.6163C72.0972 21.1883 71.7147 21.8175 70.8603 21.9355C68.9084 22.1607 67.6036 23.7157 67.6036 25.807V34.0004C67.6036 34.7547 67.0102 35.3481 66.2559 35.3481" fill="white"/>
<path d="M79.5223 33.2815C82.9005 33.2815 85.3457 30.8078 85.3457 27.3473C85.3457 23.8869 82.8469 21.3631 79.5223 21.3631C76.1978 21.3631 73.8312 24.0228 73.8312 27.3473C73.8312 30.6719 76.2264 33.2815 79.5223 33.2815ZM71.9688 27.3473C71.9688 23.1183 75.2933 19.6865 79.5223 19.6865C83.7513 19.6865 87.2082 22.9039 87.2082 27.2651V34.0215C87.2082 34.5542 86.8078 34.951 86.2752 34.951C85.7425 34.951 85.3457 34.5542 85.3457 34.0215V32.2127H85.2921C83.88 33.8892 81.8066 34.9545 79.5223 34.9545C75.1611 34.9545 71.9688 31.5763 71.9688 27.3473Z" fill="white"/>
<path d="M79.5217 21.7778C76.5117 21.7778 74.2452 24.1729 74.2452 27.3473C74.2452 30.5217 76.5152 32.8632 79.5217 32.8632C82.5281 32.8632 84.9304 30.5432 84.9304 27.3473C84.9304 24.1514 82.7068 21.7778 79.5217 21.7778ZM79.5217 33.6962C76.0398 33.6962 73.4123 30.965 73.4123 27.3473C73.4123 23.7296 76.0362 20.9484 79.5217 20.9484C83.0071 20.9484 85.7633 23.6402 85.7633 27.3473C85.7633 31.0544 83.1394 33.6962 79.5217 33.6962ZM85.1019 31.8015H85.7097L85.7633 32.2162V34.0251C85.7633 34.3289 85.9742 34.5398 86.2781 34.5398C86.5819 34.5398 86.7928 34.3289 86.7928 34.0251V27.2687C86.7928 23.1862 83.6649 20.1047 79.5217 20.1047C75.3784 20.1047 72.3827 23.2899 72.3827 27.3473C72.3827 31.4047 75.4499 34.5398 79.5217 34.5398C81.6022 34.5398 83.5898 33.5961 84.9732 31.9481L85.0984 31.7979L85.1019 31.8015ZM86.2781 35.3728C85.5095 35.3728 84.9304 34.7936 84.9304 34.0251V33.2028C83.4468 34.5934 81.5236 35.3728 79.5217 35.3728C74.9781 35.3728 71.5498 31.9266 71.5498 27.3509C71.5498 22.7751 75.1246 19.2754 79.5217 19.2754C84.1403 19.2754 87.6258 22.7144 87.6258 27.2722V34.0286C87.6258 34.7972 87.0466 35.3763 86.2781 35.3763" fill="white"/>
<path d="M97.1243 24.1833C96.5917 24.1833 96.1949 23.7579 96.1949 23.2253C96.1949 22.614 95.7409 21.3628 94.0142 21.3628C92.7631 21.3628 91.805 22.2922 91.805 23.5434C91.805 26.868 98.5614 25.1378 98.5614 30.5107C98.5614 33.3026 96.5416 34.9506 94.1215 34.9506C90.8219 34.9506 89.4385 32.6377 89.4385 30.4821C89.4385 29.9781 89.8639 29.5527 90.3679 29.5527C90.872 29.5527 91.301 29.9781 91.301 30.4821C91.301 31.9192 92.0981 33.2776 94.0929 33.2776C95.5836 33.2776 96.6989 32.3482 96.6989 30.668C96.6989 26.8144 89.9425 28.5946 89.9425 23.7257C89.9425 21.3306 91.7264 19.6826 94.0929 19.6826C96.3021 19.6826 98.0288 21.1983 98.0288 23.2467C98.0288 23.7793 97.6284 24.1762 97.1243 24.1762" fill="white"/>
<path d="M90.3676 29.9712C90.0923 29.9712 89.8528 30.2143 89.8528 30.486C89.8528 32.3556 90.9717 34.5398 94.1176 34.5398C96.4877 34.5398 98.1428 32.8847 98.1428 30.5146C98.1428 27.7977 96.2589 27.1006 94.4357 26.425C92.9379 25.8709 91.39 25.2989 91.39 23.5437C91.39 22.0637 92.516 20.9448 94.0139 20.9448C95.9193 20.9448 96.6092 22.3104 96.6092 23.2256C96.6092 23.533 96.8308 23.7654 97.124 23.7654C97.4171 23.7654 97.6137 23.5473 97.6137 23.2506C97.6137 21.456 96.098 20.1012 94.0925 20.1012C91.894 20.1012 90.3604 21.5954 90.3604 23.7296C90.3604 26.0175 92.0156 26.6431 93.7636 27.3044C95.4116 27.9264 97.1168 28.5699 97.1168 30.6719C97.1168 32.4807 95.9014 33.6962 94.0925 33.6962C91.726 33.6962 90.8859 31.966 90.8859 30.486C90.8859 30.2143 90.6428 29.9712 90.3711 29.9712M94.1211 35.3728C90.5999 35.3728 89.0234 32.9204 89.0234 30.4896C89.0234 29.7603 89.6419 29.1419 90.3711 29.1419C91.1004 29.1419 91.7189 29.7603 91.7189 30.4896C91.7189 31.0472 91.8904 32.8668 94.0961 32.8668C95.4474 32.8668 96.2875 32.0267 96.2875 30.6755C96.2875 29.2205 95.2186 28.7451 93.4741 28.0837C91.7189 27.4224 89.5311 26.5966 89.5311 23.7332C89.5311 21.1522 91.4507 19.2754 94.0961 19.2754C96.577 19.2754 98.4502 20.9877 98.4502 23.2542C98.4502 24.0084 97.8711 24.6019 97.1311 24.6019C96.3911 24.6019 95.7834 23.9977 95.7834 23.2291C95.7834 23.2148 95.762 21.7813 94.0175 21.7813C92.9951 21.7813 92.2265 22.5392 92.2265 23.5473C92.2265 24.6626 93.1774 25.0737 94.7324 25.6493C96.6271 26.3464 98.9829 27.2186 98.9829 30.5182C98.9829 33.378 96.9846 35.3763 94.1247 35.3763" fill="white"/>
<path d="M103.066 34.0254C103.066 34.5581 102.665 34.9549 102.133 34.9549C101.6 34.9549 101.203 34.5581 101.203 34.0254V20.6199C101.203 20.0872 101.604 19.6904 102.133 19.6904C102.662 19.6904 103.066 20.0872 103.066 20.6199V34.0254ZM103.066 17.374C103.066 17.9066 102.665 18.3034 102.133 18.3034C101.6 18.3034 101.203 17.9066 101.203 17.374V15.5115C101.203 14.9788 101.604 14.582 102.133 14.582C102.662 14.582 103.066 14.9788 103.066 15.5115V17.374Z" fill="white"/>
<path d="M102.133 14.9967C101.829 14.9967 101.618 15.2076 101.618 15.5114V17.3739C101.618 17.6778 101.829 17.8887 102.133 17.8887C102.437 17.8887 102.648 17.6778 102.648 17.3739V15.5114C102.648 15.2076 102.437 14.9967 102.133 14.9967ZM102.133 18.718C101.368 18.718 100.785 18.1389 100.785 17.3703V15.5079C100.785 14.7393 101.364 14.1602 102.133 14.1602C102.901 14.1602 103.481 14.7393 103.481 15.5079V17.3703C103.481 18.1389 102.901 18.718 102.133 18.718ZM102.133 20.1015C101.829 20.1015 101.618 20.3124 101.618 20.6163V34.0218C101.618 34.3257 101.829 34.5366 102.133 34.5366C102.437 34.5366 102.648 34.3257 102.648 34.0218V20.6163C102.648 20.3124 102.437 20.1015 102.133 20.1015ZM102.133 35.3695C101.368 35.3695 100.785 34.7904 100.785 34.0218V20.6163C100.785 19.8513 101.364 19.2686 102.133 19.2686C102.901 19.2686 103.481 19.8477 103.481 20.6163V34.0218C103.481 34.7904 102.901 35.3695 102.133 35.3695Z" fill="white"/>
<path d="M108.153 34.0248C108.153 34.5574 107.756 34.9542 107.223 34.9542C106.691 34.9542 106.294 34.5574 106.294 34.0248V15.5144C106.294 14.9818 106.691 14.585 107.223 14.585C107.756 14.585 108.153 14.9818 108.153 15.5144V34.0248Z" fill="white"/>
<path d="M107.223 14.9967C106.919 14.9967 106.708 15.2076 106.708 15.5114V34.0254C106.708 34.3292 106.919 34.5401 107.223 34.5401C107.527 34.5401 107.737 34.3292 107.737 34.0254V15.5114C107.737 15.2076 107.527 14.9967 107.223 14.9967ZM107.223 35.3695C106.454 35.3695 105.875 34.7904 105.875 34.0218V15.5079C105.875 14.7393 106.454 14.1602 107.223 14.1602C107.991 14.1602 108.57 14.7393 108.57 15.5079V34.0218C108.57 34.7904 107.991 35.3695 107.223 35.3695Z" fill="white"/>
<path d="M122.81 34.9549C117.305 34.9549 112.543 30.4864 112.543 24.8739C112.543 19.2615 117.09 14.582 122.81 14.582C126.349 14.582 129.38 16.2586 131.293 18.8647C131.4 19.0255 131.479 19.2114 131.479 19.4223C131.479 19.955 131.078 20.3518 130.546 20.3518C129.934 20.3518 129.588 19.8227 129.005 19.1542C127.489 17.4276 125.548 16.3623 122.806 16.3623C118.123 16.3623 114.509 20.2195 114.509 24.8739C114.509 29.5283 118.288 33.1746 122.806 33.1746C125.359 33.1746 127.7 32.0021 129.27 30.1932C129.641 29.7678 130.042 29.1815 130.546 29.1815C131.078 29.1815 131.479 29.5819 131.479 30.111C131.479 30.3255 131.425 30.4578 131.318 30.6186C129.402 33.2533 126.263 34.9549 122.806 34.9549" fill="white"/>
<path d="M146.357 26.207C145.878 23.1469 143.511 21.3667 140.852 21.3667C138.192 21.3667 135.825 23.1505 135.375 26.207H146.36H146.357ZM148.219 26.9756C148.219 27.5082 147.794 27.855 147.261 27.855H135.346C135.375 30.7291 137.953 33.2815 140.905 33.2815C143.243 33.2815 144.948 32.1662 146.039 30.3001C146.225 29.982 146.464 29.7711 146.918 29.7711C147.29 29.7711 147.744 30.0892 147.744 30.6469C147.744 30.7827 147.719 30.8864 147.665 31.0187C146.389 33.5175 143.808 34.9545 140.937 34.9545C136.576 34.9545 133.438 31.4941 133.438 27.19C133.438 22.886 136.683 19.6865 140.859 19.6865C145.034 19.6865 148.227 23.0647 148.227 26.947V26.972L148.219 26.9756Z" fill="white"/>
<path d="M163.53 34.0251C163.53 34.5291 163.079 34.9545 162.6 34.9545C162.096 34.9545 161.671 34.5291 161.671 34.0251V25.8852C161.671 23.2792 159.544 21.3631 157.07 21.3631C154.596 21.3631 152.441 23.2792 152.441 25.8852V34.0251C152.441 34.5291 152.015 34.9545 151.511 34.9545C151.007 34.9545 150.578 34.5291 150.578 34.0251V25.8066C150.578 22.1353 153.61 19.6865 157.095 19.6865C160.58 19.6865 163.53 22.1353 163.53 25.8066V34.0251Z" fill="white"/>
<path d="M166.74 31.6582C166.555 30.9397 166.501 29.928 166.501 29.4776V15.5144C166.501 14.9818 166.901 14.585 167.43 14.585C167.959 14.585 168.363 14.9818 168.363 15.5144V20.0616H171.581C172.06 20.0616 172.432 20.4083 172.432 20.8873C172.432 21.3664 172.06 21.7382 171.581 21.7382H168.363V29.5849C168.363 31.9514 169.293 33.2276 171.581 33.2276C172.085 33.2276 172.46 33.5743 172.46 34.0784C172.46 34.5824 172.088 34.9578 171.581 34.9578C169.347 34.9578 167.377 34.0534 166.74 31.6582Z" fill="white"/>
<path d="M186.037 26.207C185.558 23.1469 183.191 21.3667 180.532 21.3667C177.872 21.3667 175.505 23.1505 175.051 26.207H186.037ZM187.899 26.9756C187.899 27.5082 187.474 27.855 186.941 27.855H175.026C175.055 30.7291 177.632 33.2815 180.585 33.2815C182.927 33.2815 184.628 32.1662 185.719 30.3001C185.905 29.982 186.144 29.7711 186.595 29.7711C186.966 29.7711 187.42 30.0892 187.42 30.6469C187.42 30.7827 187.395 30.8864 187.342 31.0187C186.065 33.5175 183.484 34.9545 180.61 34.9545C176.249 34.9545 173.11 31.4941 173.11 27.19C173.11 22.886 176.356 19.6865 180.532 19.6865C184.707 19.6865 187.899 23.0647 187.899 26.947V26.972V26.9756Z" fill="white"/>
<path d="M190.263 25.8067C190.263 23.5724 191.246 21.8172 192.844 20.7233C193.67 20.1656 194.892 19.7402 195.743 19.7402C196.247 19.7402 196.622 20.0834 196.622 20.6161C196.622 21.0415 196.329 21.4418 195.743 21.5205C193.67 21.76 192.125 23.4116 192.125 25.8031V33.9966C192.125 34.5256 191.728 34.926 191.196 34.926C190.663 34.926 190.266 34.5256 190.266 33.9966V25.8031L190.263 25.8067Z" fill="white"/>
</g>
<defs>
<clipPath id="clip0_1513_628">
<rect width="196.619" height="35.3727" fill="white"/>
</clipPath>
</defs>
</svg>
